<svg width="36" height="35" viewBox="0 0 36 35" fill="none" xmlns="http://www.w3.org/2000/svg">
<path d="M14.4927 15.4651C15.6018 15.4651 16.5008 16.3761 16.5008 17.5V24.8256C16.5008 25.9495 15.6018 26.8605 14.4927 26.8605C13.3836 26.8605 12.4845 25.9495 12.4845 24.8256V17.5C12.4845 16.3761 13.3836 15.4651 14.4927 15.4651Z" fill="black"/>
<path d="M21.722 15.4651C22.8312 15.4651 23.7302 16.3761 23.7302 17.5V24.8256C23.7302 25.9495 22.8312 26.8605 21.722 26.8605C20.6129 26.8605 19.7139 25.9495 19.7139 24.8256V17.5C19.7139 16.3761 20.6129 15.4651 21.722 15.4651Z" fill="black"/>
<path fill-rule="evenodd" clip-rule="evenodd" d="M12.4845 0C10.71 0 9.27145 1.45768 9.27145 3.25581V7.32558H2.44371C1.33462 7.32558 0.435547 8.23662 0.435547 9.36047C0.435547 10.4843 1.33462 11.3953 2.44371 11.3953H4.68812L5.88049 31.9353C5.9804 33.6563 7.38677 35 9.088 35H27.1267C28.8279 35 30.2344 33.6563 30.3342 31.9353L31.5265 11.3953H33.771C34.8802 11.3953 35.7792 10.4843 35.7792 9.36047C35.7792 8.23662 34.8802 7.32558 33.771 7.32558H26.9433V3.25581C26.9433 1.45768 25.5048 0 23.7302 0H12.4845ZM8.71138 11.3953L9.8454 30.9302H26.3692L27.5033 11.3953H8.71138ZM13.2878 7.32558V4.06977H22.9269V7.32558H13.2878Z" fill="black"/>
</svg>
