<svg width="60" height="60" viewBox="0 0 60 60" fill="none" xmlns="http://www.w3.org/2000/svg">
<rect x="0.5" y="0.5" width="59" height="59" rx="14.5" fill="black" stroke="white"/>
<path fill-rule="evenodd" clip-rule="evenodd" d="M31.7631 15.6136C34.9406 15.9287 37.5775 15.8542 39.5343 17.8801C42.8643 21.3279 45.0007 23.642 46.0342 28.4223C46.6547 31.2919 45.5636 34.373 44.0897 37.1064C42.7344 39.6199 41.1322 41.8396 38.5423 43.3304C36.2709 44.6379 33.1375 45.2099 30.5833 45.2099C28.883 45.2099 26.6865 45.2655 24.7404 44.879C22.0035 44.3355 19.3569 42.5729 17.9585 40.5153C15.6665 37.1432 12.4697 32.7959 13.6802 28.6777C14.9053 24.5095 17.1901 19.6203 21.5005 17.0193C23.5728 15.7689 26.3927 15.5381 29.0516 15.5794C29.5063 15.5864 31.3193 15.5696 31.7631 15.6136Z" fill="white" stroke="white" stroke-width="0.666709" stroke-miterlimit="2.61313"/>
<path fill-rule="evenodd" clip-rule="evenodd" d="M45.268 34.392C45.5764 34.4063 46.5457 34.5971 47.3514 35.0035C47.8121 35.2358 48.7678 35.519 49.0319 35.9193C49.2353 36.2277 48.9035 36.7341 48.7446 37.0977C45.3133 44.9508 38.7082 49.502 29.5035 49.502C18.3011 49.502 9.21973 40.9111 9.21973 30.3135C9.21973 19.716 18.3011 11.125 29.5035 11.125C38.7405 11.125 47.0643 17.0431 49.5058 25.0586C49.1108 25.2019 45.6131 26.7489 45.4739 26.3641C45.2145 25.6472 44.412 24.2111 43.7248 23.1257C42.5511 21.2722 41.1101 19.4454 39.5904 17.8721C37.6259 15.8382 34.9782 15.9129 31.7879 15.5965C31.3424 15.5523 29.5219 15.5692 29.0655 15.5621C26.3959 15.5207 23.5646 15.7524 21.484 17.0078C17.1562 19.6193 14.8622 24.5283 13.6321 28.7133C12.4168 32.8481 15.6265 37.2129 17.9276 40.5986C19.3317 42.6645 21.989 44.4343 24.7369 44.9799C26.6908 45.368 28.8962 45.3121 30.6033 45.3121C33.1679 45.3121 36.314 44.7378 38.5945 43.4251C41.1948 41.9283 42.8036 39.6995 44.1643 37.1759C44.6462 36.2822 44.889 35.3564 45.268 34.392Z" fill="black" stroke="white" stroke-width="0.666709" stroke-miterlimit="2.61313"/>
<path fill-rule="evenodd" clip-rule="evenodd" d="M51.9839 35.277C49.6669 44.7448 40.6171 51.7876 29.8133 51.7876C17.2139 51.7876 7 42.2092 7 30.3938C7 18.5783 17.2139 9 29.8133 9C40.6115 9 49.6576 16.0355 52 25.4801C51.911 25.5821 51.3289 26.7336 49.7719 27.3471C49.1899 27.5764 46.166 28.5885 46.1141 28.4295C45.8251 27.5453 45.6397 26.4254 45.6397 26.4254C46.7516 26.1812 47.9692 25.9439 49.5595 25.0017C47.09 16.988 39.1732 11.125 29.7886 11.125C18.4285 11.125 9.21937 19.716 9.21937 30.3135C9.21937 40.9111 18.4285 49.5021 29.7886 49.5021C39.2361 49.5021 45.6683 44.687 49.139 36.03C49.2403 35.7774 46.6547 34.4978 45.3919 34.4031C45.318 34.3976 45.6694 33.8676 46.0398 32.3611C46.0571 32.2905 47.6754 32.5125 49.4447 33.4125C50.3056 33.8504 51.2417 34.4998 51.9839 35.277Z" fill="white" stroke="white" stroke-width="0.666709" stroke-miterlimit="2.61313"/>
<path fill-rule="evenodd" clip-rule="evenodd" d="M45.5038 26.4533C45.7751 27.0567 45.9737 28.5297 45.9737 28.5297C44.3337 28.5312 41.5282 28.6693 41.0204 28.5159C40.0466 28.2219 39.1687 27.9691 38.3558 27.5621C36.751 26.7588 36.2283 25.2268 34.5197 24.4947C32.1975 23.4995 29.0335 23.4623 27.9889 23.7009C25.862 24.1866 24.2762 26.0308 23.9387 26.7625C23.2087 28.3449 23.1686 30.7602 23.2392 31.6575C23.3409 32.95 23.7424 34.0066 24.076 34.5492C24.9418 35.9578 26.561 36.7615 27.2806 37.0059C28.5152 37.4252 30.1878 37.2642 30.7679 37.246C32.0702 37.2051 33.4964 36.939 33.9067 36.6314C35.2755 35.6051 37.5502 33.7649 38.6332 33.2628C39.9822 32.6374 41.478 32.3358 41.54 32.3269C43.0061 32.1158 45.9813 31.9941 45.9153 32.3392C45.7238 33.3416 45.3963 34.3782 45.2238 34.3752C43.4333 34.3431 40.5607 34.5509 39.3904 35.4859C38.2929 36.3627 36.6683 37.9933 34.7486 38.848C33.3677 39.4628 31.6696 39.471 30.6746 39.471C28.0233 39.471 25.5721 39.2642 23.8063 37.6836C22.8046 36.7869 21.6589 35.8513 21.1532 34.4234C20.7282 33.2233 20.8616 31.5627 20.8616 30.3934C20.8616 27.6327 21.74 24.9471 23.842 23.2823C25.5573 21.9236 28.2392 21.3157 30.6746 21.3157C34.0805 21.3157 37.2292 22.8475 39.0984 25.2299C40.2035 26.6382 43.4506 26.5821 45.5038 26.4533Z" fill="black" stroke="black" stroke-width="0.666709" stroke-miterlimit="2.61313"/>
</svg>
