<svg width="65" height="47" viewBox="0 0 65 47" fill="none" xmlns="http://www.w3.org/2000/svg">
<path d="M46.183 1H12.306C6.19059 1 1.22559 5.91673 1.22559 11.9727V29.0313C1.22559 35.0873 6.19059 40.004 12.306 40.004H46.183C52.2984 40.004 57.2634 35.0873 57.2634 29.0313V11.9727C57.2634 5.91673 52.2984 1 46.183 1Z" stroke="white" stroke-width="1.5" stroke-linecap="round" stroke-linejoin="round"/>
<path d="M52.2377 6.996H18.3607C12.2453 6.996 7.28027 11.9127 7.28027 17.9687V35.0273C7.28027 41.0833 12.2453 46 18.3607 46H52.2377C58.3531 46 63.3181 41.0833 63.3181 35.0273V17.9687C63.3181 11.9127 58.3531 6.996 52.2377 6.996Z" fill="#090808" stroke="#F7F7F7" stroke-width="1.5" stroke-linecap="round" stroke-linejoin="round"/>
<path d="M22.8714 32.6589C26.3157 32.6589 29.1079 29.8938 29.1079 26.483C29.1079 23.0722 26.3157 20.3071 22.8714 20.3071C19.427 20.3071 16.6348 23.0722 16.6348 26.483C16.6348 29.8938 19.427 32.6589 22.8714 32.6589Z" stroke="white" stroke-width="1.5" stroke-linecap="round" stroke-linejoin="round"/>
<path d="M38.4326 20.3071H53.9937" stroke="white" stroke-width="1.5" stroke-linecap="round" stroke-linejoin="round"/>
<path d="M38.4326 32.6589H53.9937" stroke="white" stroke-width="1.5" stroke-linecap="round" stroke-linejoin="round"/>
</svg>
