<svg width="60" height="60" viewBox="0 0 60 60" fill="none" xmlns="http://www.w3.org/2000/svg">
<rect x="0.5" y="0.5" width="59" height="59" rx="14.5" fill="url(#paint0_linear_1409_287)" stroke="black"/>
<g filter="url(#filter0_d_1409_287)">
<path d="M54.1379 26.9524C53.8758 26.8186 53.5784 26.7482 53.2758 26.7482C52.9731 26.7482 52.6758 26.8186 52.4137 26.9524L30 38.1524L7.58622 26.9524C7.32361 26.8184 7.02566 26.748 6.72243 26.7482C6.4192 26.7485 6.12141 26.8194 5.85911 26.9539C5.5968 27.0884 5.37926 27.2816 5.22843 27.5141C5.07759 27.7466 4.99881 28.0101 5.00001 28.2781V41.4286C5.00001 42.641 5.54496 43.8038 6.51498 44.6611C7.48499 45.5184 8.80061 46 10.1724 46H49.8275C51.1993 46 52.515 45.5184 53.485 44.6611C54.455 43.8038 54.9999 42.641 54.9999 41.4286V28.2857C55.0027 28.0159 54.9243 27.7503 54.7728 27.5161C54.6214 27.2818 54.4023 27.0873 54.1379 26.9524Z" fill="white"/>
</g>
<g filter="url(#filter1_d_1409_287)">
<path d="M49.8275 14H10.1724C8.80061 14 7.48499 14.4816 6.51498 15.3389C5.54496 16.1962 5.00001 17.359 5.00001 18.5714V21.4286C4.99881 21.6971 5.0779 21.9611 5.22929 22.1939C5.38067 22.4267 5.59897 22.62 5.86208 22.7543L29.1379 34.3733C29.4 34.5071 29.6973 34.5775 30 34.5775C30.3026 34.5775 30.5999 34.5071 30.862 34.3733L54.1379 22.7543C54.401 22.62 54.6193 22.4267 54.7707 22.1939C54.922 21.9611 55.0011 21.6971 54.9999 21.4286V18.5714C54.9999 17.359 54.455 16.1962 53.485 15.3389C52.515 14.4816 51.1993 14 49.8275 14Z" fill="white"/>
</g>
<defs>
<filter id="filter0_d_1409_287" x="1" y="26.7482" width="58" height="27.2518" filterUnits="userSpaceOnUse" color-interpolation-filters="sRGB">
<feFlood flood-opacity="0" result="BackgroundImageFix"/>
<feColorMatrix in="SourceAlpha" type="matrix" values="0 0 0 0 0 0 0 0 0 0 0 0 0 0 0 0 0 0 127 0" result="hardAlpha"/>
<feOffset dy="4"/>
<feGaussianBlur stdDeviation="2"/>
<feComposite in2="hardAlpha" operator="out"/>
<feColorMatrix type="matrix" values="0 0 0 0 0 0 0 0 0 0 0 0 0 0 0 0 0 0 0.25 0"/>
<feBlend mode="normal" in2="BackgroundImageFix" result="effect1_dropShadow_1409_287"/>
<feBlend mode="normal" in="SourceGraphic" in2="effect1_dropShadow_1409_287" result="shape"/>
</filter>
<filter id="filter1_d_1409_287" x="1" y="14" width="58" height="28.5775" filterUnits="userSpaceOnUse" color-interpolation-filters="sRGB">
<feFlood flood-opacity="0" result="BackgroundImageFix"/>
<feColorMatrix in="SourceAlpha" type="matrix" values="0 0 0 0 0 0 0 0 0 0 0 0 0 0 0 0 0 0 127 0" result="hardAlpha"/>
<feOffset dy="4"/>
<feGaussianBlur stdDeviation="2"/>
<feComposite in2="hardAlpha" operator="out"/>
<feColorMatrix type="matrix" values="0 0 0 0 0 0 0 0 0 0 0 0 0 0 0 0 0 0 0.25 0"/>
<feBlend mode="normal" in2="BackgroundImageFix" result="effect1_dropShadow_1409_287"/>
<feBlend mode="normal" in="SourceGraphic" in2="effect1_dropShadow_1409_287" result="shape"/>
</filter>
<linearGradient id="paint0_linear_1409_287" x1="30" y1="0" x2="30" y2="60" gradientUnits="userSpaceOnUse">
<stop/>
<stop offset="1"/>
</linearGradient>
</defs>
</svg>
