<svg width="19" height="14" viewBox="0 0 19 14" fill="none" xmlns="http://www.w3.org/2000/svg">
<g clip-path="url(#clip0_1280_90)">
<path d="M17.3378 7.60035C17.077 7.60035 16.7872 7.48142 16.6133 7.21381C14.3819 3.91334 11.9186 2.15904 9.48433 2.15904C7.05005 2.15904 4.61578 3.91334 2.38436 7.21381C2.12354 7.63009 1.57293 7.71929 1.16722 7.45168C0.761506 7.18408 0.674568 6.61913 0.935383 6.20286C3.57252 2.33744 6.44148 0.375 9.48433 0.375C12.5272 0.375 15.4251 2.33744 18.0333 6.20286C18.2941 6.61913 18.2072 7.15434 17.8014 7.45168C17.6855 7.54088 17.5116 7.60035 17.3378 7.60035Z" fill="black"/>
<path d="M9.48433 13.0417C6.44148 13.0417 3.57252 11.0792 0.935383 7.21383C0.674568 6.79755 0.761506 6.26234 1.16722 5.965C1.57293 5.69739 2.09456 5.7866 2.38436 6.20287C4.61578 9.50334 7.07903 11.2576 9.51331 11.2576C11.9476 11.2576 14.3819 9.50334 16.6423 6.20287C16.9031 5.7866 17.4537 5.69739 17.8594 5.965C18.2651 6.23261 18.352 6.79755 18.0912 7.21383C15.4251 11.0792 12.5562 13.0417 9.48433 13.0417Z" fill="black"/>
<path d="M9.48408 10.3954C7.51348 10.3954 5.89062 8.73028 5.89062 6.70837C5.89062 4.68646 7.51348 3.02136 9.48408 3.02136C11.4547 3.02136 13.0775 4.68646 13.0775 6.70837C13.0775 8.73028 11.4837 10.3954 9.48408 10.3954ZM9.48408 4.8054C8.4698 4.8054 7.62939 5.66769 7.62939 6.70837C7.62939 7.74906 8.4698 8.61135 9.48408 8.61135C10.4984 8.61135 11.3388 7.74906 11.3388 6.70837C11.3388 5.66769 10.5273 4.8054 9.48408 4.8054Z" fill="black"/>
</g>
<defs>
<clipPath id="clip0_1280_90">
<rect width="17.4167" height="12.6667" fill="white" transform="translate(0.791016 0.375)"/>
</clipPath>
</defs>
</svg>
