<svg width="60" height="60" viewBox="0 0 60 60" fill="none" xmlns="http://www.w3.org/2000/svg">
<rect x="0.5" y="0.5" width="59" height="59" rx="14.5" fill="black" stroke="white"/>
<g filter="url(#filter0_i_1130_813)">
<g clip-path="url(#clip0_1130_813)">
<g filter="url(#filter1_i_1130_813)">
<path d="M33.2359 25.4934V25.9934H33.7359H41.1101L39.9732 33.3317H33.7359H33.2359V33.8317V53.5H25.2835V33.8317V33.3317H24.7835H18.0234V25.9934H24.7835H25.2835V25.4934V19.1355C25.2835 15.6188 26.3214 12.9496 28.0952 11.1606C29.8686 9.37213 32.4347 8.40541 35.606 8.40479C37.6023 8.42972 39.5943 8.59274 41.5682 8.89265V15.0656H38.3994C36.5128 15.0656 35.1936 15.6619 34.3559 16.6391C33.5303 17.6021 33.2359 18.8614 33.2359 20.0735V25.4934Z" fill="#E5E5E5" stroke="white"/>
</g>
</g>
</g>
<defs>
<filter id="filter0_i_1130_813" x="6" y="6.85718" width="47.1426" height="47.6428" filterUnits="userSpaceOnUse" color-interpolation-filters="sRGB">
<feFlood flood-opacity="0" result="BackgroundImageFix"/>
<feBlend mode="normal" in="SourceGraphic" in2="BackgroundImageFix" result="shape"/>
<feColorMatrix in="SourceAlpha" type="matrix" values="0 0 0 0 0 0 0 0 0 0 0 0 0 0 0 0 0 0 127 0" result="hardAlpha"/>
<feOffset dy="0.5"/>
<feGaussianBlur stdDeviation="1.25"/>
<feComposite in2="hardAlpha" operator="arithmetic" k2="-1" k3="1"/>
<feColorMatrix type="matrix" values="0 0 0 0 0 0 0 0 0 0 0 0 0 0 0 0 0 0 0.1 0"/>
<feBlend mode="normal" in2="shape" result="effect1_innerShadow_1130_813"/>
</filter>
<filter id="filter1_i_1130_813" x="17.5234" y="7.90479" width="24.5449" height="46.5952" filterUnits="userSpaceOnUse" color-interpolation-filters="sRGB">
<feFlood flood-opacity="0" result="BackgroundImageFix"/>
<feBlend mode="normal" in="SourceGraphic" in2="BackgroundImageFix" result="shape"/>
<feColorMatrix in="SourceAlpha" type="matrix" values="0 0 0 0 0 0 0 0 0 0 0 0 0 0 0 0 0 0 127 0" result="hardAlpha"/>
<feOffset dy="0.5"/>
<feGaussianBlur stdDeviation="1"/>
<feComposite in2="hardAlpha" operator="arithmetic" k2="-1" k3="1"/>
<feColorMatrix type="matrix" values="0 0 0 0 0 0 0 0 0 0 0 0 0 0 0 0 0 0 0.2 0"/>
<feBlend mode="normal" in2="shape" result="effect1_innerShadow_1130_813"/>
</filter>
<clipPath id="clip0_1130_813">
<rect x="6" y="6.85718" width="47.1429" height="47.1429" rx="15" fill="white"/>
</clipPath>
</defs>
</svg>
