<svg width="60" height="60" viewBox="0 0 60 60" fill="none" xmlns="http://www.w3.org/2000/svg">
<rect x="0.5" y="0.5" width="59" height="59" rx="14.5" fill="black" stroke="#FDFDFD"/>
<g filter="url(#filter0_i_1130_830)">
<path d="M41.6485 47.009C44.1076 46.0589 46.0517 44.1148 47.0018 41.6557C47.4515 40.4908 47.7664 39.1618 47.8518 37.2177C47.8721 36.7623 47.8878 36.38 47.9024 35.9966V23.0075C47.8923 22.7365 47.8811 22.4543 47.8664 22.1372C47.781 20.1931 47.4662 18.8574 47.0164 17.6992C46.552 16.4702 45.8369 15.3695 44.9014 14.4553C43.9861 13.5254 42.8786 12.8036 41.6631 12.3471C40.4982 11.8973 39.1692 11.5825 37.2251 11.497C35.2664 11.4037 34.6446 11.3823 29.6781 11.3823C24.7116 11.3823 24.0887 11.4037 22.1379 11.4891C20.1938 11.5746 18.858 11.8894 17.6999 12.3392C16.4709 12.8036 15.3701 13.5187 14.4548 14.4553C13.5261 15.3706 12.8042 16.4781 12.3466 17.6925C11.8968 18.8574 11.582 20.1864 11.4965 22.1305C11.4032 24.0892 11.3818 24.711 11.3818 29.6786C11.3818 34.6462 11.4032 35.268 11.4887 37.2188C11.5741 39.1629 11.8889 40.4998 12.3398 41.6569C12.8042 42.8858 13.5261 43.9866 14.4548 44.9019C15.3701 45.8306 16.4776 46.5536 17.6931 47.0101C18.858 47.4599 20.187 47.7747 22.1311 47.8602C24.082 47.9468 24.7038 47.9681 29.6714 47.9681C34.639 47.9681 35.2596 47.9468 37.2116 47.8602C39.1557 47.7747 40.4915 47.4599 41.6496 47.0101L41.6485 47.009ZM29.6849 44.6792C24.8027 44.6792 24.2169 44.6579 22.2942 44.5724C20.5075 44.4937 19.5427 44.1935 18.8996 43.9439C18.1069 43.6504 17.385 43.186 16.7981 42.5789C16.1909 41.9852 15.7254 41.2712 15.4331 40.4774C15.1834 39.8342 14.8832 38.8616 14.8045 37.0828C14.7191 35.1533 14.6977 34.5742 14.6977 29.6921C14.6977 24.8099 14.7191 24.2241 14.8045 22.3025C14.8832 20.5158 15.1834 19.5511 15.4331 18.908C15.7265 18.1141 16.1909 17.3923 16.806 16.8064C17.3985 16.1993 18.1136 15.7349 18.9063 15.4414C19.5495 15.1918 20.5221 14.8916 22.3009 14.8129C24.2304 14.7274 24.8094 14.7061 29.6905 14.7061C34.5715 14.7061 35.1585 14.7274 37.0812 14.8129C38.8679 14.8916 39.8326 15.1918 40.4757 15.4414C41.2685 15.7349 41.9903 16.1993 42.5761 16.8064C43.1833 17.4001 43.6488 18.1141 43.9412 18.908C44.1908 19.5511 44.491 20.5226 44.5697 22.3025C44.6552 24.232 44.6765 24.8111 44.6765 29.6921C44.6765 34.5731 44.6552 35.1454 44.5697 37.0749C44.491 38.8616 44.1908 39.8263 43.9412 40.4695C43.3261 42.0639 42.0612 43.3288 40.4679 43.9428C39.8247 44.1924 38.8532 44.4926 37.0733 44.5713C35.1438 44.6568 34.5648 44.6781 29.6837 44.6781L29.6849 44.6792Z" fill="white"/>
<path d="M29.6782 20.2786C24.4891 20.2786 20.2793 24.4883 20.2793 29.6774C20.2793 34.8666 24.4891 39.0763 29.6782 39.0763C34.8673 39.0763 39.0759 34.8666 39.0759 29.6774C39.0759 24.4883 34.8662 20.2786 29.6782 20.2786ZM29.6782 35.7728C26.3117 35.7728 23.5817 33.0428 23.5817 29.6763C23.5817 26.3099 26.3117 23.5798 29.6782 23.5798C33.0446 23.5798 35.7747 26.3099 35.7747 29.6763C35.7747 33.0428 33.0446 35.7728 29.6782 35.7728Z" fill="white"/>
<path d="M41.6425 19.9076C41.6425 18.6955 40.6597 17.7139 39.4476 17.7139C38.2355 17.7139 37.2539 18.6966 37.2539 19.9076C37.2539 21.1186 38.2366 22.1013 39.4476 22.1013C40.6586 22.1013 41.6425 21.1197 41.6425 19.9076Z" fill="white"/>
</g>
<defs>
<filter id="filter0_i_1130_830" x="11.3818" y="11.3823" width="36.5205" height="37.0858" filterUnits="userSpaceOnUse" color-interpolation-filters="sRGB">
<feFlood flood-opacity="0" result="BackgroundImageFix"/>
<feBlend mode="normal" in="SourceGraphic" in2="BackgroundImageFix" result="shape"/>
<feColorMatrix in="SourceAlpha" type="matrix" values="0 0 0 0 0 0 0 0 0 0 0 0 0 0 0 0 0 0 127 0" result="hardAlpha"/>
<feOffset dy="0.5"/>
<feGaussianBlur stdDeviation="1.25"/>
<feComposite in2="hardAlpha" operator="arithmetic" k2="-1" k3="1"/>
<feColorMatrix type="matrix" values="0 0 0 0 0 0 0 0 0 0 0 0 0 0 0 0 0 0 0.1 0"/>
<feBlend mode="normal" in2="shape" result="effect1_innerShadow_1130_830"/>
</filter>
</defs>
</svg>
