<svg width="60" height="60" viewBox="0 0 60 60" fill="none" xmlns="http://www.w3.org/2000/svg">
<rect x="0.5" y="0.5" width="59" height="59" rx="14.5" fill="black" stroke="white"/>
<path d="M17.5016 52.6538L22.048 50.6496M17.5016 52.6538L14.1919 45.6508C9.73705 41.6655 7 35.8936 7 29.2171C7 16.4537 17.0034 7 29.9042 7C42.805 7 52.8084 16.4594 52.8084 29.2228C52.8084 41.9861 42.805 51.4398 29.9042 51.4398C27.5851 51.4398 25.3634 51.1306 23.2734 50.558C22.8669 50.4492 22.4317 50.4779 22.048 50.6496M17.5016 52.6538C17.227 52.7749 16.9268 52.8267 16.6275 52.8047C16.3282 52.7826 16.0389 52.6874 15.785 52.5274C15.5311 52.3674 15.3204 52.1474 15.1714 51.8869C15.0225 51.6264 14.9397 51.3333 14.9306 51.0333L14.8046 46.9563L17.5016 52.6538ZM22.048 50.6496L21.8464 50.1921L21.8457 50.1924M22.048 50.6496L14.5253 45.2782M14.5253 45.2782C14.9944 45.697 15.2891 46.2941 15.3044 46.9428C15.3044 46.9436 15.3045 46.9443 15.3045 46.945L15.4303 51.0178L15.4303 51.018C15.437 51.2361 15.4972 51.4493 15.6055 51.6387C15.7138 51.8281 15.867 51.9881 16.0516 52.1044C16.2363 52.2208 16.4466 52.29 16.6642 52.306C16.8819 52.322 17.1001 52.2844 17.2998 52.1963L17.2999 52.1962L21.8437 50.1933C21.8444 50.193 21.845 50.1927 21.8457 50.1924M14.5253 45.2782C10.1765 41.3877 7.5 35.7514 7.5 29.2171C7.5 16.7477 17.2613 7.5 29.9042 7.5C42.5469 7.5 52.3084 16.7533 52.3084 29.2228C52.3084 41.6921 42.5471 50.9398 29.9042 50.9398C27.6298 50.9398 25.4525 50.6366 23.4055 50.0758L23.4027 50.075C22.891 49.9381 22.3384 49.9724 21.8457 50.1924M14.5253 45.2782L21.8457 50.1924M34.5548 27.7367L34.5549 27.7366L41.7805 22.2516L34.5548 27.7367ZM34.5548 27.7367C34.4035 27.8515 34.219 27.914 34.029 27.9147C33.8392 27.9154 33.6543 27.8542 33.5023 27.7405L34.5548 27.7367ZM44.0877 24.3632L44.0867 24.3649L37.3531 35.0321L44.0877 24.3632ZM44.0877 24.3632C45.0182 22.8762 43.194 21.1756 41.7812 22.251L44.0877 24.3632ZM25.2536 32.0717L25.2535 32.0718L18.0279 37.5568C16.6236 38.6267 14.7826 36.9465 15.7272 35.4495L25.2536 32.0717ZM25.2536 32.0717C25.4048 31.9568 25.5894 31.8943 25.7793 31.8937C25.9692 31.893 26.154 31.9542 26.306 32.0679L25.2536 32.0717ZM16.573 35.983L16.5732 35.9827L23.3013 25.3094L23.3014 25.3092C23.5177 24.9659 23.8028 24.6711 24.1387 24.4435C24.4747 24.2158 24.8541 24.0603 25.2532 23.9868C25.6523 23.9132 26.0623 23.9232 26.4573 24.0161C26.8523 24.109 27.2238 24.2827 27.5483 24.5264L27.5486 24.5267L32.9025 28.5406L32.9027 28.5408C33.2287 28.7849 33.6253 28.9161 34.0325 28.9147C34.4397 28.9133 34.8354 28.7793 35.1596 28.533L42.3858 23.0475L42.3865 23.047C42.8973 22.6578 43.5915 23.2696 43.2404 23.8321C43.2403 23.8323 43.2401 23.8325 43.24 23.8328L36.5072 34.4987L36.507 34.4991C36.2907 34.8425 36.0056 35.1373 35.6696 35.3649C35.3337 35.5925 34.9542 35.748 34.5551 35.8216C34.1561 35.8951 33.7461 35.8852 33.3511 35.7923C32.956 35.6994 32.5846 35.5256 32.2601 35.282L32.2598 35.2817L26.9059 31.2678L26.9056 31.2675C26.5797 31.0235 26.1831 30.8923 25.7759 30.8937C25.3687 30.8951 24.9731 31.029 24.6488 31.2753C24.6488 31.2753 24.6488 31.2753 24.6487 31.2754L17.4226 36.7608L17.4219 36.7614C16.9023 37.1572 16.224 36.5359 16.573 35.983ZM22.4552 24.7763L15.7274 35.4492L28.1485 23.7266C27.7135 23.4 27.2156 23.1671 26.6862 23.0426C26.1566 22.9181 25.6069 22.9047 25.0719 23.0033C24.5369 23.102 24.0282 23.3104 23.5778 23.6156C23.1275 23.9207 22.7453 24.3159 22.4553 24.7761C22.4553 24.7762 22.4553 24.7762 22.4552 24.7763ZM33.502 27.7403L28.1488 23.7268L33.502 27.7403ZM36.2306 36.1928C36.6808 35.8877 37.0629 35.4926 37.3528 35.0325L31.6599 36.0818C32.0948 36.4084 32.5927 36.6413 33.1222 36.7657C33.6518 36.8903 34.2014 36.9036 34.7364 36.805C35.2714 36.7064 35.7802 36.4979 36.2306 36.1928ZM26.3063 32.0681L31.6596 36.0816L26.3063 32.0681Z" fill="#FEFEFE" stroke="white"/>
</svg>
