<svg width="60" height="60" viewBox="0 0 60 60" fill="none" xmlns="http://www.w3.org/2000/svg">
<rect x="0.5" y="0.5" width="59" height="59" rx="14.5" fill="black" stroke="white"/>
<path d="M41 27.2078V39.8055C41 40.727 40.8723 41.6319 40.463 42.4673C39.8326 43.7676 38.8093 44.5865 37.4357 44.9835C36.676 45.2069 35.8917 45.3276 35.0993 45.3624C33.0265 45.4666 31.2272 44.0439 30.8604 41.976C30.5444 40.2704 31.3549 38.3911 33.128 37.5126C33.8271 37.1685 34.5868 36.9617 35.3449 36.8062C36.1717 36.6259 36.9985 36.4621 37.8172 36.2719C38.4229 36.1346 38.8143 35.764 38.9338 35.1337C38.9682 34.9964 38.9763 34.8492 38.9763 34.7119C38.9763 30.7051 38.9763 26.6983 38.9763 22.7015C38.9763 22.5642 38.9501 22.4252 38.9174 22.2962C38.8323 21.9603 38.5932 21.7618 38.2527 21.7784C37.9023 21.7949 37.5617 21.8561 37.2212 21.9256C35.5577 22.2531 33.8959 22.589 32.2406 22.9331L24.1656 24.5791C24.1312 24.5874 24.0887 24.6056 24.0543 24.6056C23.4485 24.7776 23.2357 25.0539 23.2095 25.6908C23.2013 25.7851 23.2095 25.8811 23.2095 25.9754C23.2013 31.7142 23.2095 37.4531 23.2013 43.1903C23.2013 44.1216 23.0981 45.0348 22.733 45.8951C22.1272 47.3079 21.0532 48.1962 19.6042 48.6181C18.8363 48.8414 18.0521 48.9721 17.2498 48.9969C15.1607 49.0747 13.4203 47.6702 13.0633 45.594C12.7555 43.8024 13.566 41.8718 15.5782 41.0099C16.3624 40.6823 17.1729 40.502 17.9997 40.3299C18.6218 40.2009 19.2538 40.0719 19.876 39.9428C20.711 39.7625 21.1465 39.2282 21.1891 38.3663V38.0387C21.1891 31.5074 21.1891 24.9762 21.1891 18.4449C21.1891 18.1686 21.2235 17.894 21.2824 17.626C21.4363 16.9974 21.88 16.6351 22.476 16.4878C23.031 16.3406 23.6024 16.238 24.164 16.1173C25.7669 15.7897 27.3616 15.4622 28.9645 15.1429L33.9188 14.1255C35.3858 13.8326 36.843 13.5316 38.31 13.2387C38.7881 13.1444 39.2743 13.0402 39.759 13.0055C40.4319 12.9459 40.9018 13.3761 40.9705 14.0659C40.9869 14.2297 40.9967 14.3935 40.9967 14.5572C40.9967 18.7708 40.9967 22.9844 40.9967 27.1979L41 27.2078Z" fill="white"/>
</svg>
