<svg width="60" height="60" viewBox="0 0 60 60" fill="none" xmlns="http://www.w3.org/2000/svg">
<rect x="0.5" y="0.5" width="59" height="59" rx="14.5" fill="black" stroke="white"/>
<path d="M21.8291 50.5242L22.603 45.6086L20.8791 45.5687H12.6475L18.368 9.29647C18.3858 9.18697 18.4435 9.08487 18.5278 9.01236C18.6122 8.93985 18.7202 8.8999 18.8327 8.8999H32.7124C37.3202 8.8999 40.5001 9.85876 42.1603 11.7513C42.9387 12.6391 43.4344 13.5669 43.6741 14.5879C43.9256 15.6592 43.9301 16.9392 43.6845 18.5003L43.6667 18.6142V19.6145L44.445 20.0555C45.1005 20.4032 45.6214 20.8012 46.0209 21.257C46.6868 22.0161 47.1174 22.9809 47.2994 24.1247C47.4873 25.301 47.4252 26.7009 47.1174 28.2856C46.7623 30.1086 46.1881 31.6964 45.4128 32.9956C44.6995 34.1926 43.791 35.1855 42.7123 35.955C41.6824 36.686 40.4587 37.2409 39.0751 37.596C37.7345 37.9452 36.206 38.1213 34.5295 38.1213H33.4493C32.6769 38.1213 31.9266 38.3995 31.3377 38.8981C30.7473 39.4072 30.3567 40.1026 30.2368 40.8632L30.1554 41.3056L28.7882 49.9693L28.726 50.2875C28.7098 50.3881 28.6816 50.4384 28.6402 50.4725C28.6032 50.5035 28.5499 50.5242 28.4982 50.5242H21.8291Z" fill="white"/>
<path d="M45.5309 19.6375L45.5306 19.639C44.5958 24.4381 42.5153 27.7226 39.5971 29.7972C36.6896 31.8641 33.0101 32.6876 28.9494 32.6876H24.8772C24.1472 32.6876 23.5308 33.2169 23.4164 33.9405L45.5309 19.6375ZM45.5309 19.6375C45.5379 19.6007 45.5449 19.564 45.5517 19.5274C46.0234 19.8367 46.4348 20.1882 46.7834 20.584C48.4048 22.4323 48.7708 25.1104 48.1151 28.4771C47.3341 32.4875 45.6218 35.1296 43.3016 36.7793C40.9707 38.4366 37.9664 39.135 34.5294 39.135H33.4492C32.3502 39.135 31.4142 39.9321 31.2399 41.0182L31.1537 41.4857L31.1536 41.4857L31.1515 41.4986L29.793 50.1196L29.7237 50.478L29.7221 50.4861L29.7208 50.4942C29.6248 51.0955 29.1071 51.538 28.4981 51.538H21.2756C20.9443 51.538 20.6895 51.2419 20.7411 50.9111C20.7412 50.911 20.7412 50.9109 20.7412 50.9108L21.3315 47.1632L21.3315 47.1632L23.4164 33.9407L45.5309 19.6375Z" fill="white" stroke="#FFFBFB"/>
<path d="M23.7269 31.9702C24.0717 31.7892 24.4636 31.6876 24.8776 31.6876H28.9497C32.8868 31.6876 36.3373 30.8875 39.018 28.9816C41.688 27.0833 43.6537 24.0457 44.5494 19.4478L44.5495 19.4469C44.5784 19.3001 44.6048 19.1551 44.6295 19.0114C44.2833 18.8468 43.9137 18.6999 43.52 18.5694L43.5192 18.5692C43.3927 18.527 43.2608 18.4858 43.1262 18.4457C42.8579 18.3677 42.5804 18.2965 42.2949 18.2322C42.0074 18.1693 41.7123 18.1135 41.4082 18.0647L41.4075 18.0646C40.341 17.8921 39.1653 17.8091 37.8976 17.8091H27.0187C26.8272 17.8091 26.6466 17.8523 26.4852 17.9299L23.7269 31.9702ZM23.7269 31.9702L25.7976 18.8549L25.7978 18.8536C25.8619 18.4409 26.1263 18.1024 26.485 17.9299L23.7269 31.9702Z" fill="white" stroke="black"/>
<path d="M44.7818 17.9821C44.4789 17.8495 44.1634 17.7289 43.8355 17.6202L43.8355 17.6202L43.83 17.6184C43.6934 17.5749 43.5526 17.531 43.4096 17.4884L43.4065 17.4875C43.1164 17.403 42.8178 17.3265 42.5124 17.2578L42.5096 17.2572C42.2027 17.19 41.8886 17.1305 41.5659 17.0788C40.4367 16.8962 39.2066 16.8106 37.8969 16.8106H27.0181C26.6734 16.8106 26.3469 16.8889 26.0525 17.0295L26.0523 17.0296C25.4069 17.338 24.9258 17.9498 24.8091 18.6995C24.8091 18.6998 24.8091 18.7 24.809 18.7003L22.4949 33.357L22.4949 33.3572L20.41 46.5854H12.2683C11.8454 46.5854 11.5196 46.2066 11.5858 45.7842L44.7818 17.9821ZM44.7818 17.9821C44.9481 16.5844 44.9097 15.4026 44.6636 14.3553C44.3805 13.1511 43.8162 12.097 42.9252 11.0809L44.7818 17.9821ZM11.5859 45.7839L17.3671 9.13908L17.3672 9.13832C17.48 8.41626 18.1027 7.88464 18.8338 7.88464H32.7135C37.4576 7.88464 41.0028 8.89225 42.9249 11.0807L11.5859 45.7839Z" fill="white" stroke="black"/>
</svg>
