<svg width="60" height="60" viewBox="0 0 60 60" fill="none" xmlns="http://www.w3.org/2000/svg">
<rect x="0.5" y="0.5" width="59" height="59" rx="14.5" fill="black" stroke="white"/>
<path d="M27.6346 12.1283C21.4405 12.8398 15.2682 17.9963 15.0135 25.3623C14.8533 29.8597 16.0943 33.2338 20.2541 34.1812C22.0592 30.9045 19.6718 30.1818 19.3006 27.8113C17.7757 18.0974 30.1894 11.4729 36.6856 18.2547C41.1802 22.9506 38.2214 37.3979 30.9719 35.8963C24.0281 34.462 34.371 22.9619 28.8283 20.7038C24.3228 18.8688 21.9282 26.3172 24.0645 30.017C22.8125 36.3794 20.1158 42.3747 21.2076 50.3548C24.7486 47.711 25.9423 42.6481 26.9213 37.368C28.701 38.4802 29.6508 39.6373 31.9218 39.8171C40.2958 40.4836 44.9724 31.2153 43.8296 22.666C42.8143 15.0866 35.4628 11.2295 27.6346 12.1283Z" fill="white"/>
</svg>
