<svg width="10" height="17" viewBox="0 0 10 17" fill="none" xmlns="http://www.w3.org/2000/svg">
<path d="M0.292898 14.7886L6.83362 8.24781L0.292898 1.70711C0.244078 1.6583 0.201368 1.60569 0.164758 1.55024C-0.066052 1.20068 -0.054352 0.738116 0.199838 0.400006C0.227908 0.362676 0.258918 0.326866 0.292898 0.292896C0.397298 0.188496 0.519039 0.112006 0.648849 0.0634257C0.822519 -0.00157426 1.01064 -0.0166143 1.191 0.0183057C1.38009 0.0549157 1.56066 0.146446 1.70711 0.292896L8.95492 7.54071C9.14252 7.72831 9.24782 7.98261 9.24782 8.24781C9.24782 8.51311 9.14252 8.76741 8.95492 8.95501L1.70711 16.2028C1.31658 16.5933 0.683419 16.5933 0.292898 16.2028C0.244078 16.154 0.201368 16.1014 0.164758 16.0459C-0.091532 15.6578 -0.0488115 15.1303 0.292898 14.7886Z" fill="white"/>
</svg>
