<svg width="61" height="61" viewBox="0 0 61 61" fill="none" xmlns="http://www.w3.org/2000/svg">
<path d="M45.5 1H15.5C7.49187 1 1 7.49187 1 15.5V45.5C1 53.5081 7.49187 60 15.5 60H45.5C53.5081 60 60 53.5081 60 45.5V15.5C60 7.49187 53.5081 1 45.5 1Z" fill="black" stroke="white"/>
<path d="M33.8414 21.1147C33.8414 24.4604 32.5065 27.669 30.1303 30.0347C27.754 32.4004 24.5312 33.7295 21.1707 33.7295C17.8102 33.7295 14.5874 32.4004 12.2112 30.0347C9.83495 27.669 8.5 24.4604 8.5 21.1147C8.5 17.7691 9.83495 14.5605 12.2112 12.1948C14.5874 9.82905 17.8102 8.5 21.1707 8.5C24.5312 8.5 27.754 9.82905 30.1303 12.1948C32.5065 14.5605 33.8414 17.7691 33.8414 21.1147Z" fill="white"/>
<path d="M51.4995 39.2306C51.4995 40.8878 51.1717 42.5287 50.5347 44.0597C49.8977 45.5908 48.9641 46.9819 47.7871 48.1537C46.6101 49.3255 45.2128 50.255 43.675 50.8891C42.1372 51.5233 40.489 51.8497 38.8245 51.8497C35.4628 51.8497 32.2389 50.5202 29.8619 48.1537C27.4848 45.7871 26.1494 42.5774 26.1494 39.2306C26.1494 35.8839 27.4848 32.6741 29.8619 30.3076C32.2389 27.9411 35.4628 26.6116 38.8245 26.6116C40.489 26.6116 42.1372 26.938 43.675 27.5721C45.2128 28.2063 46.6101 29.1358 47.7871 30.3076C48.9641 31.4794 49.8977 32.8705 50.5347 34.4015C51.1717 35.9325 51.4995 37.5735 51.4995 39.2306Z" fill="white"/>
<path opacity="0.05" fill-rule="evenodd" clip-rule="evenodd" d="M8.5459 22.1942C8.74271 24.5777 9.61161 26.8567 11.0519 28.7671C12.4922 30.6775 14.445 32.1411 16.6839 32.9884C18.9229 33.8356 21.3563 34.0318 23.7023 33.5543C26.0483 33.0767 28.2108 31.9448 29.9392 30.2899C31.6676 28.635 32.8912 26.5247 33.4682 24.2037C34.0451 21.8826 33.9519 19.4457 33.1992 17.1754C32.4465 14.9051 31.0652 12.8943 29.2153 11.3761C27.3654 9.8578 25.1228 8.8942 22.7471 8.59692C19.5214 9.67475 16.5749 11.4531 14.1194 13.8042C11.6639 16.1553 9.76046 19.0206 8.5459 22.1942V22.1942Z" fill="black"/>
<path opacity="0.05" fill-rule="evenodd" clip-rule="evenodd" d="M51.467 38.3245C51.3015 35.912 50.4477 33.5973 49.0067 31.6542C47.5656 29.7111 45.5976 28.221 43.3354 27.36C41.0732 26.499 38.6114 26.3032 36.2413 26.7958C33.8712 27.2884 31.692 28.4488 29.9613 30.1396C28.2306 31.8305 27.021 33.9811 26.4754 36.337C25.9299 38.693 26.0712 41.1558 26.8828 43.434C27.6944 45.7122 29.1423 47.7106 31.0551 49.1928C32.9679 50.6749 35.2657 51.5788 37.6766 51.7976C40.8141 50.6816 43.6719 48.899 46.0528 46.5727C48.4337 44.2463 50.2809 41.4317 51.467 38.3231V38.3245Z" fill="black"/>
<path opacity="0.1" fill-rule="evenodd" clip-rule="evenodd" d="M9.13867 25.0784C9.8042 27.112 10.9752 28.9439 12.5422 30.4026C14.1091 31.8612 16.0209 32.8991 18.0986 33.4191C20.1763 33.9391 22.3521 33.9243 24.4225 33.376C26.4929 32.8276 28.3903 31.7638 29.9371 30.2838C31.484 28.8039 32.6298 26.9562 33.2675 24.9137C33.9051 22.8711 34.0137 20.7004 33.5831 18.6045C33.1526 16.5086 32.1969 14.5561 30.8054 12.9294C29.414 11.3028 27.6323 10.0553 25.6269 9.30347C21.6751 10.1259 18.0341 12.0407 15.1188 14.8298C12.2036 17.6189 10.1315 21.17 9.13867 25.0784V25.0784Z" fill="black"/>
<path opacity="0.1" fill-rule="evenodd" clip-rule="evenodd" d="M50.8911 35.3594C50.2353 33.3017 49.0633 31.4458 47.4867 29.9684C45.91 28.4909 43.981 27.4411 41.8834 26.9187C39.7857 26.3963 37.5892 26.4188 35.5027 26.984C33.4162 27.5492 31.5092 28.6383 29.9631 30.1478C28.4171 31.6572 27.2835 33.5366 26.6701 35.6074C26.0567 37.6781 25.984 39.8711 26.4588 41.9778C26.9337 44.0845 27.9403 46.0348 29.383 47.6431C30.8257 49.2514 32.6563 50.4642 34.7008 51.1661C38.602 50.2915 42.1827 48.3498 45.042 45.5582C47.9014 42.7666 49.9266 39.2353 50.8911 35.3594V35.3594Z" fill="black"/>
<path opacity="0.1" fill-rule="evenodd" clip-rule="evenodd" d="M9.60547 26.2748C10.4299 28.1304 11.6893 29.7604 13.2774 31.0273C14.8655 32.2941 16.7355 33.1605 18.7295 33.5532C20.7234 33.946 22.7827 33.8535 24.7334 33.2836C26.684 32.7137 28.4686 31.6832 29.9365 30.2791C31.4044 28.875 32.5123 27.1386 33.1667 25.2166C33.821 23.2946 34.0027 21.2436 33.6961 19.2367C33.3896 17.2298 32.604 15.3261 31.4057 13.6865C30.2073 12.0468 28.6315 10.7194 26.8113 9.81641C22.6017 10.4709 18.6946 12.4001 15.6177 15.3433C12.5408 18.2866 10.4422 22.1022 9.60547 26.2748V26.2748Z" fill="black"/>
<path opacity="0.1" fill-rule="evenodd" clip-rule="evenodd" d="M50.4236 34.1384C49.6034 32.2613 48.3393 30.6112 46.7398 29.3298C45.1404 28.0484 43.2534 27.1739 41.241 26.7816C39.2286 26.3893 37.1509 26.4909 35.1865 27.0776C33.222 27.6643 31.4295 28.7185 29.963 30.1498C28.4964 31.5811 27.3996 33.3466 26.7668 35.2947C26.134 37.2429 25.9841 39.3153 26.33 41.334C26.6758 43.3527 27.5072 45.2574 28.7525 46.8845C29.9979 48.5115 31.62 49.8122 33.4796 50.6749C37.6523 49.9666 41.5096 48.0044 44.537 45.0498C47.5643 42.0952 49.6179 38.2889 50.4236 34.1384V34.1384Z" fill="black"/>
<path d="M50.0708 30.2688C50.0708 32.8926 49.5517 35.4906 48.5432 37.9147C47.5346 40.3388 46.0564 42.5413 44.1928 44.3966C42.3293 46.2519 40.1169 47.7236 37.6821 48.7277C35.2473 49.7318 32.6376 50.2486 30.0022 50.2486C27.3667 50.2486 24.7571 49.7318 22.3223 48.7277C19.8874 47.7236 17.6751 46.2519 15.8115 44.3966C13.948 42.5413 12.4698 40.3388 11.4612 37.9147C10.4527 35.4906 9.93359 32.8926 9.93359 30.2688C9.93359 27.645 10.4527 25.0469 11.4612 22.6228C12.4698 20.1988 13.948 17.9962 15.8115 16.1409C17.6751 14.2856 19.8874 12.8139 22.3223 11.8098C24.7571 10.8057 27.3667 10.2889 30.0022 10.2889C32.6376 10.2889 35.2473 10.8057 37.6821 11.8098C40.1169 12.8139 42.3293 14.2856 44.1928 16.1409C46.0564 17.9962 47.5346 20.1988 48.5432 22.6228C49.5517 25.0469 50.0708 27.645 50.0708 30.2688Z" fill="white"/>
<path fill-rule="evenodd" clip-rule="evenodd" d="M24.3591 29.575C23.5481 29.0419 22.8713 28.3288 22.3816 27.4914C21.9088 26.6067 21.6754 25.614 21.7046 24.6115C21.6687 23.3393 22.1034 22.0985 22.9255 21.1262C23.7799 20.1498 24.878 19.4169 26.108 19.0021C27.4458 18.53 28.8554 18.2929 30.2742 18.3013C31.2025 18.2925 32.1298 18.3636 33.0459 18.5137C33.7016 18.6148 34.3456 18.7808 34.9684 19.0093C35.5403 19.2027 36.0566 19.5319 36.4729 19.9688C36.7796 20.3282 36.9447 20.7869 36.9372 21.2591C36.9481 21.5045 36.9106 21.7495 36.8267 21.9804C36.7428 22.2112 36.6142 22.4232 36.4483 22.6044C36.2912 22.7714 36.1006 22.9033 35.889 22.9914C35.6773 23.0796 35.4494 23.122 35.2201 23.116C34.9047 23.1134 34.5934 23.0434 34.3073 22.9108C33.602 22.5954 32.8755 22.3299 32.1331 22.116C31.4497 21.936 30.7451 21.8485 30.0384 21.8559C29.1173 21.8221 28.206 22.0549 27.4143 22.5264C27.0802 22.7292 26.8067 23.0179 26.6225 23.3623C26.4383 23.7067 26.35 24.0942 26.367 24.4844C26.3621 24.9966 26.5572 25.4905 26.9109 25.8614C27.3311 26.2971 27.8278 26.6522 28.3763 26.909C28.9906 27.2135 29.9068 27.6171 31.1248 28.1199C31.2597 28.1626 31.3912 28.2153 31.5183 28.2774C32.7069 28.7471 33.8465 29.3323 34.9207 30.0244C35.769 30.577 36.4844 31.3103 37.0153 32.1717C37.5382 33.0771 37.8 34.1093 37.7719 35.1541C37.8158 36.4334 37.4488 37.6932 36.7246 38.7493C35.9871 39.7491 34.9669 40.5055 33.7952 40.9211C32.3831 41.425 30.891 41.6679 29.3918 41.6378C27.3316 41.7098 25.2813 41.3223 23.3899 40.5035C22.9063 40.2884 22.4824 39.9591 22.1545 39.544C21.8822 39.1636 21.7411 38.7052 21.7523 38.2377C21.7388 37.9912 21.779 37.7446 21.8702 37.5151C21.9613 37.2856 22.1013 37.0786 22.2803 36.9083C22.6557 36.58 23.143 36.4083 23.6416 36.4286C24.1971 36.4362 24.7427 36.5764 25.2328 36.8375C25.8423 37.142 26.3231 37.3703 26.6751 37.5225C27.0771 37.6906 27.4935 37.8221 27.9192 37.9155C28.444 38.0305 28.9803 38.0858 29.5176 38.0802C30.4679 38.148 31.4136 37.8962 32.204 37.365C32.4999 37.1337 32.7363 36.8353 32.8938 36.4946C33.0513 36.1538 33.1252 35.7805 33.1095 35.4056C33.1104 34.8739 32.9075 34.362 32.5425 33.975C32.06 33.4775 31.4953 33.0669 30.8731 32.7612C30.1373 32.374 29.1025 31.902 27.7687 31.3451C26.5758 30.8703 25.4336 30.2773 24.3591 29.575" fill="black"/>
</svg>
