<svg width="60" height="60" viewBox="0 0 60 60" fill="none" xmlns="http://www.w3.org/2000/svg">
<rect x="0.5" y="0.5" width="59" height="59" rx="14.5" fill="black" stroke="white"/>
<path d="M29.6805 10H29.6788C27.9403 10.0005 26.2466 10.335 24.6452 10.9941C23.108 11.6267 21.7246 12.5288 20.5333 13.6752C19.3436 14.8202 18.4073 16.1493 17.7505 17.6259C17.0676 19.1613 16.7203 20.784 16.7182 22.4491C16.7171 23.2666 16.6994 24.0599 16.6653 24.8197L15.9865 24.6673C15.7374 24.6114 15.4813 24.583 15.2254 24.5829C14.4866 24.5828 13.7578 24.8219 13.1733 25.256C12.5635 25.709 12.1358 26.3541 11.9693 27.0724C11.573 28.7821 12.5591 30.5082 14.268 31.1152L16.3008 31.9008C14.9548 35.8562 12.4728 36.6141 10.8014 37.1247C10.3579 37.2601 9.97484 37.3771 9.61012 37.5504C8.15688 38.2409 8 39.4108 8 39.8817C8 40.7837 8.4459 41.6067 9.25568 42.1992C9.65886 42.4943 10.1583 42.7377 10.7825 42.9435C11.6332 43.2239 12.6195 43.4019 13.421 43.5445C13.4597 43.8288 13.5165 44.1343 13.6123 44.4421C14.0097 45.7206 14.8484 46.293 15.482 46.5481C16.0832 46.7902 16.7044 46.8181 17.1194 46.8181C17.5253 46.8181 17.9543 46.7877 18.4085 46.7555C18.8958 46.7209 19.3997 46.6852 19.8969 46.6852C20.6673 46.6852 21.2408 46.7732 21.6501 46.9542C22.2121 47.2028 22.8081 47.5379 23.4391 47.8927C25.1958 48.8804 27.1869 50 29.699 50C32.2111 50 34.2021 48.8804 35.9588 47.8927C36.5898 47.5378 37.1859 47.2028 37.7479 46.9542C38.1572 46.7731 38.7307 46.6852 39.5011 46.6852C39.9983 46.6852 40.5022 46.721 40.9894 46.7555C41.4436 46.7877 41.8727 46.8181 42.2785 46.8181C42.6935 46.8181 43.3146 46.7902 43.9159 46.5481C44.5495 46.293 45.3882 45.7206 45.7857 44.4421C45.8814 44.1343 45.9383 43.8288 45.9769 43.5445C46.7785 43.4018 47.7648 43.2239 48.6154 42.9435C49.2397 42.7377 49.7391 42.4943 50.1422 42.1992C50.9519 41.6067 51.3979 40.7837 51.3979 39.8817C51.3979 39.4108 51.2411 38.2409 49.7876 37.5505C49.4229 37.3772 49.0398 37.2602 48.5963 37.1248C46.925 36.6143 44.443 35.8562 43.0969 31.9009L45.1296 31.1153C46.8385 30.5083 47.8247 28.7821 47.4284 27.0724C47.2619 26.3541 46.8342 25.709 46.2244 25.256C45.6399 24.822 44.9113 24.5829 44.1727 24.5829C43.9168 24.5829 43.6607 24.6113 43.4114 24.6672L42.7325 24.8196C42.6984 24.0599 42.6807 23.2666 42.6797 22.449C42.6776 20.7826 42.3275 19.1582 41.6391 17.6208C40.9783 16.145 40.0369 14.8162 38.8412 13.6711C37.6456 12.5262 36.2582 11.6251 34.7178 10.9931C33.1134 10.3347 31.4186 10.0006 29.6805 10Z" fill="white"/>
</svg>
