<svg width="60" height="60" viewBox="0 0 60 60" fill="none" xmlns="http://www.w3.org/2000/svg">
<rect x="0.5" y="0.5" width="59" height="59" rx="14.5" fill="#090A09" stroke="white"/>
<path fill-rule="evenodd" clip-rule="evenodd" d="M30.4809 8C18.6664 8 9 17.675 9 29.5C9 41.325 18.6664 51 30.4809 51C42.2954 51 51.9618 41.325 51.9618 29.5C51.9618 17.675 42.4028 8 30.4809 8ZM40.3621 39.0675C39.9325 39.7125 39.1807 39.9275 38.5362 39.4975C33.4882 36.38 27.1514 35.735 19.633 37.455C18.8812 37.67 18.2368 37.1325 18.022 36.4875C17.8072 35.735 18.3442 35.09 18.9886 34.875C27.1514 33.0475 34.2401 33.8 39.8251 37.24C40.5769 37.5625 40.6843 38.4225 40.3621 39.0675ZM42.9398 33.155C42.4028 33.9075 41.4362 34.23 40.6843 33.6925C34.8845 30.145 26.0773 29.07 19.3108 31.22C18.4516 31.435 17.485 31.005 17.2701 30.145C17.0553 29.285 17.485 28.3175 18.3442 28.1025C26.1847 25.7375 35.8511 26.92 42.5102 31.005C43.1546 31.3275 43.4769 32.4025 42.9398 33.155ZM43.1546 27.135C36.2808 23.05 24.7885 22.62 18.2368 24.6625C17.1627 24.985 16.0887 24.34 15.7665 23.3725C15.4443 22.2975 16.0887 21.2225 17.0553 20.9C24.6811 18.6425 37.2474 19.0725 45.1953 23.8025C46.162 24.34 46.4842 25.63 45.9472 26.5975C45.4101 27.35 44.1213 27.6725 43.1546 27.135Z" fill="#FDFFFE"/>
</svg>
