<svg width="60" height="60" viewBox="0 0 60 60" fill="none" xmlns="http://www.w3.org/2000/svg">
<rect x="0.5" y="0.5" width="59" height="59" rx="14.5" fill="black" stroke="white"/>
<path d="M12.0845 30.6296C12.0845 30.6296 27.1219 24.2635 32.3371 22.0219C34.3363 21.1253 41.1161 18.256 41.1161 18.256C41.1161 18.256 44.2454 17.0008 43.9846 20.0493C43.8976 21.3046 43.2023 25.6981 42.5069 30.4503C41.4638 37.1751 40.3338 44.5274 40.3338 44.5274C40.3338 44.5274 40.16 46.5897 38.6824 46.9484C37.2047 47.307 34.7708 45.6931 34.3363 45.3344C33.9885 45.0655 27.8172 41.0305 25.5573 39.0579C24.9488 38.52 24.2535 37.4441 25.6441 36.1887C28.7733 33.2298 32.5109 29.5537 34.7708 27.2224C35.814 26.1464 36.857 23.6359 32.5109 26.6844C26.3396 31.0779 20.2551 35.2024 20.2551 35.2024C20.2551 35.2024 18.8643 36.099 16.2567 35.292C13.649 34.4852 10.6067 33.4092 10.6067 33.4092C10.6067 33.4092 8.52074 32.0642 12.0845 30.6296Z" fill="white"/>
</svg>
