<svg width="60" height="60" viewBox="0 0 60 60" fill="none" xmlns="http://www.w3.org/2000/svg">
<rect x="0.5" y="0.5" width="59" height="59" rx="14.5" fill="black" stroke="white"/>
<g filter="url(#filter0_i_1130_859)">
<path fill-rule="evenodd" clip-rule="evenodd" d="M36.7503 25.5727C38.9252 27.1202 41.5298 27.947 44.1982 27.9369V22.6438C43.6736 22.6452 43.1505 22.589 42.6381 22.4761V26.693C39.9637 26.6978 37.3553 25.8615 35.1814 24.3023V35.1886C35.1748 36.975 34.6854 38.7262 33.7649 40.2567C32.8445 41.7872 31.5275 43.0399 29.9534 43.8819C28.3793 44.7239 26.6069 45.1238 24.8241 45.0393C23.0414 44.9548 21.3147 44.389 19.8271 43.4019C21.2031 44.7952 22.9612 45.7486 24.8788 46.1413C26.7964 46.5339 28.7873 46.3482 30.5994 45.6076C32.4115 44.867 33.9633 43.6049 35.0583 41.981C36.1532 40.3571 36.7421 38.4445 36.7503 36.4854V25.5727ZM38.6806 20.1736C37.5746 18.9737 36.8959 17.4416 36.7503 15.8156V15.1274H35.2695C35.4526 16.161 35.8509 17.1444 36.4386 18.0138C37.0262 18.8832 37.7901 19.6191 38.6806 20.1736ZM23.2558 39.2114C22.7426 38.5397 22.4281 37.7372 22.3481 36.8954C22.2681 36.0536 22.4258 35.2061 22.8032 34.4496C23.1807 33.6931 23.7628 33.0578 24.4833 32.616C25.2037 32.1743 26.0336 31.9439 26.8785 31.9509C27.3449 31.9508 27.8086 32.0222 28.2535 32.1627V26.693C27.7335 26.6241 27.209 26.5946 26.6845 26.6048V30.857C25.6014 30.5143 24.429 30.5923 23.4007 31.0753C22.3723 31.5583 21.5633 32.4111 21.1345 33.464C20.7057 34.5169 20.6886 35.6927 21.0866 36.7577C21.4846 37.8226 22.2684 38.6986 23.2823 39.2114H23.2558Z" fill="white"/>
<path fill-rule="evenodd" clip-rule="evenodd" d="M35.1805 24.267C37.3544 25.8262 39.9628 26.6625 42.6372 26.6578V22.4409C41.1135 22.1184 39.7292 21.3254 38.6797 20.1736C37.7892 19.6191 37.0253 18.8832 36.4377 18.0138C35.85 17.1444 35.4517 16.161 35.2686 15.1274H31.3728V36.4854C31.3691 37.4308 31.0698 38.3513 30.5168 39.1177C29.9638 39.8841 29.1849 40.458 28.2894 40.7587C27.3939 41.0594 26.4268 41.0719 25.5239 40.7944C24.621 40.5169 23.8275 39.9633 23.255 39.2114C22.3476 38.7532 21.6209 38.0023 21.1922 37.08C20.7634 36.1577 20.6577 35.1177 20.8919 34.1278C21.1262 33.138 21.6868 32.256 22.4833 31.6241C23.2799 30.9923 24.2659 30.6475 25.2822 30.6453C25.7485 30.6468 26.212 30.7181 26.6572 30.857V26.6048C24.7336 26.651 22.8653 27.2584 21.2817 28.3524C19.6982 29.4463 18.4682 30.9793 17.7427 32.7631C17.0173 34.5468 16.8281 36.5038 17.1982 38.3937C17.5683 40.2836 18.4817 42.0242 19.8263 43.4019C21.3141 44.3961 23.0435 44.9677 24.8303 45.0559C26.6171 45.1442 28.3943 44.7456 29.9726 43.9028C31.551 43.0599 32.8714 41.8044 33.7931 40.2698C34.7149 38.7352 35.2035 36.9791 35.2069 35.1886L35.1805 24.267Z" fill="white"/>
<path fill-rule="evenodd" clip-rule="evenodd" d="M42.638 22.4404V21.3023C41.2386 21.3083 39.8663 20.9167 38.6804 20.1731C39.7273 21.3282 41.1127 22.1219 42.638 22.4404ZM35.2694 15.1269C35.2694 14.924 35.2077 14.7123 35.1812 14.5094V13.8213H29.8046V35.1881C29.7999 36.3845 29.3212 37.5302 28.4735 38.3737C27.6258 39.2172 26.4783 39.6897 25.2829 39.6873C24.5791 39.6908 23.8844 39.5276 23.2557 39.2109C23.8283 39.9628 24.6217 40.5164 25.5246 40.7939C26.4276 41.0714 27.3947 41.0589 28.2901 40.7582C29.1856 40.4575 29.9646 39.8836 30.5176 39.1172C31.0706 38.3508 31.3699 37.4303 31.3735 36.4849V15.1269H35.2694ZM26.658 26.5955V25.3869C24.4455 25.0861 22.1965 25.5441 20.2774 26.6864C18.3584 27.8287 16.8825 29.5879 16.0902 31.6772C15.2979 33.7666 15.2361 36.0629 15.9146 38.1919C16.5932 40.321 17.9723 42.1572 19.827 43.4014C18.4926 42.0205 17.589 40.2806 17.2264 38.3941C16.8638 36.5077 17.0581 34.5563 17.7854 32.7785C18.5127 31.0008 19.7416 29.4735 21.3219 28.3833C22.9023 27.2931 24.7656 26.6872 26.6844 26.6396L26.658 26.5955Z" fill="white"/>
</g>
<defs>
<filter id="filter0_i_1130_859" x="11.3818" y="11.3823" width="36.5859" height="37.0858" filterUnits="userSpaceOnUse" color-interpolation-filters="sRGB">
<feFlood flood-opacity="0" result="BackgroundImageFix"/>
<feBlend mode="normal" in="SourceGraphic" in2="BackgroundImageFix" result="shape"/>
<feColorMatrix in="SourceAlpha" type="matrix" values="0 0 0 0 0 0 0 0 0 0 0 0 0 0 0 0 0 0 127 0" result="hardAlpha"/>
<feOffset dy="0.5"/>
<feGaussianBlur stdDeviation="1.25"/>
<feComposite in2="hardAlpha" operator="arithmetic" k2="-1" k3="1"/>
<feColorMatrix type="matrix" values="0 0 0 0 0 0 0 0 0 0 0 0 0 0 0 0 0 0 0.1 0"/>
<feBlend mode="normal" in2="shape" result="effect1_innerShadow_1130_859"/>
</filter>
</defs>
</svg>
