<svg width="58" height="57" viewBox="0 0 58 57" fill="none" xmlns="http://www.w3.org/2000/svg">
<path d="M47.7591 1H10.2321C5.25793 1 1.22559 4.99314 1.22559 9.91892V47.0811C1.22559 52.0069 5.25793 56 10.2321 56H47.7591C52.7332 56 56.7656 52.0069 56.7656 47.0811V9.91892C56.7656 4.99314 52.7332 1 47.7591 1Z" fill="#0B0D17" stroke="white" stroke-width="1.5" stroke-linecap="round" stroke-linejoin="round"/>
<path d="M22.6513 23.9483C25.9895 23.9483 28.6956 21.2685 28.6956 17.9627C28.6956 14.657 25.9895 11.9771 22.6513 11.9771C19.3131 11.9771 16.6069 14.657 16.6069 17.9627C16.6069 21.2685 19.3131 23.9483 22.6513 23.9483Z" stroke="white" stroke-width="2" stroke-linecap="round" stroke-linejoin="round"/>
<path d="M10.4629 40.5176V37.1086C10.4629 33.1447 13.7052 29.9339 17.7081 29.9339H28.5559C32.5588 29.9339 35.8011 33.1447 35.8011 37.1086V40.5176" stroke="white" stroke-width="2" stroke-linecap="round" stroke-linejoin="round"/>
<path d="M37.7425 25.6528C40.2185 25.6528 42.2257 23.6651 42.2257 21.2131C42.2257 18.7612 40.2185 16.7735 37.7425 16.7735C35.2665 16.7735 33.2593 18.7612 33.2593 21.2131C33.2593 23.6651 35.2665 25.6528 37.7425 25.6528Z" stroke="white" stroke-width="2" stroke-linecap="round" stroke-linejoin="round"/>
<path d="M39.0234 30.0925H42.1056C45.0678 30.0925 47.4695 32.4708 47.4695 35.4042V37.9411" stroke="white" stroke-width="2" stroke-linecap="round" stroke-linejoin="round"/>
</svg>
