<svg width="60" height="60" viewBox="0 0 60 60" fill="none" xmlns="http://www.w3.org/2000/svg">
<rect x="0.5" y="0.5" width="59" height="59" rx="14.5" fill="black" stroke="white"/>
<path d="M49.9807 21.5728C49.8027 25.2565 47.083 30.3007 41.823 36.7026C36.3846 43.3901 31.7833 46.7335 28.0193 46.7335C25.6885 46.7335 23.7145 44.6977 22.1033 40.6246C21.0265 36.8911 19.9509 33.1579 18.8745 29.4244C17.6772 25.3536 16.3936 23.3155 15.0212 23.3155C14.722 23.3155 13.6748 23.9112 11.882 25.0979L10 22.8041C11.974 21.163 13.9216 19.5223 15.8376 17.8794C18.4705 15.7269 20.4469 14.5949 21.7641 14.4805C24.8773 14.1976 26.7933 16.2107 27.5125 20.5202C28.2897 25.1696 28.8273 28.0617 29.1297 29.1936C30.0269 33.051 31.0141 34.9773 32.0929 34.9773C32.9301 34.9773 34.1878 33.7264 35.8646 31.2245C37.5398 28.7219 38.437 26.8179 38.5582 25.51C38.7966 23.3503 37.899 22.2678 35.8646 22.2678C34.907 22.2678 33.9198 22.4763 32.9041 22.8884C34.8698 16.7965 38.6258 13.838 44.1698 14.0068C48.2799 14.1209 50.2175 16.6428 49.9807 21.5728Z" fill="white"/>
</svg>
