<svg width="60" height="60" viewBox="0 0 60 60" fill="none" xmlns="http://www.w3.org/2000/svg">
<rect x="0.5" y="0.5" width="59" height="59" rx="14.5" fill="black" stroke="white"/>
<g clip-path="url(#clip0_1130_885)" filter="url(#filter0_i_1130_885)">
<path d="M9 51L12.0107 39.8054C9.58265 35.4445 8.81123 30.3558 9.83801 25.4729C10.8648 20.59 13.6209 16.2406 17.6006 13.2227C21.5803 10.2048 26.5167 8.72095 31.5038 9.04335C36.491 9.36575 41.1944 11.4728 44.751 14.9779C48.3076 18.483 50.4789 23.1509 50.8663 28.1252C51.2537 33.0995 49.8314 38.0465 46.8603 42.0583C43.8891 46.0701 39.5685 48.8777 34.6912 49.9659C29.8139 51.0541 24.7072 50.3498 20.308 47.9824L9 51ZM20.8533 43.7933L21.5526 44.2075C24.739 46.093 28.4607 46.8733 32.1376 46.4267C35.8146 45.9801 39.2403 44.3317 41.8809 41.7385C44.5215 39.1452 46.2287 35.7527 46.7364 32.0897C47.2441 28.4267 46.5239 24.6989 44.6878 21.4872C42.8518 18.2755 40.0032 15.7604 36.5858 14.3337C33.1685 12.9071 29.3745 12.6491 25.7949 13.5999C22.2154 14.5508 19.0515 16.6571 16.7962 19.5905C14.5409 22.524 13.3209 26.1199 13.3264 29.8178C13.3234 32.884 14.1728 35.8909 15.7801 38.5037L16.2186 39.2255L14.5355 45.4737L20.8533 43.7933Z" fill="white"/>
<path fill-rule="evenodd" clip-rule="evenodd" d="M37.8263 32.6923C37.4163 32.3622 36.9363 32.1299 36.4228 32.013C35.9093 31.8961 35.3758 31.8977 34.863 32.0178C34.0925 32.3373 33.5947 33.5444 33.0969 34.1479C32.9919 34.2926 32.8376 34.394 32.663 34.4332C32.4885 34.4724 32.3055 34.4467 32.1486 34.3609C29.3279 33.2579 26.9636 31.2353 25.4397 28.6216C25.3097 28.4585 25.2482 28.2514 25.2681 28.0439C25.288 27.8364 25.3877 27.6447 25.5463 27.5092C26.1016 26.9604 26.5093 26.2808 26.7317 25.533C26.7811 24.7082 26.5918 23.8867 26.1864 23.1663C25.873 22.1563 25.2766 21.2571 24.4677 20.5747C24.0505 20.3874 23.5878 20.3246 23.1356 20.3939C22.6834 20.4631 22.261 20.6616 21.9192 20.9652C21.326 21.4763 20.855 22.1136 20.5412 22.8304C20.2273 23.5472 20.0785 24.3252 20.1057 25.107C20.1075 25.546 20.1633 25.9832 20.2716 26.4087C20.5469 27.431 20.9702 28.4077 21.5281 29.3079C21.9306 29.9975 22.3698 30.6651 22.8438 31.3078C24.3842 33.4189 26.3205 35.2113 28.5452 36.5856C29.6616 37.284 30.8548 37.8518 32.1012 38.2778C33.3959 38.8637 34.8255 39.0887 36.238 38.9287C37.0428 38.807 37.8053 38.4898 38.4584 38.0049C39.1116 37.52 39.6353 36.8822 39.9836 36.1478C40.1882 35.7041 40.2503 35.208 40.1614 34.7277C39.9481 33.7455 38.6323 33.1657 37.8263 32.6923Z" fill="white"/>
</g>
<defs>
<filter id="filter0_i_1130_885" x="9" y="9" width="42" height="42.5" filterUnits="userSpaceOnUse" color-interpolation-filters="sRGB">
<feFlood flood-opacity="0" result="BackgroundImageFix"/>
<feBlend mode="normal" in="SourceGraphic" in2="BackgroundImageFix" result="shape"/>
<feColorMatrix in="SourceAlpha" type="matrix" values="0 0 0 0 0 0 0 0 0 0 0 0 0 0 0 0 0 0 127 0" result="hardAlpha"/>
<feOffset dy="0.5"/>
<feGaussianBlur stdDeviation="1.25"/>
<feComposite in2="hardAlpha" operator="arithmetic" k2="-1" k3="1"/>
<feColorMatrix type="matrix" values="0 0 0 0 0 0 0 0 0 0 0 0 0 0 0 0 0 0 0.1 0"/>
<feBlend mode="normal" in2="shape" result="effect1_innerShadow_1130_885"/>
</filter>
<clipPath id="clip0_1130_885">
<rect width="42" height="42" fill="white" transform="translate(9 9)"/>
</clipPath>
</defs>
</svg>
