<svg width="60" height="60" viewBox="0 0 60 60" fill="none" xmlns="http://www.w3.org/2000/svg">
<rect x="0.5" y="0.5" width="59" height="59" rx="14.5" fill="black" stroke="white"/>
<path d="M24.6572 35.2381L26.5322 34.8121C26.5714 34.8032 26.6377 34.7884 26.716 34.7632C27.2339 34.6268 27.6777 34.2982 27.9538 33.8467C28.23 33.3952 28.317 32.856 28.1964 32.3428L28.1889 32.3102C28.1269 32.0643 28.0186 31.832 27.8696 31.6252C27.6597 31.3634 27.3998 31.1443 27.1045 30.9802C26.7569 30.7856 26.3932 30.6203 26.0172 30.486L23.9614 29.7478C22.8077 29.3261 21.6541 28.9163 20.4884 28.5154C19.7339 28.252 19.0938 28.0197 18.5381 27.8496C18.4323 27.8208 18.3273 27.7893 18.2233 27.7549C17.5516 27.5537 17.0787 27.4694 16.6796 27.4664C16.4128 27.4566 16.1471 27.5041 15.901 27.6055C15.6438 27.7149 15.4128 27.8762 15.2232 28.0789C15.1292 28.1838 15.0407 28.2934 14.9582 28.4074C14.7977 28.6495 14.6654 28.9086 14.5636 29.1796C14.1816 30.2878 13.9912 31.451 14.0003 32.6209C14.0078 33.6773 14.0365 35.034 14.6283 35.9542C14.7714 36.1909 14.9627 36.3951 15.1901 36.5534C15.6118 36.839 16.0365 36.8774 16.4808 36.9085C17.1435 36.9544 17.7835 36.796 18.4236 36.6496L24.6527 35.2367L24.6572 35.2381ZM45.5764 25.4602C45.0645 24.4048 44.3763 23.4411 43.5402 22.6092C43.4321 22.5034 43.3164 22.4055 43.1938 22.3163C43.0805 22.2329 42.9629 22.1553 42.8414 22.084C42.7162 22.0167 42.5875 21.9559 42.4558 21.902C42.1958 21.8016 41.9171 21.7562 41.638 21.7689C41.3714 21.7837 41.1109 21.8577 40.8745 21.9805C40.5175 22.155 40.1305 22.4361 39.6154 22.9051C39.5446 22.9747 39.4557 23.0531 39.3744 23.1271C38.9512 23.5191 38.4783 24.0029 37.9165 24.5651C37.0475 25.4277 36.1936 26.2946 35.3427 27.169L33.8216 28.7195C33.5438 29.0023 33.2909 29.3077 33.0655 29.6324C32.8726 29.9071 32.736 30.2162 32.6634 30.5423C32.6227 30.7928 32.6288 31.0485 32.6815 31.2968L32.689 31.3293C32.8092 31.8421 33.1273 32.289 33.5762 32.576C34.0251 32.863 34.5698 32.9677 35.0957 32.868C35.159 32.8592 35.2218 32.8474 35.2839 32.8325L43.3896 30.992C44.0296 30.847 44.6773 30.7139 45.2511 30.3854C45.6366 30.1679 46.0026 29.9505 46.2541 29.5125C46.3881 29.2713 46.4691 29.0052 46.4921 28.7314C46.6171 27.6454 46.0402 26.413 45.5764 25.4602ZM31.0655 28.8083C31.6528 28.0833 31.6528 27.0033 31.704 26.1186C31.8818 23.167 32.067 20.2154 32.2161 17.2624C32.2718 16.1439 32.3938 15.0402 32.3261 13.9128C32.2703 12.9837 32.2643 11.9155 31.6664 11.1521C30.6122 9.80576 28.3621 9.91672 26.8274 10.1268C26.354 10.191 25.8841 10.2779 25.4193 10.3872C24.9524 10.4967 24.4885 10.6165 24.0367 10.76C22.5638 11.2335 20.4929 12.1034 20.1435 13.7708C19.9447 14.7132 20.4146 15.6764 20.7761 16.5374C21.2174 17.579 21.8183 18.5185 22.3665 19.4994C23.8168 22.0899 25.2927 24.6657 26.7642 27.243C27.2054 28.0123 27.6829 28.9858 28.5338 29.3853C28.591 29.409 28.6483 29.4297 28.707 29.4489C29.088 29.5909 29.5052 29.6176 29.9013 29.5273L29.9721 29.5125C30.3396 29.4134 30.6709 29.2166 30.9314 28.9459C30.9796 28.9015 31.0233 28.8571 31.067 28.8083H31.0655ZM30.3621 36.7102C30.1329 36.3935 29.8075 36.156 29.4326 36.0319C29.0577 35.9078 28.6524 35.9034 28.2747 36.0193C28.1859 36.0481 28.0993 36.0832 28.0157 36.1244C27.8863 36.1892 27.7628 36.2649 27.6467 36.3507C27.3152 36.6074 27.019 36.9053 26.7657 37.2369C26.7009 37.3183 26.6407 37.4263 26.5624 37.4973L25.2581 39.2579C24.5201 40.2462 23.7897 41.236 23.0683 42.2406C22.5954 42.8901 22.1888 43.4389 21.865 43.9227C21.8047 44.0145 21.7415 44.1151 21.6842 44.1979C21.2972 44.7838 21.0788 45.2129 20.9658 45.5946C20.8815 45.8481 20.8547 46.1168 20.8875 46.3816C20.9237 46.6568 21.0186 46.9217 21.1646 47.1599C21.243 47.2782 21.3273 47.3936 21.4177 47.5046C21.6128 47.7253 21.8326 47.9238 22.0728 48.0964C22.9734 48.7118 23.9584 49.1542 24.9945 49.496C25.8575 49.7771 26.7536 49.9457 27.6603 49.996C27.8154 50.0034 27.9705 50.0005 28.1241 49.9872C28.2666 49.9741 28.4083 49.9543 28.5488 49.928C28.6895 49.8958 28.8282 49.8563 28.9645 49.8096C29.2295 49.7121 29.4707 49.5608 29.6724 49.3658C29.8636 49.1779 30.0112 48.9515 30.1031 48.7015C30.2537 48.3316 30.3531 47.8641 30.4194 47.1687C30.4239 47.0696 30.439 46.9512 30.4495 46.8432C30.5007 46.2662 30.5248 45.5857 30.561 44.7897C30.6257 43.5632 30.6754 42.3426 30.7146 41.1191L30.7989 38.9413C30.8185 38.4412 30.8019 37.8849 30.6603 37.3864C30.5981 37.1469 30.4974 36.9186 30.3621 36.7102ZM45.0809 40.1175C44.8098 39.8231 44.4242 39.5316 43.8158 39.1706C43.7284 39.1218 43.6245 39.0582 43.5296 39.002C43.0236 38.7016 42.4136 38.388 41.7013 38.0077C40.6064 37.416 39.5115 36.8419 38.4045 36.2708L36.4511 35.2529C36.3502 35.2234 36.2478 35.1523 36.1514 35.1065C35.7758 34.918 35.3769 34.7783 34.9647 34.6907C34.8227 34.6638 34.6786 34.649 34.5339 34.6464C34.4403 34.6459 34.3467 34.6513 34.2538 34.6626C33.8628 34.7219 33.5008 34.9011 33.2195 35.1745C32.9382 35.4479 32.752 35.8015 32.6875 36.185C32.6589 36.4291 32.6679 36.6762 32.7161 36.9159C32.811 37.4278 33.0429 37.9323 33.2839 38.3747L34.3261 40.2965C34.9074 41.3795 35.4948 42.4566 36.0972 43.5307C36.4858 44.2305 36.8096 44.8297 37.1123 45.3268C37.1695 45.42 37.2343 45.5206 37.284 45.6079C37.653 46.2041 37.9482 46.5799 38.2479 46.8506C38.4475 47.0393 38.6871 47.1822 38.9496 47.2692C39.2121 47.3561 39.4908 47.385 39.766 47.3537C39.9093 47.3365 40.0516 47.3118 40.1922 47.2797C40.4803 47.2039 40.7587 47.0962 41.022 46.9586C41.8148 46.5221 42.5455 45.9849 43.1953 45.3608C43.9754 44.6063 44.6652 43.7837 45.2014 42.8427C45.2767 42.7096 45.3399 42.572 45.3941 42.4285C45.4446 42.297 45.4883 42.1632 45.5252 42.0275C45.5568 41.8884 45.5809 41.7494 45.5975 41.6088C45.6245 41.3326 45.5921 41.0539 45.5026 40.7907C45.4142 40.5381 45.2702 40.3077 45.0809 40.116V40.1175Z" fill="white"/>
</svg>
