<svg width="60" height="60" viewBox="0 0 60 60" fill="none" xmlns="http://www.w3.org/2000/svg">
<rect x="0.5" y="0.5" width="59" height="59" rx="14.5" fill="black" stroke="white"/>
<path d="M51.5622 17.9964C51.0468 16.0327 49.522 14.4836 47.5819 13.9527C44.0741 13 30 13 30 13C30 13 15.933 13 12.4181 13.9527C10.4852 14.4764 8.96039 16.0255 8.4378 17.9964C7.5 21.56 7.5 29 7.5 29C7.5 29 7.5 36.44 8.4378 40.0036C8.95323 41.9673 10.478 43.5164 12.4181 44.0473C15.933 45 30 45 30 45C30 45 44.0741 45 47.5819 44.0473C49.5148 43.5236 51.0396 41.9745 51.5622 40.0036C52.5 36.44 52.5 29 52.5 29C52.5 29 52.5 21.56 51.5622 17.9964Z" fill="white"/>
<path d="M25.0045 35.8582L36.6947 29L25.0045 22.1418V35.8582Z" fill="black"/>
</svg>
