<svg width="60" height="78" viewBox="0 0 60 78" fill="none" xmlns="http://www.w3.org/2000/svg">
<rect x="0.5" y="0.5" width="59" height="59" rx="14.5" fill="url(#paint0_linear_945_223)" stroke="white"/>
<g filter="url(#filter0_i_945_223)">
<path d="M20.8928 44.4367V24.328H14.2149V44.4367H20.8935H20.8928ZM17.5553 21.5829C19.8835 21.5829 21.333 20.0388 21.333 18.1091C21.2894 16.1354 19.8835 14.6344 17.5995 14.6344C15.314 14.6344 13.8213 16.1354 13.8213 18.1089C13.8213 20.0386 15.2702 21.5827 17.5115 21.5827H17.5547L17.5553 21.5829ZM24.5891 44.4367H31.2665V33.2083C31.2665 32.6081 31.3101 32.0063 31.4865 31.5776C31.969 30.3764 33.0678 29.1329 34.913 29.1329C37.3287 29.1329 38.2957 30.9767 38.2957 33.6802V44.4367H44.9729V32.907C44.9729 26.7307 41.6789 23.8565 37.2855 23.8565C33.6835 23.8565 32.1015 25.8716 31.2226 27.244H31.267V24.3287H24.5895C24.6766 26.2151 24.589 44.4374 24.589 44.4374L24.5891 44.4367Z" fill="white"/>
</g>
<path d="M6.05682 75V66.2727H7.11364V74.0625H11.1705V75H6.05682ZM12.6705 75V68.4545H13.6761V75H12.6705ZM13.1818 67.3636C12.9858 67.3636 12.8168 67.2969 12.6747 67.1634C12.5355 67.0298 12.4659 66.8693 12.4659 66.6818C12.4659 66.4943 12.5355 66.3338 12.6747 66.2003C12.8168 66.0668 12.9858 66 13.1818 66C13.3778 66 13.5455 66.0668 13.6847 66.2003C13.8267 66.3338 13.8977 66.4943 13.8977 66.6818C13.8977 66.8693 13.8267 67.0298 13.6847 67.1634C13.5455 67.2969 13.3778 67.3636 13.1818 67.3636ZM16.5238 71.0625V75H15.5181V68.4545H16.4897V69.4773H16.5749C16.7283 69.1449 16.9613 68.8778 17.2738 68.6761C17.5863 68.4716 17.9897 68.3693 18.484 68.3693C18.9272 68.3693 19.315 68.4602 19.6474 68.642C19.9798 68.821 20.2383 69.0938 20.4229 69.4602C20.6076 69.8239 20.6999 70.2841 20.6999 70.8409V75H19.6942V70.9091C19.6942 70.3949 19.5607 69.9943 19.2937 69.7074C19.0266 69.4176 18.6602 69.2727 18.1942 69.2727C17.8732 69.2727 17.5863 69.3423 17.3335 69.4815C17.0835 69.6207 16.886 69.8239 16.7411 70.0909C16.5962 70.358 16.5238 70.6818 16.5238 71.0625ZM23.4751 72.6136L23.4581 71.3693H23.6626L26.5263 68.4545H27.7706L24.7195 71.5398H24.6342L23.4751 72.6136ZM22.5376 75V66.2727H23.5433V75H22.5376ZM26.6967 75L24.1399 71.7614L24.8558 71.0625L27.9751 75H26.6967ZM31.5398 75.1364C30.9091 75.1364 30.3651 74.9972 29.9077 74.7188C29.4531 74.4375 29.1023 74.0455 28.8551 73.5426C28.6108 73.0369 28.4886 72.4489 28.4886 71.7784C28.4886 71.108 28.6108 70.517 28.8551 70.0057C29.1023 69.4915 29.446 69.0909 29.8864 68.804C30.3295 68.5142 30.8466 68.3693 31.4375 68.3693C31.7784 68.3693 32.1151 68.4261 32.4474 68.5398C32.7798 68.6534 33.0824 68.8381 33.3551 69.0938C33.6278 69.3466 33.8452 69.6818 34.0071 70.0994C34.169 70.517 34.25 71.0312 34.25 71.642V72.0682H29.2045V71.1989H33.2273C33.2273 70.8295 33.1534 70.5 33.0057 70.2102C32.8608 69.9205 32.6534 69.6918 32.3835 69.5241C32.1165 69.3565 31.8011 69.2727 31.4375 69.2727C31.0369 69.2727 30.6903 69.3722 30.3977 69.571C30.108 69.767 29.8849 70.0227 29.7287 70.3381C29.5724 70.6534 29.4943 70.9915 29.4943 71.3523V71.9318C29.4943 72.4261 29.5795 72.8452 29.75 73.1889C29.9233 73.5298 30.1634 73.7898 30.4702 73.9688C30.777 74.1449 31.1335 74.233 31.5398 74.233C31.804 74.233 32.0426 74.196 32.2557 74.1222C32.4716 74.0455 32.6577 73.9318 32.8139 73.7812C32.9702 73.6278 33.0909 73.4375 33.1761 73.2102L34.1477 73.483C34.0455 73.8125 33.8736 74.1023 33.6321 74.3523C33.3906 74.5994 33.0923 74.7926 32.7372 74.9318C32.3821 75.0682 31.983 75.1364 31.5398 75.1364ZM38.2514 75.1364C37.706 75.1364 37.2244 74.9986 36.8068 74.723C36.3892 74.4446 36.0625 74.0526 35.8267 73.5469C35.5909 73.0384 35.473 72.4375 35.473 71.7443C35.473 71.0568 35.5909 70.4602 35.8267 69.9545C36.0625 69.4489 36.3906 69.0582 36.8111 68.7827C37.2315 68.5071 37.7173 68.3693 38.2685 68.3693C38.6946 68.3693 39.0313 68.4403 39.2784 68.5824C39.5284 68.7216 39.7188 68.8807 39.8494 69.0597C39.983 69.2358 40.0866 69.3807 40.1605 69.4943H40.2457V66.2727H41.2514V75H40.2798V73.9943H40.1605C40.0866 74.1136 39.9815 74.2642 39.8452 74.446C39.7088 74.625 39.5142 74.7855 39.2614 74.9276C39.0085 75.0668 38.6719 75.1364 38.2514 75.1364ZM38.3878 74.233C38.7912 74.233 39.1321 74.1278 39.4105 73.9176C39.6889 73.7045 39.9006 73.4105 40.0455 73.0355C40.1903 72.6577 40.2628 72.2216 40.2628 71.7273C40.2628 71.2386 40.1918 70.8111 40.0497 70.4446C39.9077 70.0753 39.6974 69.7884 39.419 69.5838C39.1406 69.3764 38.7969 69.2727 38.3878 69.2727C37.9616 69.2727 37.6065 69.3821 37.3224 69.6009C37.0412 69.8168 36.8295 70.1108 36.6875 70.483C36.5483 70.8523 36.4787 71.267 36.4787 71.7273C36.4787 72.1932 36.5497 72.6165 36.6918 72.9972C36.8366 73.375 37.0497 73.6761 37.331 73.9006C37.6151 74.1222 37.9673 74.233 38.3878 74.233ZM44.2386 66.2727V75H43.233V66.2727H44.2386ZM47.0863 71.0625V75H46.0806V68.4545H47.0522V69.4773H47.1374C47.2908 69.1449 47.5238 68.8778 47.8363 68.6761C48.1488 68.4716 48.5522 68.3693 49.0465 68.3693C49.4897 68.3693 49.8775 68.4602 50.2099 68.642C50.5423 68.821 50.8008 69.0938 50.9854 69.4602C51.1701 69.8239 51.2624 70.2841 51.2624 70.8409V75H50.2567V70.9091C50.2567 70.3949 50.1232 69.9943 49.8562 69.7074C49.5891 69.4176 49.2227 69.2727 48.7567 69.2727C48.4357 69.2727 48.1488 69.3423 47.896 69.4815C47.646 69.6207 47.4485 69.8239 47.3036 70.0909C47.1587 70.358 47.0863 70.6818 47.0863 71.0625Z" fill="white"/>
<defs>
<filter id="filter0_i_945_223" x="11.3818" y="11.3823" width="36.5859" height="37.0858" filterUnits="userSpaceOnUse" color-interpolation-filters="sRGB">
<feFlood flood-opacity="0" result="BackgroundImageFix"/>
<feBlend mode="normal" in="SourceGraphic" in2="BackgroundImageFix" result="shape"/>
<feColorMatrix in="SourceAlpha" type="matrix" values="0 0 0 0 0 0 0 0 0 0 0 0 0 0 0 0 0 0 127 0" result="hardAlpha"/>
<feOffset dy="0.5"/>
<feGaussianBlur stdDeviation="1.25"/>
<feComposite in2="hardAlpha" operator="arithmetic" k2="-1" k3="1"/>
<feColorMatrix type="matrix" values="0 0 0 0 0 0 0 0 0 0 0 0 0 0 0 0 0 0 0.1 0"/>
<feBlend mode="normal" in2="shape" result="effect1_innerShadow_945_223"/>
</filter>
<linearGradient id="paint0_linear_945_223" x1="34.1467" y1="61.7893" x2="6.09763" y2="-1.28487e-06" gradientUnits="userSpaceOnUse">
<stop stop-color="#006699"/>
<stop offset="1" stop-color="#058CCF"/>
</linearGradient>
</defs>
</svg>
