<svg width="60" height="60" viewBox="0 0 60 60" fill="none" xmlns="http://www.w3.org/2000/svg">
<rect x="0.5" y="0.5" width="59" height="59" rx="14.5" fill="#FBFBFB" stroke="white"/>
<path d="M21.8291 50.5242L22.603 45.6086L20.8791 45.5687H12.6475L18.368 9.29647C18.3858 9.18697 18.4435 9.08487 18.5278 9.01236C18.6122 8.93985 18.7202 8.8999 18.8327 8.8999H32.7124C37.3202 8.8999 40.5001 9.85876 42.1603 11.7513C42.9387 12.6391 43.4344 13.5669 43.6741 14.5879C43.9256 15.6592 43.9301 16.9392 43.6845 18.5003L43.6667 18.6142V19.6145L44.445 20.0555C45.1005 20.4032 45.6214 20.8012 46.0209 21.257C46.6868 22.0161 47.1174 22.9809 47.2994 24.1247C47.4873 25.301 47.4252 26.7009 47.1174 28.2856C46.7623 30.1086 46.1881 31.6964 45.4128 32.9956C44.6995 34.1926 43.791 35.1855 42.7123 35.955C41.6824 36.686 40.4587 37.2409 39.0751 37.596C37.7345 37.9452 36.206 38.1213 34.5295 38.1213H33.4493C32.6769 38.1213 31.9266 38.3995 31.3377 38.8981C30.7473 39.4072 30.3567 40.1026 30.2368 40.8632L30.1554 41.3056L28.7882 49.9693L28.726 50.2875C28.7098 50.3881 28.6816 50.4384 28.6402 50.4725C28.6032 50.5035 28.5499 50.5242 28.4982 50.5242H21.8291Z" fill="#253B80"/>
<path d="M45.1819 18.7296C45.1404 18.9945 45.0931 19.2653 45.0398 19.5435C43.2094 28.9411 36.9472 32.1876 28.9494 32.1876H24.8772C23.8991 32.1876 23.0749 32.8979 22.9225 33.8626L20.8376 47.0854L20.2472 50.8335C20.1481 51.4668 20.6364 52.038 21.2756 52.038H28.4981C29.3534 52.038 30.0799 51.4165 30.2145 50.573L30.2856 50.2061L31.6454 41.5764L31.7327 41.1029C31.8659 40.2565 32.5939 39.635 33.4492 39.635H34.5294C41.527 39.635 47.0049 36.794 48.6059 28.5727C49.2747 25.1383 48.9285 22.2706 47.1588 20.2537C46.6231 19.6456 45.9587 19.141 45.1819 18.7296Z" fill="#179BD7"/>
<path d="M43.2674 17.9661C42.9878 17.8847 42.6992 17.8107 42.4033 17.7441C42.1059 17.679 41.801 17.6213 41.4873 17.571C40.3894 17.3934 39.1864 17.3091 37.8976 17.3091H27.0187C26.7509 17.3091 26.4964 17.3698 26.2685 17.4792C25.7669 17.7204 25.394 18.1954 25.3037 18.777L22.9894 33.435L22.9229 33.8626C23.0753 32.8979 23.8995 32.1876 24.8776 32.1876H28.9497C36.9476 32.1876 43.2097 28.9396 45.0401 19.5434C45.0949 19.2653 45.1408 18.9945 45.1822 18.7296C44.719 18.484 44.2174 18.2739 43.6773 18.0948C43.5441 18.0504 43.4065 18.0075 43.2674 17.9661Z" fill="#222D65"/>
<path d="M25.3031 18.777C25.3934 18.1954 25.7662 17.7204 26.2679 17.4807C26.4972 17.3712 26.7503 17.3106 27.0181 17.3106H37.8969C39.1858 17.3106 40.3888 17.3949 41.4867 17.5725C41.8004 17.6228 42.1052 17.6805 42.4027 17.7456C42.6986 17.8122 42.9872 17.8862 43.2668 17.9676C43.4059 18.009 43.5435 18.0519 43.6782 18.0948C44.2183 18.2739 44.7199 18.4855 45.1831 18.7296C45.7276 15.2567 45.1786 12.8921 43.3009 10.751C41.2307 8.39381 37.4945 7.38464 32.7135 7.38464H18.8338C17.8572 7.38464 17.0241 8.09491 16.8732 9.06116L11.0919 45.7063C10.978 46.4313 11.5373 47.0854 12.2683 47.0854H20.8373L22.9888 33.435L25.3031 18.777Z" fill="#253B80"/>
</svg>
