<svg width="60" height="60" viewBox="0 0 60 60" fill="none" xmlns="http://www.w3.org/2000/svg">
<rect x="0.5" y="0.5" width="59" height="59" rx="14.5" fill="url(#paint0_linear_945_267)" stroke="white"/>
<g filter="url(#filter0_d_945_267)">
<path fill-rule="evenodd" clip-rule="evenodd" d="M11.0771 18.0078V12.5319C11.0771 10.1989 12.3116 8.30768 14.6738 8.30768H20.8301C23.1923 8.30768 25.1072 10.1989 25.1072 12.5319V19.2307C25.1072 20.351 24.6565 21.4255 23.8544 22.2177L19.4968 26.5215C21.8201 32.6797 26.6368 37.6386 32.7344 40.2009L36.6856 36.2985C37.4877 35.5063 38.5756 35.0613 39.7099 35.0613H46.4924C48.8546 35.0613 50.7695 36.9525 50.7695 39.2855V43.5098C50.7695 45.8428 48.4618 48 46.1541 48.4615L43.9473 48.9231H41.6396H39.7099C23.8668 48.1565 11.0771 33.8455 11.0771 18.0078Z" fill="white"/>
</g>
<defs>
<filter id="filter0_d_945_267" x="9.07715" y="7.30768" width="43.6924" height="44.6154" filterUnits="userSpaceOnUse" color-interpolation-filters="sRGB">
<feFlood flood-opacity="0" result="BackgroundImageFix"/>
<feColorMatrix in="SourceAlpha" type="matrix" values="0 0 0 0 0 0 0 0 0 0 0 0 0 0 0 0 0 0 127 0" result="hardAlpha"/>
<feOffset dy="1"/>
<feGaussianBlur stdDeviation="1"/>
<feComposite in2="hardAlpha" operator="out"/>
<feColorMatrix type="matrix" values="0 0 0 0 0 0 0 0 0 0 0 0 0 0 0 0 0 0 0.5 0"/>
<feBlend mode="normal" in2="BackgroundImageFix" result="effect1_dropShadow_945_267"/>
<feBlend mode="normal" in="SourceGraphic" in2="effect1_dropShadow_945_267" result="shape"/>
</filter>
<linearGradient id="paint0_linear_945_267" x1="34.1467" y1="61.7893" x2="6.09763" y2="-1.28487e-06" gradientUnits="userSpaceOnUse">
<stop stop-color="#00D95F"/>
<stop offset="1" stop-color="#07FF74"/>
</linearGradient>
</defs>
</svg>
