<svg width="60" height="60" viewBox="0 0 60 60" fill="none" xmlns="http://www.w3.org/2000/svg">
<rect x="0.5" y="0.5" width="59" height="59" rx="14.5" fill="url(#paint0_linear_945_246)" stroke="white"/>
<g filter="url(#filter0_i_945_246)">
<path fill-rule="evenodd" clip-rule="evenodd" d="M36.7503 25.5728C38.9252 27.1203 41.5298 27.9471 44.1982 27.9371V22.6439C43.6736 22.6453 43.1505 22.5891 42.6381 22.4763V26.6932C39.9637 26.6979 37.3553 25.8616 35.1814 24.3024V35.1887C35.1748 36.9751 34.6854 38.7263 33.7649 40.2568C32.8445 41.7873 31.5275 43.04 29.9534 43.882C28.3793 44.724 26.6069 45.1239 24.8241 45.0394C23.0414 44.9549 21.3147 44.3891 19.8271 43.402C21.2031 44.7954 22.9612 45.7487 24.8788 46.1414C26.7964 46.5341 28.7873 46.3483 30.5994 45.6077C32.4115 44.8671 33.9633 43.605 35.0583 41.9811C36.1532 40.3572 36.7421 38.4446 36.7503 36.4856V25.5728ZM38.6806 20.1737C37.5746 18.9739 36.8959 17.4417 36.7503 15.8157V15.1276H35.2695C35.4526 16.1611 35.8509 17.1446 36.4386 18.0139C37.0262 18.8833 37.7901 19.6192 38.6806 20.1737ZM23.2558 39.2115C22.7426 38.5398 22.4281 37.7374 22.3481 36.8955C22.2681 36.0537 22.4258 35.2063 22.8032 34.4497C23.1807 33.6932 23.7628 33.0579 24.4833 32.6161C25.2037 32.1744 26.0336 31.944 26.8785 31.9511C27.3449 31.9509 27.8086 32.0223 28.2535 32.1628V26.6932C27.7335 26.6242 27.209 26.5947 26.6845 26.6049V30.8571C25.6014 30.5144 24.429 30.5924 23.4007 31.0754C22.3723 31.5585 21.5633 32.4112 21.1345 33.4641C20.7057 34.517 20.6886 35.6929 21.0866 36.7578C21.4846 37.8227 22.2684 38.6987 23.2823 39.2115H23.2558Z" fill="#EE1D52"/>
<path fill-rule="evenodd" clip-rule="evenodd" d="M35.1805 24.2671C37.3544 25.8263 39.9628 26.6626 42.6372 26.6579V22.441C41.1135 22.1185 39.7292 21.3255 38.6797 20.1737C37.7892 19.6192 37.0253 18.8833 36.4377 18.0139C35.85 17.1446 35.4517 16.1611 35.2686 15.1276H31.3728V36.4856C31.3691 37.4309 31.0698 38.3514 30.5168 39.1179C29.9638 39.8843 29.1849 40.4581 28.2894 40.7588C27.3939 41.0595 26.4268 41.072 25.5239 40.7945C24.621 40.517 23.8275 39.9634 23.255 39.2115C22.3476 38.7533 21.6209 38.0024 21.1922 37.0801C20.7634 36.1578 20.6577 35.1178 20.8919 34.1279C21.1262 33.1381 21.6868 32.2561 22.4833 31.6242C23.2799 30.9924 24.2659 30.6476 25.2822 30.6454C25.7485 30.6469 26.212 30.7183 26.6572 30.8571V26.6049C24.7336 26.6512 22.8653 27.2585 21.2817 28.3525C19.6982 29.4465 18.4682 30.9794 17.7427 32.7632C17.0173 34.5469 16.8281 36.5039 17.1982 38.3938C17.5683 40.2837 18.4817 42.0243 19.8263 43.402C21.3141 44.3962 23.0435 44.9679 24.8303 45.0561C26.6171 45.1443 28.3943 44.7457 29.9726 43.9029C31.551 43.0601 32.8714 41.8045 33.7931 40.2699C34.7149 38.7353 35.2035 36.9793 35.2069 35.1887L35.1805 24.2671Z" fill="white"/>
<path fill-rule="evenodd" clip-rule="evenodd" d="M42.638 22.4405V21.3024C41.2386 21.3084 39.8663 20.9168 38.6804 20.1732C39.7273 21.3283 41.1127 22.122 42.638 22.4405ZM35.2694 15.1271C35.2694 14.9242 35.2077 14.7124 35.1812 14.5095V13.8214H29.8046V35.1882C29.7999 36.3846 29.3212 37.5303 28.4735 38.3738C27.6258 39.2174 26.4783 39.6898 25.2829 39.6874C24.5791 39.691 23.8844 39.5277 23.2557 39.211C23.8283 39.9629 24.6217 40.5165 25.5246 40.794C26.4276 41.0715 27.3947 41.059 28.2901 40.7583C29.1856 40.4576 29.9646 39.8838 30.5176 39.1174C31.0706 38.3509 31.3699 37.4304 31.3735 36.4851V15.1271H35.2694ZM26.658 26.5956V25.387C24.4455 25.0862 22.1965 25.5443 20.2774 26.6865C18.3584 27.8288 16.8825 29.588 16.0902 31.6773C15.2979 33.7667 15.2361 36.063 15.9146 38.192C16.5932 40.3211 17.9723 42.1573 19.827 43.4015C18.4926 42.0206 17.589 40.2807 17.2264 38.3942C16.8638 36.5078 17.0581 34.5565 17.7854 32.7787C18.5127 31.0009 19.7416 29.4736 21.3219 28.3834C22.9023 27.2932 24.7656 26.6873 26.6844 26.6397L26.658 26.5956Z" fill="#69C9D0"/>
</g>
<defs>
<filter id="filter0_i_945_246" x="11.3818" y="11.3823" width="36.5859" height="37.0858" filterUnits="userSpaceOnUse" color-interpolation-filters="sRGB">
<feFlood flood-opacity="0" result="BackgroundImageFix"/>
<feBlend mode="normal" in="SourceGraphic" in2="BackgroundImageFix" result="shape"/>
<feColorMatrix in="SourceAlpha" type="matrix" values="0 0 0 0 0 0 0 0 0 0 0 0 0 0 0 0 0 0 127 0" result="hardAlpha"/>
<feOffset dy="0.5"/>
<feGaussianBlur stdDeviation="1.25"/>
<feComposite in2="hardAlpha" operator="arithmetic" k2="-1" k3="1"/>
<feColorMatrix type="matrix" values="0 0 0 0 0 0 0 0 0 0 0 0 0 0 0 0 0 0 0.1 0"/>
<feBlend mode="normal" in2="shape" result="effect1_innerShadow_945_246"/>
</filter>
<linearGradient id="paint0_linear_945_246" x1="1.21953" y1="4.19307e-07" x2="52.8462" y2="64.6349" gradientUnits="userSpaceOnUse">
<stop/>
<stop offset="1" stop-color="#323232"/>
</linearGradient>
</defs>
</svg>
