<svg width="60" height="60" viewBox="0 0 60 60" fill="none" xmlns="http://www.w3.org/2000/svg">
<rect x="0.5" y="0.5" width="59" height="59" rx="14.5" fill="url(#paint0_linear_945_210)" stroke="white"/>
<g clip-path="url(#clip0_945_210)" filter="url(#filter0_i_945_210)">
<path d="M47.8049 18.2605C46.6215 18.7703 45.3773 19.1253 44.1031 19.3167C44.6988 19.2145 45.5753 18.1413 45.9242 17.7069C46.4543 17.0516 46.8583 16.3036 47.1156 15.5009C47.1156 15.4413 47.1752 15.3561 47.1156 15.3135C47.0856 15.2971 47.052 15.2885 47.0178 15.2885C46.9836 15.2885 46.9499 15.2971 46.9199 15.3135C45.5364 16.0634 44.0639 16.6357 42.5373 17.017C42.4841 17.0332 42.4275 17.0347 42.3735 17.0212C42.3196 17.0077 42.2703 16.9797 42.231 16.9403C42.1121 16.7987 41.9842 16.665 41.848 16.54C41.2254 15.9816 40.519 15.5246 39.7546 15.1857C38.7228 14.7621 37.6084 14.5786 36.4954 14.6491C35.4154 14.7174 34.361 15.0073 33.3978 15.5009C32.4492 16.0212 31.6156 16.7281 30.9469 17.5791C30.2436 18.455 29.7358 19.4715 29.4577 20.5602C29.2284 21.5958 29.2024 22.6661 29.3811 23.7116C29.3811 23.8905 29.3811 23.9161 29.228 23.8905C23.1604 22.9962 18.1822 20.8413 14.1145 16.2163C13.9358 16.0119 13.8422 16.0119 13.6975 16.2163C11.9275 18.9078 12.787 23.1665 14.9995 25.2703C15.2974 25.5514 15.6037 25.824 15.9271 26.0795C14.9126 26.0074 13.923 25.7322 13.0167 25.2703C12.8465 25.1596 12.7529 25.2192 12.7444 25.4236C12.7203 25.707 12.7203 25.992 12.7444 26.2754C12.922 27.6336 13.4567 28.9202 14.294 30.0036C15.1314 31.0871 16.2411 31.9286 17.5099 32.442C17.8192 32.5746 18.1415 32.6745 18.4715 32.7401C17.5324 32.9251 16.5692 32.9539 15.6207 32.8253C15.4165 32.7827 15.3399 32.8934 15.4165 33.0893C16.6674 36.4963 19.3821 37.5354 21.3734 38.1146C21.6457 38.1572 21.918 38.1572 22.2244 38.2253C22.2244 38.2253 22.2244 38.2253 22.1733 38.2764C21.5861 39.3496 19.2119 40.0736 18.1226 40.4483C16.1344 41.1631 14.0147 41.4363 11.9104 41.249C11.5786 41.1979 11.502 41.2064 11.4169 41.249C11.3318 41.2916 11.4169 41.3852 11.5105 41.4704C11.936 41.7515 12.3615 41.9985 12.804 42.237C14.1213 42.9562 15.5141 43.5275 16.9568 43.9405C24.4284 46.0017 32.8361 44.4856 38.4441 38.9067C42.8522 34.5287 44.401 28.4899 44.401 22.4426C44.401 22.2126 44.6818 22.0763 44.8435 21.9571C45.9587 21.0873 46.9419 20.0602 47.7624 18.9078C47.9045 18.7361 47.9773 18.5173 47.9666 18.2946C47.9666 18.1668 47.9666 18.1924 47.8049 18.2605Z" fill="white"/>
</g>
<defs>
<filter id="filter0_i_945_210" x="11.3818" y="11.3823" width="36.5859" height="37.0858" filterUnits="userSpaceOnUse" color-interpolation-filters="sRGB">
<feFlood flood-opacity="0" result="BackgroundImageFix"/>
<feBlend mode="normal" in="SourceGraphic" in2="BackgroundImageFix" result="shape"/>
<feColorMatrix in="SourceAlpha" type="matrix" values="0 0 0 0 0 0 0 0 0 0 0 0 0 0 0 0 0 0 127 0" result="hardAlpha"/>
<feOffset dy="0.5"/>
<feGaussianBlur stdDeviation="1.25"/>
<feComposite in2="hardAlpha" operator="arithmetic" k2="-1" k3="1"/>
<feColorMatrix type="matrix" values="0 0 0 0 0 0 0 0 0 0 0 0 0 0 0 0 0 0 0.1 0"/>
<feBlend mode="normal" in2="shape" result="effect1_innerShadow_945_210"/>
</filter>
<linearGradient id="paint0_linear_945_210" x1="1.21953" y1="4.19307e-07" x2="52.8462" y2="64.6349" gradientUnits="userSpaceOnUse">
<stop stop-color="#0CA8F7"/>
<stop offset="1" stop-color="#0096E1"/>
</linearGradient>
<clipPath id="clip0_945_210">
<rect width="36.5858" height="36.5858" fill="white" transform="translate(11.3818 11.3823)"/>
</clipPath>
</defs>
</svg>
