<svg width="60" height="60" viewBox="0 0 60 60" fill="none" xmlns="http://www.w3.org/2000/svg">
<rect x="0.5" y="0.5" width="59" height="59" rx="14.5" fill="white" stroke="white"/>
<path d="M51.0622 19.9964C50.5468 18.0327 49.022 16.4836 47.0819 15.9527C43.5741 15 29.5 15 29.5 15C29.5 15 15.433 15 11.9181 15.9527C9.9852 16.4764 8.46039 18.0255 7.9378 19.9964C7 23.56 7 31 7 31C7 31 7 38.44 7.9378 42.0036C8.45323 43.9673 9.97805 45.5164 11.9181 46.0473C15.433 47 29.5 47 29.5 47C29.5 47 43.5741 47 47.0819 46.0473C49.0148 45.5236 50.5396 43.9745 51.0622 42.0036C52 38.44 52 31 52 31C52 31 52 23.56 51.0622 19.9964Z" fill="#FF0000"/>
<path d="M25.0043 37.8582L36.6946 31L25.0043 24.1418V37.8582Z" fill="white"/>
</svg>
