<svg width="40" height="40" viewBox="0 0 40 40" fill="none" xmlns="http://www.w3.org/2000/svg">
<path fill-rule="evenodd" clip-rule="evenodd" d="M20.5744 13.0913C22.0596 13.2386 23.2922 13.2037 24.2068 14.1507C25.7634 15.7623 26.762 16.844 27.2451 19.0784C27.5351 20.4198 27.0251 21.86 26.3362 23.1376C25.7027 24.3125 24.9538 25.35 23.7432 26.0469C22.6815 26.658 21.2168 26.9254 20.0229 26.9254C19.2282 26.9254 18.2015 26.9513 17.2918 26.7707C16.0125 26.5167 14.7754 25.6928 14.1218 24.731C13.0505 23.1548 11.5562 21.1228 12.122 19.1978C12.6946 17.2495 13.7626 14.9641 15.7774 13.7484C16.746 13.1639 18.0641 13.056 19.307 13.0753C19.5195 13.0786 20.367 13.0707 20.5744 13.0913Z" fill="#181818" stroke="#181818" stroke-width="0.666709" stroke-miterlimit="2.61313"/>
<path fill-rule="evenodd" clip-rule="evenodd" d="M26.9983 18.158C27.1252 18.4401 27.218 19.1286 27.218 19.1286C26.4514 19.1293 25.1401 19.1939 24.9027 19.1222C24.4475 18.9847 24.0372 18.8666 23.6572 18.6763C22.9071 18.3008 22.6627 17.5848 21.8641 17.2425C20.7786 16.7774 19.2997 16.76 18.8115 16.8715C17.8173 17.0985 17.076 17.9606 16.9183 18.3026C16.5771 19.0423 16.5583 20.1712 16.5913 20.5906C16.6389 21.1948 16.8265 21.6886 16.9825 21.9423C17.3872 22.6007 18.144 22.9764 18.4804 23.0906C19.0574 23.2866 19.8393 23.2113 20.1104 23.2028C20.7192 23.1837 21.3858 23.0593 21.5776 22.9155C22.2174 22.4359 23.2806 21.5757 23.7869 21.341C24.4174 21.0486 25.1166 20.9077 25.1456 20.9035C25.8309 20.8048 27.2215 20.748 27.1907 20.9093C27.1012 21.3778 26.9481 21.8624 26.8675 21.8609C26.0305 21.8459 24.6878 21.9431 24.1408 22.3801C23.6278 22.7899 22.8684 23.5521 21.9711 23.9517C21.3256 24.239 20.5319 24.2429 20.0668 24.2429C18.8275 24.2429 17.6818 24.1462 16.8564 23.4074C16.3881 22.9883 15.8527 22.5509 15.6163 21.8835C15.4176 21.3225 15.48 20.5463 15.48 19.9997C15.48 18.7093 15.8906 17.454 16.8731 16.6758C17.6749 16.0408 18.9285 15.7566 20.0668 15.7566C21.6588 15.7566 23.1306 16.4726 24.0043 17.5862C24.5208 18.2445 26.0387 18.2183 26.9983 18.158Z" fill="#181818" stroke="white" stroke-width="0.666709" stroke-miterlimit="2.61313"/>
<path fill-rule="evenodd" clip-rule="evenodd" d="M26.887 21.8688C27.0312 21.8754 27.4842 21.9646 27.8608 22.1546C28.0762 22.2632 28.5229 22.3956 28.6463 22.5827C28.7414 22.7268 28.5863 22.9635 28.5121 23.1335C26.9082 26.8042 23.8208 28.9316 19.5183 28.9316C14.282 28.9316 10.0371 24.9159 10.0371 19.9624C10.0371 15.0088 14.282 10.9932 19.5183 10.9932C23.8359 10.9932 27.7266 13.7594 28.8679 17.5061C28.6832 17.5731 27.0483 18.2962 26.9832 18.1163C26.862 17.7812 26.4869 17.1099 26.1657 16.6026C25.617 15.7362 24.9435 14.8824 24.2331 14.1469C23.3149 13.1962 22.0773 13.2312 20.5861 13.0833C20.3778 13.0626 19.5269 13.0705 19.3135 13.0672C18.0657 13.0478 16.7423 13.1561 15.7697 13.743C13.7468 14.9636 12.6745 17.2582 12.0996 19.2144C11.5315 21.1471 13.0318 23.1873 14.1074 24.7699C14.7637 25.7355 16.0058 26.5628 17.2902 26.8178C18.2035 26.9992 19.2344 26.9731 20.0323 26.9731C21.2311 26.9731 22.7017 26.7046 23.7676 26.0911C24.9831 25.3914 25.7351 24.3496 26.3711 23.17C26.5963 22.7523 26.7098 22.3195 26.887 21.8688V21.8688Z" fill="#FEFEFE" stroke="#FEFEFE" stroke-width="0.666709" stroke-miterlimit="2.61313"/>
<path fill-rule="evenodd" clip-rule="evenodd" d="M30.0266 22.2826C28.9436 26.708 24.7135 30 19.6635 30C13.7742 30 9 25.5228 9 20C9 14.4772 13.7742 10 19.6635 10C24.7109 10 28.9392 13.2886 30.0342 17.7032C29.9925 17.7509 29.7204 18.2891 28.9927 18.5759C28.7206 18.6831 27.3072 19.1562 27.2829 19.0818C27.1479 18.6685 27.0612 18.1451 27.0612 18.1451C27.5809 18.031 28.1501 17.92 28.8934 17.4796C27.7391 13.7338 24.0386 10.9933 19.652 10.9933C14.342 10.9933 10.0374 15.0089 10.0374 19.9625C10.0374 24.9161 14.342 28.9317 19.652 28.9317C24.068 28.9317 27.0745 26.681 28.6969 22.6345C28.7442 22.5164 27.5356 21.9183 26.9454 21.8741C26.9108 21.8715 27.0751 21.6238 27.2482 20.9196C27.2563 20.8866 28.0127 20.9904 28.8397 21.411C29.2421 21.6157 29.6797 21.9193 30.0266 22.2826Z" fill="#181818" stroke="#181818" stroke-width="0.666709" stroke-miterlimit="2.61313"/>
<path d="M39 20C39 30.4934 30.4934 39 20 39C9.50659 39 1 30.4934 1 20C1 9.50659 9.50659 1 20 1C30.4934 1 39 9.50659 39 20Z" stroke="url(#paint0_linear_1379_412)" stroke-width="2"/>
<defs>
<linearGradient id="paint0_linear_1379_412" x1="20" y1="0" x2="20" y2="40" gradientUnits="userSpaceOnUse">
<stop stop-color="#181818"/>
<stop offset="1" stop-color="#181818"/>
</linearGradient>
</defs>
</svg>
