<svg width="40" height="40" viewBox="0 0 40 40" fill="none" xmlns="http://www.w3.org/2000/svg">
<path d="M39 20C39 30.4934 30.4934 39 20 39C9.50659 39 1 30.4934 1 20C1 9.50659 9.50659 1 20 1C30.4934 1 39 9.50659 39 20Z" stroke="#181818" stroke-width="2"/>
<path d="M8.67578 30H31.5445C32.1012 30 32.5507 29.5454 32.5445 28.9888L32.3588 12.3734C32.3527 11.8255 31.9068 11.3846 31.3588 11.3846H8.67578C8.1235 11.3846 7.67578 11.8323 7.67578 12.3846V29C7.67578 29.5523 8.1235 30 8.67578 30Z" fill="black" stroke="white" stroke-width="2"/>
<path d="M30.4741 11.3848L9.68062 11.3848C8.80043 11.3848 8.34957 12.4398 8.95792 13.0759L19.3547 23.947C19.7485 24.3588 20.4063 24.3588 20.8001 23.947L31.1968 13.0759C31.8052 12.4398 31.3543 11.3848 30.4741 11.3848Z" fill="black" stroke="#FFFEFE" stroke-width="2"/>
<path d="M8.67578 30H31.4792C32.0315 30 32.4792 29.5523 32.4792 29V28.1819C32.4792 27.8685 32.3323 27.5732 32.0823 27.3842L20.6806 18.7639C20.3238 18.4941 19.8312 18.4941 19.4744 18.7639L8.07269 27.3842C7.8227 27.5732 7.67578 27.8685 7.67578 28.1819V29C7.67578 29.5523 8.1235 30 8.67578 30Z" fill="black" stroke="white" stroke-width="2"/>
</svg>
