<svg width="40" height="40" viewBox="0 0 40 40" fill="none" xmlns="http://www.w3.org/2000/svg">
<g filter="url(#filter0_i_1379_397)">
<path d="M25.5414 21.4456L26.2496 17.1214H21.8873V14.3107C21.8873 13.1283 22.4963 11.9729 24.4438 11.9729H26.4549V8.29053C25.2837 8.11104 24.1003 8.01393 22.9142 8C19.3238 8 16.9798 10.0743 16.9798 13.8242V17.1214H13V21.4456H16.9798V31.9048H21.8873V21.4456H25.5414Z" fill="#181818"/>
</g>
<path d="M39 20C39 30.4934 30.4934 39 20 39C9.50659 39 1 30.4934 1 20C1 9.50659 9.50659 1 20 1C30.4934 1 39 9.50659 39 20Z" stroke="#181818" stroke-width="2"/>
<defs>
<filter id="filter0_i_1379_397" x="13" y="8" width="13.4551" height="24.4048" filterUnits="userSpaceOnUse" color-interpolation-filters="sRGB">
<feFlood flood-opacity="0" result="BackgroundImageFix"/>
<feBlend mode="normal" in="SourceGraphic" in2="BackgroundImageFix" result="shape"/>
<feColorMatrix in="SourceAlpha" type="matrix" values="0 0 0 0 0 0 0 0 0 0 0 0 0 0 0 0 0 0 127 0" result="hardAlpha"/>
<feOffset dy="0.5"/>
<feGaussianBlur stdDeviation="1"/>
<feComposite in2="hardAlpha" operator="arithmetic" k2="-1" k3="1"/>
<feColorMatrix type="matrix" values="0 0 0 0 0 0 0 0 0 0 0 0 0 0 0 0 0 0 0.2 0"/>
<feBlend mode="normal" in2="shape" result="effect1_innerShadow_1379_397"/>
</filter>
</defs>
</svg>
