<svg width="40" height="40" viewBox="0 0 40 40" fill="none" xmlns="http://www.w3.org/2000/svg">
<path d="M27 14C27 13.4475 26.5521 13 25.9997 13C25.4473 13 25 13.448 25 14C25 14.552 25.4479 15 25.9997 15C26.5516 15 27 14.5525 27 14Z" fill="#181818"/>
<path d="M39 20C39 30.4934 30.4934 39 20 39C9.50659 39 1 30.4934 1 20C1 9.50659 9.50659 1 20 1C30.4934 1 39 9.50659 39 20Z" stroke="#181818" stroke-width="2"/>
<path d="M14.8203 19.9711C14.8203 17.0648 17.1855 14.697 20.0944 14.697C23.0006 14.697 25.3685 17.0649 25.3685 19.9711C25.3685 22.8773 23.0006 25.2452 20.0944 25.2452C17.1882 25.2452 14.8203 22.8773 14.8203 19.9711ZM15.896 19.974C15.896 22.2883 17.7768 24.1724 20.0944 24.1724C22.409 24.1724 24.2928 22.2885 24.2928 19.974C24.2928 17.6594 22.409 15.7756 20.0944 15.7756C17.7799 15.7756 15.896 17.6594 15.896 19.974Z" fill="white" stroke="#181818"/>
<path d="M24.6792 31.1972H15.3156C11.707 31.1972 8.77148 28.2617 8.77148 24.653V15.2895C8.77148 11.6809 11.707 8.74536 15.3156 8.74536H24.6792C28.2878 8.74536 31.2233 11.6809 31.2233 15.2895V24.653C31.2233 28.2617 28.2878 31.1972 24.6792 31.1972ZM15.3156 9.95293C12.3732 9.95293 9.97904 12.3471 9.97904 15.2895V24.653C9.97904 27.5955 12.3732 29.9896 15.3156 29.9896H24.6792C27.6216 29.9896 30.0157 27.5955 30.0157 24.653V15.2895C30.0157 12.344 27.6214 9.95293 24.6792 9.95293H15.3156Z" fill="#181818" stroke="#181818"/>
</svg>
