<svg width="40" height="40" viewBox="0 0 40 40" fill="none" xmlns="http://www.w3.org/2000/svg">
<path d="M15.6321 26.7689V16.8038H12.2022V26.7689H15.6324H15.6321ZM13.9178 15.4434C15.1137 15.4434 15.8581 14.6782 15.8581 13.7219C15.8357 12.7438 15.1137 12 13.9406 12C12.7667 12 12 12.7438 12 13.7218C12 14.6781 12.7442 15.4433 13.8954 15.4433H13.9176L13.9178 15.4434ZM17.5305 26.7689H20.9602V21.2045C20.9602 20.9071 20.9826 20.6089 21.0732 20.3964C21.321 19.8011 21.8853 19.1849 22.8331 19.1849C24.0738 19.1849 24.5705 20.0986 24.5705 21.4384V26.7689H28V21.0552C28 17.9945 26.3082 16.5701 24.0516 16.5701C22.2016 16.5701 21.389 17.5687 20.9376 18.2488H20.9604V16.8041H17.5307C17.5755 17.7389 17.5305 26.7692 17.5305 26.7692L17.5305 26.7689Z" fill="#181818"/>
<path d="M39 20C39 30.4934 30.4934 39 20 39C9.50659 39 1 30.4934 1 20C1 9.50659 9.50659 1 20 1C30.4934 1 39 9.50659 39 20Z" stroke="#181818" stroke-width="2"/>
</svg>
