<svg width="40" height="40" viewBox="0 0 40 40" fill="none" xmlns="http://www.w3.org/2000/svg">
<path d="M39 20C39 30.4934 30.4934 39 20 39C9.50659 39 1 30.4934 1 20C1 9.50659 9.50659 1 20 1C30.4934 1 39 9.50659 39 20Z" stroke="url(#paint0_linear_1379_399)" stroke-width="2"/>
<path d="M19.9989 8C13.2405 8 8 12.9526 8 19.639C8 23.1367 9.43387 26.1604 11.7677 28.2482C11.9626 28.4222 12.0826 28.6682 12.0886 28.9321L12.1546 31.068C12.1756 31.7489 12.8776 32.1929 13.5015 31.9169L15.8833 30.867C16.0843 30.777 16.3123 30.762 16.5252 30.819C17.6201 31.119 18.784 31.2809 19.9989 31.2809C26.7573 31.2809 31.9979 26.3284 31.9979 19.642C31.9979 12.9556 26.7573 8 19.9989 8Z" fill="url(#paint1_radial_1379_399)"/>
<path d="M12.7936 23.0437L16.3183 17.4522C16.8792 16.5612 18.0791 16.3423 18.922 16.9722L21.7268 19.075C21.9848 19.267 22.3387 19.267 22.5937 19.072L26.3794 16.1983C26.8833 15.8143 27.5433 16.4203 27.2073 16.9572L23.6796 22.5457C23.1187 23.4366 21.9188 23.6556 21.0758 23.0257L18.2711 20.9229C18.0131 20.7309 17.6591 20.7309 17.4042 20.9259L13.6185 23.7996C13.1145 24.1836 12.4546 23.5806 12.7936 23.0437Z" fill="white"/>
<defs>
<linearGradient id="paint0_linear_1379_399" x1="20" y1="0" x2="20" y2="40" gradientUnits="userSpaceOnUse">
<stop stop-color="#181818"/>
<stop offset="1" stop-color="#181818"/>
</linearGradient>
<radialGradient id="paint1_radial_1379_399" cx="0" cy="0" r="1" gradientUnits="userSpaceOnUse" gradientTransform="translate(12.6196 31.8672) scale(26.1481 26.148)">
<stop stop-color="#181818"/>
<stop offset="0.6098" stop-color="#181818"/>
<stop offset="0.9348" stop-color="#181818"/>
<stop offset="1" stop-color="#181818"/>
</radialGradient>
</defs>
</svg>
