<svg width="40" height="40" viewBox="0 0 40 40" fill="none" xmlns="http://www.w3.org/2000/svg">
<path d="M28 17.0772V25.1257C28 25.7145 27.9179 26.2926 27.6548 26.8263C27.2495 27.6571 26.5917 28.1803 25.7086 28.4339C25.2203 28.5766 24.7161 28.6538 24.2067 28.676C22.8742 28.7425 21.7175 27.8336 21.4817 26.5124C21.2786 25.4227 21.7996 24.2221 22.9394 23.6608C23.3889 23.441 23.8772 23.3089 24.3646 23.2095C24.8961 23.0943 25.4276 22.9897 25.9539 22.8681C26.3433 22.7804 26.5949 22.5437 26.6717 22.141C26.6938 22.0533 26.6991 21.9592 26.6991 21.8715C26.6991 19.3116 26.6991 16.7517 26.6991 14.1982C26.6991 14.1104 26.6822 14.0217 26.6612 13.9392C26.6065 13.7247 26.4528 13.5978 26.2339 13.6084C26.0086 13.619 25.7897 13.6581 25.5708 13.7025C24.5014 13.9117 23.4331 14.1263 22.369 14.3461L17.1779 15.3978C17.1558 15.4031 17.1284 15.4147 17.1063 15.4147C16.7169 15.5246 16.5801 15.7011 16.5632 16.108C16.558 16.1683 16.5632 16.2296 16.5632 16.2898C16.558 19.9563 16.5632 23.6228 16.558 27.2882C16.558 27.8833 16.4917 28.4667 16.2569 29.0163C15.8675 29.9189 15.177 30.4865 14.2456 30.756C13.7519 30.8987 13.2478 30.9822 12.732 30.998C11.389 31.0477 10.2702 30.1504 10.0407 28.8239C9.84284 27.6793 10.3638 26.4458 11.6574 25.8952C12.1616 25.6859 12.6826 25.5707 13.2141 25.4608C13.614 25.3783 14.0203 25.2959 14.4203 25.2135C14.9571 25.0983 15.237 24.7569 15.2644 24.2062V23.9969C15.2644 19.8242 15.2644 15.6514 15.2644 11.4787C15.2644 11.3022 15.2865 11.1267 15.3244 10.9555C15.4233 10.5539 15.7086 10.3224 16.0917 10.2283C16.4485 10.1343 16.8158 10.0687 17.1769 9.99159C18.2073 9.78232 19.2324 9.57304 20.2629 9.36906L23.4478 8.71905C24.3909 8.53197 25.3276 8.33961 26.2707 8.15253C26.578 8.09229 26.8906 8.0257 27.2022 8.0035C27.6348 7.96546 27.9368 8.24026 27.9811 8.681C27.9916 8.78563 27.9979 8.89027 27.9979 8.9949C27.9979 11.6869 27.9979 14.3789 27.9979 17.0709L28 17.0772Z" fill="#181818"/>
<path d="M39 20C39 30.4934 30.4934 39 20 39C9.50659 39 1 30.4934 1 20C1 9.50659 9.50659 1 20 1C30.4934 1 39 9.50659 39 20Z" stroke="#181818" stroke-width="2"/>
</svg>
