<svg width="40" height="40" viewBox="0 0 40 40" fill="none" xmlns="http://www.w3.org/2000/svg">
<path d="M16.2971 30.2542L16.6784 27.8324L15.829 27.8127H11.7734L14.5919 9.94196C14.6006 9.88801 14.6291 9.83771 14.6706 9.80199C14.7122 9.76627 14.7654 9.74658 14.8208 9.74658H21.6591C23.9293 9.74658 25.496 10.219 26.314 11.1514C26.6975 11.5888 26.9417 12.0459 27.0598 12.549C27.1837 13.0768 27.1859 13.7074 27.0649 14.4765L27.0561 14.5327V15.0255L27.4396 15.2428C27.7626 15.4141 28.0192 15.6102 28.216 15.8347C28.5441 16.2087 28.7562 16.684 28.8459 17.2476C28.9385 17.8272 28.9079 18.5168 28.7562 19.2976C28.5813 20.1958 28.2984 20.978 27.9164 21.6181C27.565 22.2079 27.1174 22.6971 26.5859 23.0762C26.0785 23.4363 25.4756 23.7097 24.7939 23.8847C24.1334 24.0567 23.3804 24.1435 22.5544 24.1435H22.0222C21.6416 24.1435 21.272 24.2806 20.9818 24.5262C20.691 24.777 20.4985 25.1197 20.4394 25.4944L20.3993 25.7124L19.7257 29.9809L19.6951 30.1376C19.6871 30.1872 19.6732 30.212 19.6528 30.2287C19.6346 30.244 19.6083 30.2542 19.5828 30.2542H16.2971Z" fill="#181818"/>
<path d="M27.803 14.5896C27.7825 14.7201 27.7592 14.8535 27.733 14.9906C26.8312 19.6206 23.7459 21.2201 19.8055 21.2201H17.7992C17.3173 21.2201 16.9112 21.5701 16.8361 22.0454L15.8089 28.56L15.518 30.4067C15.4692 30.7187 15.7098 31.0001 16.0247 31.0001H19.5831C20.0045 31.0001 20.3625 30.6939 20.4288 30.2784L20.4638 30.0976L21.1338 25.8459L21.1768 25.6126C21.2424 25.1956 21.6011 24.8894 22.0225 24.8894H22.5547C26.0022 24.8894 28.7011 23.4896 29.4899 19.4391C29.8195 17.747 29.6489 16.3342 28.7769 15.3405C28.513 15.0409 28.1857 14.7923 27.803 14.5896Z" fill="#179BD7"/>
<path d="M26.8594 14.2133C26.7216 14.1732 26.5795 14.1368 26.4336 14.104C26.2871 14.0719 26.1369 14.0435 25.9824 14.0187C25.4414 13.9312 24.8487 13.8896 24.2137 13.8896H18.8539C18.7219 13.8896 18.5965 13.9195 18.4843 13.9735C18.2371 14.0923 18.0534 14.3263 18.009 14.6128L16.8687 21.8346L16.8359 22.0453C16.911 21.57 17.3171 21.2201 17.799 21.2201H19.8053C23.7457 21.2201 26.831 19.6198 27.7328 14.9905C27.7598 14.8534 27.7824 14.72 27.8028 14.5895C27.5746 14.4685 27.3274 14.365 27.0613 14.2768C26.9957 14.2549 26.9279 14.2338 26.8594 14.2133Z" fill="#181818"/>
<path d="M18.0089 14.6128C18.0534 14.3263 18.2371 14.0923 18.4842 13.9742C18.5972 13.9202 18.7219 13.8903 18.8539 13.8903H24.2137C24.8487 13.8903 25.4414 13.9319 25.9823 14.0194C26.1369 14.0442 26.2871 14.0726 26.4336 14.1047C26.5794 14.1375 26.7216 14.1739 26.8594 14.214C26.9279 14.2345 26.9957 14.2556 27.062 14.2767C27.3281 14.3649 27.5753 14.4692 27.8035 14.5895C28.0717 12.8785 27.8013 11.7135 26.8761 10.6585C25.8562 9.4972 24.0154 9 21.6599 9H14.8216C14.3404 9 13.93 9.34994 13.8556 9.82599L11.0073 27.8805C10.9511 28.2377 11.2267 28.5599 11.5869 28.5599H15.8087L16.8687 21.8346L18.0089 14.6128Z" fill="#181818"/>
<path d="M39 20C39 30.4934 30.4934 39 20 39C9.50659 39 1 30.4934 1 20C1 9.50659 9.50659 1 20 1C30.4934 1 39 9.50659 39 20Z" stroke="url(#paint0_linear_1379_401)" stroke-width="2"/>
<defs>
<linearGradient id="paint0_linear_1379_401" x1="20" y1="0" x2="20" y2="40" gradientUnits="userSpaceOnUse">
<stop stop-color="#181818"/>
<stop offset="1" stop-color="#181818"/>
</linearGradient>
</defs>
</svg>
