<svg width="40" height="40" viewBox="0 0 40 40" fill="none" xmlns="http://www.w3.org/2000/svg">
<g filter="url(#filter0_d_1380_437)">
<path fill-rule="evenodd" clip-rule="evenodd" d="M11 14.5377V11.9761C11 10.8847 11.5598 10 12.631 10H15.4229C16.4941 10 17.3624 10.8847 17.3624 11.9761V15.1098C17.3624 15.6339 17.1581 16.1365 16.7944 16.5071L14.8182 18.5205C15.8718 21.4013 18.0561 23.7211 20.8213 24.9197L22.6131 23.0942C22.9769 22.7236 23.4702 22.5154 23.9846 22.5154H27.0604C28.1316 22.5154 29 23.4001 29 24.4915V26.4676C29 27.559 27.9535 28.5682 26.907 28.7841L25.9063 29H24.8597H23.9846C16.8 28.6414 11 21.9467 11 14.5377Z" fill="#181818"/>
</g>
<path d="M39 20C39 30.4934 30.4934 39 20 39C9.50659 39 1 30.4934 1 20C1 9.50659 9.50659 1 20 1C30.4934 1 39 9.50659 39 20Z" stroke="#181818" stroke-width="2"/>
<defs>
<filter id="filter0_d_1380_437" x="9" y="9" width="22" height="23" filterUnits="userSpaceOnUse" color-interpolation-filters="sRGB">
<feFlood flood-opacity="0" result="BackgroundImageFix"/>
<feColorMatrix in="SourceAlpha" type="matrix" values="0 0 0 0 0 0 0 0 0 0 0 0 0 0 0 0 0 0 127 0" result="hardAlpha"/>
<feOffset dy="1"/>
<feGaussianBlur stdDeviation="1"/>
<feComposite in2="hardAlpha" operator="out"/>
<feColorMatrix type="matrix" values="0 0 0 0 0 0 0 0 0 0 0 0 0 0 0 0 0 0 0.5 0"/>
<feBlend mode="normal" in2="BackgroundImageFix" result="effect1_dropShadow_1380_437"/>
<feBlend mode="normal" in="SourceGraphic" in2="effect1_dropShadow_1380_437" result="shape"/>
</filter>
</defs>
</svg>
