<svg width="40" height="40" viewBox="0 0 40 40" fill="none" xmlns="http://www.w3.org/2000/svg">
<path d="M19.4065 9.07519C15.7755 9.49228 12.1572 12.5151 12.0079 16.8331C11.914 19.4695 12.6415 21.4474 15.08 22.0028C16.1381 20.082 14.7386 19.6583 14.521 18.2687C13.6271 12.5744 20.9042 8.69103 24.7123 12.6666C27.347 15.4193 25.6126 23.8885 21.3628 23.0082C17.2923 22.1674 23.3554 15.4259 20.1063 14.1022C17.4651 13.0266 16.0613 17.3928 17.3136 19.5617C16.5798 23.2914 14.9989 26.8059 15.6389 31.4839C17.7147 29.9341 18.4145 26.9661 18.9884 23.8709C20.0316 24.5229 20.5884 25.2012 21.9197 25.3066C26.8286 25.6973 29.57 20.2642 28.9001 15.2525C28.3049 10.8094 23.9954 8.54834 19.4065 9.07519Z" fill="#181818"/>
<path d="M39 20C39 30.4934 30.4934 39 20 39C9.50659 39 1 30.4934 1 20C1 9.50659 9.50659 1 20 1C30.4934 1 39 9.50659 39 20Z" stroke="#181818" stroke-width="2"/>
</svg>
