<svg width="40" height="40" viewBox="0 0 40 40" fill="none" xmlns="http://www.w3.org/2000/svg">
<path d="M21.9952 14.9839C21.9952 16.8362 21.258 18.6126 19.9457 19.9223C18.6334 21.2321 16.8535 21.9679 14.9976 21.9679C13.1417 21.9679 11.3619 21.2321 10.0496 19.9223C8.73725 18.6126 8 16.8362 8 14.9839C8 13.1317 8.73725 11.3553 10.0496 10.0455C11.3619 8.73581 13.1417 8 14.9976 8C16.8535 8 18.6334 8.73581 19.9457 10.0455C21.258 11.3553 21.9952 13.1317 21.9952 14.9839Z" fill="url(#paint0_linear_1379_396)"/>
<path d="M31.748 25.0139C31.748 25.9314 31.567 26.8399 31.2152 27.6875C30.8634 28.5351 30.3478 29.3053 29.6978 29.954C29.0478 30.6028 28.2761 31.1174 27.4268 31.4685C26.5776 31.8196 25.6673 32.0003 24.748 32.0003C22.8915 32.0003 21.1111 31.2642 19.7983 29.954C18.4855 28.6438 17.748 26.8668 17.748 25.0139C17.748 23.161 18.4855 21.384 19.7983 20.0738C21.1111 18.7636 22.8915 18.0276 24.748 18.0276C25.6673 18.0276 26.5776 18.2083 27.4268 18.5594C28.2761 18.9105 29.0478 19.4251 29.6978 20.0738C30.3478 20.7226 30.8634 21.4927 31.2152 22.3404C31.567 23.188 31.748 24.0965 31.748 25.0139Z" fill="url(#paint1_linear_1379_396)"/>
<path opacity="0.05" fill-rule="evenodd" clip-rule="evenodd" d="M8.02539 15.5819C8.13408 16.9014 8.61395 18.1632 9.40938 19.2208C10.2048 20.2785 11.2833 21.0888 12.5198 21.5579C13.7562 22.0269 15.1001 22.1356 16.3958 21.8712C17.6914 21.6068 18.8856 20.9801 19.8402 20.0639C20.7947 19.1477 21.4705 17.9794 21.7891 16.6944C22.1078 15.4093 22.0562 14.0602 21.6406 12.8033C21.2249 11.5464 20.462 10.4331 19.4404 9.59258C18.4188 8.75202 17.1802 8.21854 15.8682 8.05396C14.0868 8.65068 12.4595 9.63525 11.1035 10.9369C9.74737 12.2385 8.69615 13.8249 8.02539 15.5819V15.5819Z" fill="black"/>
<path opacity="0.05" fill-rule="evenodd" clip-rule="evenodd" d="M31.7301 24.5115C31.6387 23.1759 31.1672 21.8944 30.3713 20.8187C29.5755 19.7429 28.4886 18.9179 27.2393 18.4412C25.9899 17.9646 24.6304 17.8562 23.3215 18.1289C22.0126 18.4016 20.809 19.044 19.8532 19.9801C18.8974 20.9162 18.2294 22.1069 17.9281 23.4112C17.6268 24.7156 17.7049 26.079 18.1531 27.3403C18.6013 28.6016 19.4009 29.708 20.4573 30.5286C21.5137 31.3491 22.7826 31.8496 24.1141 31.9707C25.8469 31.3529 27.4251 30.3659 28.74 29.078C30.0549 27.7901 31.075 26.2326 31.7301 24.5115Z" fill="black"/>
<path opacity="0.1" fill-rule="evenodd" clip-rule="evenodd" d="M8.34766 17.1781C8.7152 18.304 9.36191 19.3182 10.2273 20.1257C11.0927 20.9333 12.1485 21.5079 13.2959 21.7958C14.4434 22.0837 15.645 22.0755 16.7884 21.7719C17.9318 21.4683 18.9796 20.8793 19.8339 20.06C20.6882 19.2407 21.321 18.2177 21.6732 17.0869C22.0253 15.9561 22.0853 14.7543 21.8475 13.594C21.6097 12.4336 21.0819 11.3526 20.3135 10.452C19.545 9.55149 18.5611 8.8608 17.4536 8.44458C15.2711 8.89988 13.2603 9.96002 11.6503 11.5042C10.0403 13.0483 8.89596 15.0143 8.34766 17.1781V17.1781Z" fill="black"/>
<path opacity="0.1" fill-rule="evenodd" clip-rule="evenodd" d="M31.412 22.8701C31.0499 21.7309 30.4026 20.7035 29.5319 19.8855C28.6611 19.0675 27.5958 18.4863 26.4374 18.1971C25.2789 17.9079 24.0658 17.9203 22.9135 18.2333C21.7612 18.5462 20.7081 19.1492 19.8542 19.9848C19.0004 20.8205 18.3743 21.861 18.0356 23.0074C17.6968 24.1538 17.6567 25.368 17.9189 26.5343C18.1812 27.7007 18.7371 28.7804 19.5338 29.6708C20.3306 30.5612 21.3416 31.2327 22.4707 31.6213C24.6252 31.1371 26.6027 30.0621 28.1818 28.5166C29.7609 26.971 30.8794 25.016 31.412 22.8701Z" fill="#181818"/>
<path opacity="0.1" fill-rule="evenodd" clip-rule="evenodd" d="M8.61328 17.8414C9.06858 18.8687 9.76413 19.7712 10.6412 20.4725C11.5182 21.1739 12.551 21.6536 13.6522 21.871C14.7534 22.0884 15.8906 22.0372 16.9679 21.7217C18.0452 21.4062 19.0308 20.8357 19.8414 20.0583C20.6521 19.281 21.2639 18.3196 21.6253 17.2556C21.9867 16.1915 22.087 15.0559 21.9177 13.9449C21.7485 12.8338 21.3146 11.7799 20.6528 10.8721C19.991 9.96434 19.1207 9.22944 18.1154 8.72949C15.7907 9.09185 13.6329 10.1599 11.9336 11.7894C10.2344 13.4189 9.0754 15.5313 8.61328 17.8414Z" fill="black"/>
<path opacity="0.1" fill-rule="evenodd" clip-rule="evenodd" d="M31.1544 22.1946C30.7014 21.1554 30.0033 20.2418 29.12 19.5324C28.2366 18.8229 27.1945 18.3388 26.0831 18.1216C24.9718 17.9045 23.8243 17.9607 22.7394 18.2855C21.6546 18.6103 20.6646 19.194 19.8547 19.9864C19.0447 20.7788 18.439 21.7563 18.0895 22.8348C17.7401 23.9133 17.6573 25.0607 17.8483 26.1783C18.0393 27.296 18.4984 28.3505 19.1862 29.2512C19.874 30.152 20.7698 30.8721 21.7968 31.3497C24.1012 30.9576 26.2315 29.8712 27.9034 28.2355C29.5753 26.5998 30.7094 24.4924 31.1544 22.1946V22.1946Z" fill="black"/>
<path d="M30.9594 20.052C30.9594 21.5046 30.6727 22.943 30.1157 24.285C29.5587 25.6271 28.7423 26.8465 27.7132 27.8736C26.684 28.9008 25.4622 29.7156 24.1175 30.2715C22.7728 30.8274 21.3316 31.1135 19.8762 31.1135C18.4207 31.1135 16.9795 30.8274 15.6348 30.2715C14.2901 29.7156 13.0683 28.9008 12.0392 27.8736C11.01 26.8465 10.1936 25.6271 9.63663 24.285C9.07964 22.943 8.79297 21.5046 8.79297 20.052C8.79297 18.5994 9.07964 17.161 9.63663 15.8189C10.1936 14.4769 11.01 13.2575 12.0392 12.2303C13.0683 11.2032 14.2901 10.3884 15.6348 9.83249C16.9795 9.27659 18.4207 8.99048 19.8762 8.99048C21.3316 8.99048 22.7728 9.27659 24.1175 9.83249C25.4622 10.3884 26.684 11.2032 27.7132 12.2303C28.7423 13.2575 29.5587 14.4769 30.1157 15.8189C30.6727 17.161 30.9594 18.5994 30.9594 20.052Z" fill="url(#paint2_linear_1379_396)"/>
<path fill-rule="evenodd" clip-rule="evenodd" d="M16.7623 19.668C16.3144 19.3728 15.9406 18.978 15.6702 18.5144C15.409 18.0246 15.2802 17.475 15.2963 16.92C15.2765 16.2157 15.5165 15.5287 15.9705 14.9904C16.4424 14.4498 17.0488 14.0441 17.7281 13.8144C18.467 13.5531 19.2454 13.4218 20.029 13.4264C20.5416 13.4216 21.0538 13.4609 21.5597 13.544C21.9218 13.6 22.2775 13.6919 22.6214 13.8184C22.9373 13.9255 23.2224 14.1078 23.4523 14.3496C23.6217 14.5486 23.7128 14.8026 23.7087 15.064C23.7148 15.1998 23.694 15.3355 23.6477 15.4633C23.6014 15.5911 23.5303 15.7085 23.4387 15.8088C23.352 15.9012 23.2467 15.9743 23.1298 16.0231C23.0129 16.0719 22.887 16.0954 22.7604 16.092C22.5862 16.0906 22.4143 16.0518 22.2563 15.9784C21.8668 15.8038 21.4656 15.6568 21.0556 15.5384C20.6781 15.4387 20.2891 15.3903 19.8988 15.3944C19.3901 15.3757 18.8868 15.5046 18.4495 15.7656C18.265 15.8779 18.114 16.0377 18.0123 16.2284C17.9105 16.4191 17.8618 16.6336 17.8711 16.8496C17.8684 17.1332 17.9762 17.4066 18.1715 17.612C18.4036 17.8532 18.6779 18.0498 18.9808 18.192C19.3201 18.3605 19.8261 18.584 20.4987 18.8624C20.5732 18.886 20.6459 18.9151 20.716 18.9496C21.3725 19.2096 22.0018 19.5336 22.5951 19.9168C23.0636 20.2227 23.4586 20.6286 23.7519 21.1056C24.0406 21.6068 24.1852 22.1783 24.1697 22.7567C24.1939 23.465 23.9912 24.1625 23.5913 24.7471C23.184 25.3007 22.6206 25.7194 21.9735 25.9495C21.1937 26.2285 20.3696 26.363 19.5416 26.3463C18.4039 26.3862 17.2716 26.1716 16.227 25.7183C15.9599 25.5992 15.7258 25.4169 15.5447 25.1871C15.3944 24.9765 15.3164 24.7227 15.3226 24.4639C15.3152 24.3274 15.3374 24.1909 15.3877 24.0639C15.4381 23.9368 15.5153 23.8222 15.6142 23.7279C15.8215 23.5461 16.0907 23.4511 16.366 23.4623C16.6728 23.4665 16.9741 23.5441 17.2448 23.6887C17.5814 23.8573 17.8469 23.9837 18.0413 24.0679C18.2633 24.161 18.4933 24.2338 18.7284 24.2855C19.0182 24.3492 19.3144 24.3798 19.6111 24.3767C20.1359 24.4142 20.6582 24.2748 21.0947 23.9807C21.2581 23.8527 21.3887 23.6875 21.4757 23.4989C21.5627 23.3102 21.6035 23.1035 21.5948 22.8959C21.5953 22.6016 21.4833 22.3182 21.2817 22.1039C21.0152 21.8285 20.7033 21.6012 20.3597 21.432C19.9533 21.2176 19.3819 20.9562 18.6453 20.648C17.9865 20.3851 17.3557 20.0568 16.7623 19.668" fill="white"/>
<path d="M39 20C39 30.4934 30.4934 39 20 39C9.50659 39 1 30.4934 1 20C1 9.50659 9.50659 1 20 1C30.4934 1 39 9.50659 39 20Z" stroke="#171717" stroke-width="2"/>
<defs>
<linearGradient id="paint0_linear_1379_396" x1="13.9063" y1="8.0848" x2="16.0947" y2="21.8822" gradientUnits="userSpaceOnUse">
<stop offset="0.012" stop-color="#181818"/>
<stop offset="0.339" stop-color="#181818"/>
<stop offset="0.755" stop-color="#181818"/>
<stop offset="0.914773" stop-color="#085793"/>
<stop offset="1" stop-color="#E5E5E5"/>
</linearGradient>
<linearGradient id="paint1_linear_1379_396" x1="18.6892" y1="28.5163" x2="30.8144" y2="21.5259" gradientUnits="userSpaceOnUse">
<stop stop-color="#181818"/>
<stop offset="0.37" stop-color="#181818"/>
<stop offset="0.573" stop-color="#181818"/>
<stop offset="0.735" stop-color="#181818"/>
<stop offset="0.875" stop-color="#181818"/>
<stop offset="1" stop-color="#181818"/>
</linearGradient>
<linearGradient id="paint2_linear_1379_396" x1="15.5509" y1="12.5512" x2="26.6311" y2="31.7164" gradientUnits="userSpaceOnUse">
<stop stop-color="#181818"/>
<stop offset="1" stop-color="#181818"/>
</linearGradient>
</defs>
</svg>
