<svg width="40" height="40" viewBox="0 0 40 40" fill="none" xmlns="http://www.w3.org/2000/svg">
<path d="M20.9243 9H20.9233C19.9671 9.00029 19.0357 9.18424 18.1549 9.54677C17.3094 9.89471 16.5485 10.3908 15.8933 11.0214C15.239 11.6511 14.724 12.3821 14.3628 13.1942C13.9872 14.0387 13.7962 14.9312 13.795 15.847C13.7944 16.2966 13.7847 16.733 13.7659 17.1508L13.3926 17.067C13.2556 17.0363 13.1147 17.0206 12.974 17.0206C12.5676 17.0205 12.1668 17.152 11.8453 17.3908C11.5099 17.64 11.2747 17.9947 11.1831 18.3898C10.9652 19.3302 11.5075 20.2795 12.4474 20.6134L13.5654 21.0454C12.8251 23.2209 11.46 23.6378 10.5408 23.9186C10.2969 23.9931 10.0862 24.0574 9.88557 24.1527C9.08628 24.5325 9 25.1759 9 25.4349C9 25.931 9.24524 26.3837 9.69063 26.7096C9.91237 26.8719 10.1871 27.0058 10.5304 27.1189C10.9983 27.2731 11.5407 27.371 11.9815 27.4495C12.0029 27.6059 12.0341 27.7738 12.0867 27.9432C12.3053 28.6463 12.7666 28.9612 13.1151 29.1014C13.4458 29.2346 13.7874 29.25 14.0157 29.25C14.2389 29.25 14.4749 29.2332 14.7247 29.2155C14.9927 29.1965 15.2699 29.1769 15.5433 29.1769C15.967 29.1769 16.2824 29.2253 16.5075 29.3248C16.8166 29.4615 17.1444 29.6459 17.4915 29.841C18.4577 30.3842 19.5528 31 20.9345 31C22.3161 31 23.4111 30.3842 24.3773 29.841C24.7244 29.6458 25.0522 29.4615 25.3614 29.3248C25.5865 29.2252 25.9019 29.1769 26.3256 29.1769C26.5991 29.1769 26.8762 29.1965 27.1442 29.2155C27.394 29.2332 27.63 29.25 27.8532 29.25C28.0814 29.25 28.423 29.2346 28.7538 29.1014C29.1022 28.9612 29.5635 28.6463 29.7821 27.9432C29.8348 27.7738 29.8661 27.6059 29.8873 27.4495C30.3282 27.371 30.8706 27.2731 31.3385 27.1189C31.6818 27.0058 31.9565 26.8719 32.1782 26.7096C32.6236 26.3837 32.8689 25.931 32.8689 25.4349C32.8689 25.1759 32.7826 24.5325 31.9832 24.1528C31.7826 24.0575 31.5719 23.9931 31.328 23.9186C30.4087 23.6379 29.0436 23.2209 28.3033 21.0455L29.4213 20.6134C30.3612 20.2796 30.9036 19.3302 30.6856 18.3898C30.594 17.9947 30.3588 17.64 30.0234 17.3908C29.702 17.1521 29.3012 17.0206 28.895 17.0206C28.7543 17.0206 28.6134 17.0362 28.4763 17.0669L28.1029 17.1508C28.0841 16.733 28.0744 16.2966 28.0738 15.8469C28.0727 14.9304 27.8801 14.037 27.5015 13.1915C27.1381 12.3798 26.6203 11.6489 25.9627 11.0191C25.3051 10.3894 24.542 9.89383 23.6948 9.54618C22.8124 9.18409 21.8802 9.00034 20.9243 9Z" fill="#181818"/>
<path d="M39 20C39 30.4934 30.4934 39 20 39C9.50659 39 1 30.4934 1 20C1 9.50659 9.50659 1 20 1C30.4934 1 39 9.50659 39 20Z" stroke="#181818" stroke-width="2"/>
</svg>
