<svg width="40" height="40" viewBox="0 0 40 40" fill="none" xmlns="http://www.w3.org/2000/svg">
<path fill-rule="evenodd" clip-rule="evenodd" d="M20.5 8C14.175 8 9 13.175 9 19.5C9 25.825 14.175 31 20.5 31C26.825 31 32 25.825 32 19.5C32 13.175 26.8825 8 20.5 8ZM25.79 24.6175C25.56 24.9625 25.1575 25.0775 24.8125 24.8475C22.11 23.18 18.7175 22.835 14.6925 23.755C14.29 23.87 13.945 23.5825 13.83 23.2375C13.715 22.835 14.0025 22.49 14.3475 22.375C18.7175 21.3975 22.5125 21.8 25.5025 23.64C25.905 23.8125 25.9625 24.2725 25.79 24.6175ZM27.17 21.455C26.8825 21.8575 26.365 22.03 25.9625 21.7425C22.8575 19.845 18.1425 19.27 14.52 20.42C14.06 20.535 13.5425 20.305 13.4275 19.845C13.3125 19.385 13.5425 18.8675 14.0025 18.7525C18.2 17.4875 23.375 18.12 26.94 20.305C27.285 20.4775 27.4575 21.0525 27.17 21.455ZM27.285 18.235C23.605 16.05 17.4525 15.82 13.945 16.9125C13.37 17.085 12.795 16.74 12.6225 16.2225C12.45 15.6475 12.795 15.0725 13.3125 14.9C17.395 13.6925 24.1225 13.9225 28.3775 16.4525C28.895 16.74 29.0675 17.43 28.78 17.9475C28.4925 18.35 27.8025 18.5225 27.285 18.235Z" fill="#181818"/>
<path d="M39 20C39 30.4934 30.4934 39 20 39C9.50659 39 1 30.4934 1 20C1 9.50659 9.50659 1 20 1C30.4934 1 39 9.50659 39 20Z" stroke="#181818" stroke-width="2"/>
</svg>
