<svg width="40" height="40" viewBox="0 0 40 40" fill="none" xmlns="http://www.w3.org/2000/svg">
<path d="M8.41009 18.71C8.41009 18.71 18.5824 14.3197 22.1104 12.7737C23.4628 12.1554 28.0492 10.1765 28.0492 10.1765C28.0492 10.1765 30.166 9.31088 29.9896 11.4133C29.9307 12.279 29.4603 15.309 28.99 18.5864C28.2843 23.2242 27.5199 28.2948 27.5199 28.2948C27.5199 28.2948 27.4024 29.717 26.4028 29.9644C25.4032 30.2117 23.7568 29.0987 23.4628 28.8513C23.2275 28.6658 19.0528 25.8831 17.524 24.5227C17.1124 24.1517 16.642 23.4097 17.5828 22.544C19.6996 20.5033 22.228 17.968 23.7568 16.3603C24.4624 15.6182 25.1679 13.8868 22.228 15.9892C18.0532 19.0193 13.9373 21.8638 13.9373 21.8638C13.9373 21.8638 12.9964 22.4821 11.2325 21.9255C9.46842 21.3691 7.41043 20.627 7.41043 20.627C7.41043 20.627 5.99932 19.6995 8.41009 18.71Z" fill="#181818"/>
<path d="M39 20C39 30.4934 30.4934 39 20 39C9.50659 39 1 30.4934 1 20C1 9.50659 9.50659 1 20 1C30.4934 1 39 9.50659 39 20Z" stroke="#181818" stroke-width="2"/>
</svg>
