<svg width="40" height="40" viewBox="0 0 40 40" fill="none" xmlns="http://www.w3.org/2000/svg">
<path fill-rule="evenodd" clip-rule="evenodd" d="M24.819 15.9496C26.332 16.9965 28.1438 17.5558 30 17.549V13.9682C29.6351 13.9692 29.2712 13.9312 28.9148 13.8549V16.7075C27.0543 16.7107 25.2399 16.145 23.7277 15.0902V22.4547C23.7231 23.6631 23.3826 24.8478 22.7423 25.8832C22.1021 26.9186 21.1859 27.766 20.0909 28.3356C18.996 28.9052 17.763 29.1757 16.5229 29.1186C15.2828 29.0614 14.0816 28.6786 13.0469 28.0108C14.004 28.9535 15.227 29.5984 16.5609 29.864C17.8949 30.1297 19.2798 30.004 20.5404 29.503C21.8009 29.002 22.8803 28.1482 23.642 27.0496C24.4037 25.9511 24.8133 24.6573 24.819 23.332V15.9496ZM26.1618 12.2972C25.3924 11.4855 24.9203 10.449 24.819 9.34905V8.88354H23.789C23.9163 9.58274 24.1934 10.248 24.6022 10.8361C25.011 11.4243 25.5424 11.9221 26.1618 12.2972V12.2972ZM15.432 25.1761C15.0749 24.7216 14.8562 24.1788 14.8005 23.6093C14.7448 23.0398 14.8545 22.4665 15.1171 21.9548C15.3797 21.443 15.7846 21.0132 16.2858 20.7144C16.787 20.4155 17.3642 20.2596 17.9519 20.2644C18.2764 20.2643 18.599 20.3127 18.9084 20.4077V16.7075C18.5467 16.6609 18.1819 16.641 17.8171 16.6479V19.5244C17.0636 19.2926 16.2481 19.3453 15.5327 19.6721C14.8174 19.9989 14.2546 20.5757 13.9563 21.288C13.658 22.0003 13.6461 22.7957 13.923 23.5161C14.1998 24.2366 14.7451 24.8292 15.4504 25.1761H15.432Z" fill="#181818"/>
<path fill-rule="evenodd" clip-rule="evenodd" d="M23.7252 15.0663C25.2374 16.1211 27.0519 16.6869 28.9123 16.6837V13.831C27.8523 13.6128 26.8894 13.0764 26.1593 12.2972C25.5399 11.9221 25.0085 11.4243 24.5997 10.8361C24.1909 10.248 23.9138 9.58274 23.7865 8.88354H21.0764V23.332C21.0739 23.9715 20.8657 24.5942 20.481 25.1127C20.0963 25.6312 19.5545 26.0193 18.9316 26.2228C18.3086 26.4262 17.6359 26.4346 17.0078 26.2469C16.3797 26.0592 15.8278 25.6847 15.4295 25.1761C14.7983 24.8661 14.2928 24.3581 13.9945 23.7342C13.6963 23.1102 13.6227 22.4067 13.7857 21.7371C13.9487 21.0674 14.3386 20.4708 14.8927 20.0433C15.4468 19.6159 16.1327 19.3826 16.8397 19.3812C17.1641 19.3822 17.4865 19.4305 17.7962 19.5244V16.6479C16.4581 16.6791 15.1585 17.09 14.0569 17.8301C12.9553 18.5701 12.0997 19.6071 11.5951 20.8138C11.0904 22.0205 10.9588 23.3444 11.2162 24.6229C11.4737 25.9014 12.1091 27.0789 13.0444 28.0108C14.0794 28.6834 15.2824 29.0701 16.5253 29.1298C17.7682 29.1895 19.0045 28.9199 20.1025 28.3497C21.2004 27.7795 22.1189 26.9302 22.7601 25.892C23.4013 24.8539 23.7412 23.666 23.7436 22.4547L23.7252 15.0663Z" fill="white"/>
<path fill-rule="evenodd" clip-rule="evenodd" d="M28.9145 13.8307V13.0608C27.9411 13.0649 26.9865 12.8 26.1616 12.2969C26.8898 13.0783 27.8535 13.6152 28.9145 13.8307ZM23.7887 8.88326C23.7887 8.74599 23.7458 8.60276 23.7274 8.4655V8H19.9873V22.4544C19.9841 23.2638 19.6511 24.0388 19.0614 24.6094C18.4717 25.18 17.6735 25.4996 16.8419 25.4981C16.3523 25.5004 15.8691 25.39 15.4317 25.1758C15.83 25.6844 16.382 26.0589 17.0101 26.2466C17.6382 26.4344 18.3109 26.4259 18.9338 26.2225C19.5567 26.0191 20.0986 25.6309 20.4833 25.1124C20.868 24.5939 21.0762 23.9712 21.0787 23.3317V8.88326H23.7887ZM17.7984 16.6416V15.824C16.2594 15.6205 14.6949 15.9304 13.36 16.7031C12.0251 17.4759 10.9984 18.6659 10.4472 20.0793C9.89613 21.4927 9.85308 23.0462 10.3251 24.4864C10.7972 25.9267 11.7564 27.1689 13.0467 28.0106C12.1184 27.0764 11.4898 25.8994 11.2376 24.6232C10.9854 23.347 11.1205 22.027 11.6265 20.8244C12.1324 19.6217 12.9872 18.5885 14.0866 17.851C15.1859 17.1135 16.4821 16.7036 17.8168 16.6714L17.7984 16.6416Z" fill="#181818"/>
<path d="M39 20C39 30.4934 30.4934 39 20 39C9.50659 39 1 30.4934 1 20C1 9.50659 9.50659 1 20 1C30.4934 1 39 9.50659 39 20Z" stroke="url(#paint0_linear_1379_411)" stroke-width="2"/>
<defs>
<linearGradient id="paint0_linear_1379_411" x1="20" y1="0" x2="20" y2="40" gradientUnits="userSpaceOnUse">
<stop stop-color="#181818"/>
<stop offset="1" stop-color="#181818"/>
</linearGradient>
</defs>
</svg>
