<svg width="40" height="40" viewBox="0 0 40 40" fill="none" xmlns="http://www.w3.org/2000/svg">
<path d="M39 20C39 30.4934 30.4934 39 20 39C9.50659 39 1 30.4934 1 20C1 9.50659 9.50659 1 20 1C30.4934 1 39 9.50659 39 20Z" stroke="#181818" stroke-width="2"/>
<path d="M31.0489 13.1481C30.3551 13.4606 29.5896 13.6527 28.8442 13.776C29.1997 13.7158 29.7187 13.0736 29.928 12.8156C30.2462 12.4199 30.5099 11.9669 30.659 11.4796C30.679 11.4423 30.6934 11.3936 30.6532 11.3649C30.6045 11.3448 30.573 11.3563 30.5357 11.3735C29.7014 11.8207 28.8385 12.1447 27.9211 12.3741C27.8437 12.3941 27.7892 12.3741 27.7404 12.3253C27.663 12.2393 27.5913 12.159 27.511 12.0902C27.124 11.7605 26.7112 11.5054 26.2439 11.3133C25.6303 11.0638 24.9623 10.9578 24.3001 11.0008C23.6579 11.0438 23.0271 11.2244 22.4566 11.5226C21.8861 11.8207 21.3758 12.2364 20.9687 12.7382C20.5501 13.2571 20.2376 13.8678 20.0799 14.5157C19.9279 15.1407 19.9394 15.76 20.034 16.3936C20.0484 16.4996 20.0397 16.514 19.9423 16.4996C16.35 15.9664 13.3711 14.6791 10.9543 11.9239C10.8482 11.8035 10.7938 11.8035 10.7078 11.9325C9.64985 13.518 10.163 16.0667 11.4847 17.3167C11.6596 17.483 11.8431 17.6493 12.038 17.8041C11.9663 17.8184 11.0862 17.7238 10.3035 17.3167C10.1974 17.2508 10.1458 17.288 10.1372 17.4085C10.1286 17.5805 10.1429 17.7382 10.1659 17.9245C10.3694 19.5329 11.4818 21.018 13.0071 21.5971C13.1877 21.6745 13.3884 21.7405 13.5833 21.772C13.2364 21.8494 12.878 21.9039 11.8832 21.8236C11.7599 21.8007 11.7112 21.8609 11.7599 21.9813C12.5082 24.0226 14.1252 24.6275 15.335 24.9744C15.4956 25.0031 15.659 25.0031 15.8224 25.0403C15.8138 25.0547 15.8024 25.0547 15.7938 25.069C15.3924 25.6797 14.0019 26.1355 13.354 26.362C12.1756 26.7749 10.8913 26.9583 9.647 26.8351C9.44917 26.8064 9.40616 26.8093 9.35169 26.8351C9.29722 26.8695 9.34594 26.9154 9.40901 26.967C9.66131 27.1332 9.91932 27.2823 10.1802 27.4257C10.9715 27.8442 11.7972 28.1797 12.6573 28.4176C17.1097 29.6476 22.1269 28.7445 25.4698 25.4217C28.0959 22.8127 29.0162 19.2147 29.0162 15.6137C29.0162 15.4733 29.1825 15.3958 29.2829 15.3213C29.9652 14.8081 30.5156 14.1946 31.026 13.5094C31.1406 13.3546 31.1407 13.2169 31.1407 13.1625V13.1424C31.1407 13.0851 31.1407 13.1023 31.0518 13.1424L31.0489 13.1481Z" fill="#181818"/>
</svg>
