<svg width="40" height="40" viewBox="0 0 40 40" fill="none" xmlns="http://www.w3.org/2000/svg">
<path d="M32.9879 15.627C32.8767 17.8777 31.1769 20.9596 27.8894 24.8712C24.4904 28.9572 21.6146 31 19.2621 31C17.8053 31 16.5716 29.7561 15.5645 27.2675C14.8915 24.9863 14.2193 22.7054 13.5465 20.4242C12.7983 17.937 11.996 16.6918 11.1383 16.6918C10.9513 16.6918 10.2968 17.0557 9.17626 17.7808L8 16.3793C9.23376 15.3766 10.451 14.3741 11.6485 13.3703C13.294 12.0551 14.5293 11.3635 15.3525 11.2936C17.2983 11.1207 18.4958 12.3507 18.9453 14.9838C19.4311 17.8246 19.7671 19.5916 19.9561 20.2832C20.5168 22.6401 21.1338 23.817 21.8081 23.817C22.3313 23.817 23.1173 23.0527 24.1654 21.5241C25.2124 19.995 25.7731 18.8317 25.8489 18.0325C25.9979 16.713 25.4369 16.0516 24.1654 16.0516C23.5669 16.0516 22.9498 16.179 22.3151 16.4308C23.5436 12.7086 25.8911 10.901 29.3561 11.0042C31.9249 11.0739 33.1359 12.6147 32.9879 15.627Z" fill="#181818"/>
<path d="M39 20C39 30.4934 30.4934 39 20 39C9.50659 39 1 30.4934 1 20C1 9.50659 9.50659 1 20 1C30.4934 1 39 9.50659 39 20Z" stroke="#181818" stroke-width="2"/>
</svg>
