<svg width="40" height="40" viewBox="0 0 40 40" fill="none" xmlns="http://www.w3.org/2000/svg">
<path d="M9 31L10.6515 24.8696C9.31961 22.4815 8.89645 19.6948 9.45969 17.0209C10.0229 14.3469 11.5348 11.9651 13.7179 10.3124C15.9009 8.65979 18.6087 7.84719 21.3444 8.02374C24.0801 8.20029 26.6602 9.35416 28.6112 11.2736C30.5621 13.193 31.7532 15.7493 31.9657 18.4733C32.1782 21.1974 31.398 23.9064 29.7682 26.1033C28.1384 28.3003 25.7683 29.8378 23.0929 30.4337C20.4175 31.0296 17.6161 30.644 15.203 29.3475L9 31ZM15.5021 27.0535L15.8857 27.2803C17.6336 28.3128 19.6751 28.7401 21.6921 28.4956C23.7091 28.251 25.5883 27.3483 27.0368 25.9282C28.4853 24.5081 29.4218 22.6503 29.7003 20.6444C29.9788 18.6384 29.5837 16.597 28.5765 14.8382C27.5694 13.0794 26.0067 11.7021 24.1322 10.9208C22.2576 10.1396 20.1764 9.99831 18.2128 10.519C16.2493 11.0397 14.5137 12.1932 13.2766 13.7996C12.0394 15.406 11.3702 17.3752 11.3733 19.4002C11.3716 21.0793 11.8376 22.726 12.7192 24.1568L12.9598 24.5521L12.0365 27.9737L15.5021 27.0535Z" fill="#181818"/>
<path fill-rule="evenodd" clip-rule="evenodd" d="M24.8126 20.9744C24.5877 20.7936 24.3244 20.6664 24.0427 20.6023C23.761 20.5383 23.4684 20.5392 23.1871 20.605C22.7645 20.78 22.4914 21.441 22.2183 21.7715C22.1607 21.8507 22.0761 21.9062 21.9803 21.9277C21.8846 21.9492 21.7842 21.9351 21.6981 21.8881C20.1509 21.2841 18.8539 20.1765 18.018 18.7451C17.9467 18.6558 17.9129 18.5424 17.9238 18.4288C17.9347 18.3152 17.9895 18.2102 18.0765 18.136C18.3811 17.8355 18.6047 17.4633 18.7267 17.0538C18.7538 16.6021 18.6499 16.1522 18.4276 15.7577C18.2557 15.2047 17.9285 14.7122 17.4848 14.3385C17.2559 14.2359 17.0021 14.2015 16.7541 14.2395C16.506 14.2774 16.2743 14.3861 16.0868 14.5524C15.7614 14.8322 15.5031 15.1813 15.3309 15.5738C15.1587 15.9663 15.0771 16.3924 15.092 16.8205C15.093 17.0609 15.1236 17.3003 15.183 17.5333C15.334 18.0932 15.5662 18.628 15.8723 19.121C16.0931 19.4986 16.334 19.8642 16.594 20.2162C17.439 21.3723 18.5011 22.3538 19.7215 23.1064C20.3339 23.4888 20.9884 23.7998 21.6721 24.0331C22.3824 24.354 23.1665 24.4771 23.9414 24.3895C24.3828 24.3229 24.8011 24.1492 25.1594 23.8836C25.5177 23.6181 25.805 23.2688 25.996 22.8666C26.1083 22.6237 26.1423 22.352 26.0935 22.089C25.9765 21.5511 25.2548 21.2336 24.8126 20.9744Z" fill="#181818"/>
<path d="M39 20C39 30.4934 30.4934 39 20 39C9.50659 39 1 30.4934 1 20C1 9.50659 9.50659 1 20 1C30.4934 1 39 9.50659 39 20Z" stroke="#181818" stroke-width="2"/>
</svg>
