<svg width="40" height="40" viewBox="0 0 40 40" fill="none" xmlns="http://www.w3.org/2000/svg">
<path d="M16.9272 23.4048L18.146 23.1278C18.1714 23.1221 18.2145 23.1124 18.2654 23.0961C18.602 23.0074 18.8905 22.7939 19.07 22.5004C19.2495 22.2069 19.306 21.8564 19.2277 21.5228L19.2228 21.5017C19.1825 21.3418 19.1121 21.1908 19.0153 21.0564C18.8788 20.8862 18.7099 20.7438 18.5179 20.6371C18.292 20.5106 18.0556 20.4032 17.8112 20.3159L16.4749 19.8361C15.725 19.562 14.9752 19.2956 14.2175 19.035C13.727 18.8638 13.311 18.7128 12.9497 18.6022C12.881 18.5835 12.8128 18.563 12.7451 18.5407C12.3085 18.4099 12.0012 18.3551 11.7417 18.3532C11.5683 18.3468 11.3956 18.3777 11.2356 18.4436C11.0684 18.5147 10.9184 18.6195 10.7951 18.7513C10.734 18.8195 10.6764 18.8907 10.6228 18.9648C10.5185 19.1222 10.4325 19.2906 10.3663 19.4668C10.1181 20.1871 9.99431 20.9431 10.0002 21.7036C10.0051 22.3902 10.0237 23.2721 10.4084 23.8702C10.5014 24.0241 10.6257 24.1568 10.7736 24.2597C11.0477 24.4453 11.3237 24.4703 11.6125 24.4905C12.0432 24.5203 12.4593 24.4174 12.8753 24.3222L16.9242 23.4038L16.9272 23.4048ZM30.5246 17.0491C30.1919 16.3631 29.7446 15.7367 29.2011 15.196C29.1309 15.1272 29.0556 15.0636 28.976 15.0056C28.9023 14.9514 28.8259 14.901 28.7469 14.8546C28.6656 14.8108 28.5819 14.7714 28.4963 14.7363C28.3273 14.6711 28.1461 14.6416 27.9647 14.6498C27.7914 14.6594 27.6221 14.7075 27.4684 14.7873C27.2364 14.9008 26.9848 15.0835 26.65 15.3883C26.604 15.4335 26.5462 15.4845 26.4934 15.5326C26.2183 15.7874 25.9109 16.1019 25.5458 16.4673C24.9809 17.028 24.4258 17.5915 23.8727 18.1599L22.884 19.1677C22.7035 19.3515 22.5391 19.55 22.3926 19.761C22.2672 19.9396 22.1784 20.1405 22.1312 20.3525C22.1047 20.5153 22.1087 20.6815 22.143 20.8429L22.1479 20.8641C22.226 21.1973 22.4327 21.4878 22.7245 21.6744C23.0163 21.8609 23.3704 21.929 23.7122 21.8642C23.7534 21.8585 23.7942 21.8508 23.8346 21.8411L29.1032 20.6448C29.5193 20.5506 29.9402 20.464 30.3132 20.2505C30.5638 20.1092 30.8017 19.9678 30.9652 19.6831C31.0522 19.5264 31.1049 19.3534 31.1198 19.1754C31.2011 18.4695 30.8261 17.6685 30.5246 17.0491V17.0491ZM21.0926 19.2254C21.4743 18.7542 21.4743 18.0522 21.5076 17.4771C21.6231 15.5586 21.7436 13.64 21.8405 11.7205C21.8767 10.9935 21.956 10.2761 21.9119 9.54333C21.8757 8.9394 21.8718 8.24508 21.4832 7.74886C20.7979 6.87374 19.3354 6.94587 18.3378 7.08243C18.0301 7.12418 17.7246 7.18067 17.4225 7.25168C17.119 7.32284 16.8175 7.40074 16.5239 7.49402C15.5665 7.80175 14.2204 8.36721 13.9933 9.45101C13.8641 10.0636 14.1695 10.6896 14.4044 11.2493C14.6913 11.9263 15.0819 12.537 15.4382 13.1746C16.3809 14.8585 17.3403 16.5327 18.2967 18.2079C18.5835 18.708 18.8939 19.3408 19.447 19.6004C19.4842 19.6158 19.5214 19.6293 19.5595 19.6418C19.8072 19.7341 20.0784 19.7514 20.3358 19.6928L20.3819 19.6831C20.6207 19.6187 20.8361 19.4908 21.0054 19.3148C21.0368 19.286 21.0652 19.2571 21.0935 19.2254H21.0926ZM20.6354 24.3617C20.4864 24.1557 20.2749 24.0014 20.0312 23.9208C19.7875 23.8401 19.5241 23.8372 19.2786 23.9126C19.2208 23.9312 19.1646 23.9541 19.1102 23.9808C19.0261 24.023 18.9458 24.0722 18.8704 24.128C18.6549 24.2948 18.4624 24.4884 18.2977 24.704C18.2556 24.7569 18.2164 24.8271 18.1655 24.8733L17.3178 26.0176C16.8381 26.66 16.3633 27.3034 15.8944 27.9564C15.587 28.3785 15.3227 28.7353 15.1122 29.0498C15.0731 29.1094 15.0319 29.1748 14.9947 29.2286C14.7432 29.6095 14.6012 29.8884 14.5278 30.1365C14.4729 30.3013 14.4556 30.4759 14.4769 30.6481C14.5004 30.8269 14.5621 30.9991 14.657 31.1539C14.7079 31.2308 14.7627 31.3059 14.8215 31.378C14.9483 31.5214 15.0912 31.6505 15.2473 31.7626C15.8327 32.1627 16.4729 32.4502 17.1465 32.6724C17.7074 32.8551 18.2899 32.9647 18.8792 32.9974C18.98 33.0022 19.0808 33.0003 19.1807 32.9917C19.2733 32.9831 19.3654 32.9703 19.4567 32.9532C19.5481 32.9323 19.6383 32.9066 19.7269 32.8763C19.8992 32.8128 20.056 32.7145 20.187 32.5878C20.3114 32.4656 20.4073 32.3185 20.467 32.156C20.5649 31.9155 20.6295 31.6117 20.6726 31.1597C20.6755 31.0952 20.6853 31.0183 20.6922 30.9481C20.7255 30.5731 20.7411 30.1307 20.7646 29.6133C20.8067 28.8161 20.839 28.0227 20.8645 27.2274L20.9193 25.8118C20.932 25.4868 20.9212 25.1252 20.8292 24.8011C20.7888 24.6455 20.7233 24.4971 20.6354 24.3617V24.3617ZM30.2026 26.5764C30.0264 26.385 29.7757 26.1956 29.3803 25.9609C29.3235 25.9292 29.2559 25.8878 29.1943 25.8513C28.8653 25.6561 28.4689 25.4522 28.0058 25.205C27.2941 24.8204 26.5825 24.4472 25.8629 24.076L24.5932 23.4144C24.5277 23.3952 24.4611 23.349 24.3984 23.3192C24.1543 23.1967 23.895 23.1059 23.627 23.049C23.5347 23.0315 23.4411 23.0218 23.3471 23.0201C23.2862 23.0198 23.2254 23.0233 23.165 23.0307C22.9108 23.0693 22.6755 23.1857 22.4927 23.3634C22.3099 23.5411 22.1888 23.771 22.1469 24.0203C22.1283 24.1789 22.1342 24.3395 22.1655 24.4953C22.2272 24.8281 22.3779 25.156 22.5345 25.4435L23.212 26.6927C23.5898 27.3967 23.9716 28.0968 24.3632 28.7949C24.6158 29.2498 24.8262 29.6393 25.023 29.9624C25.0602 30.023 25.1023 30.0884 25.1346 30.1451C25.3744 30.5327 25.5663 30.7769 25.7611 30.9529C25.8909 31.0755 26.0466 31.1684 26.2172 31.225C26.3878 31.2815 26.569 31.3002 26.7479 31.2799C26.841 31.2687 26.9335 31.2527 27.0249 31.2318C27.2122 31.1826 27.3932 31.1125 27.5643 31.0231C28.0796 30.7394 28.5546 30.3902 28.9769 29.9845C29.484 29.4941 29.9324 28.9594 30.2809 28.3478C30.3298 28.2612 30.3709 28.1718 30.4062 28.0785C30.439 27.9931 30.4674 27.9061 30.4914 27.8179C30.5119 27.7275 30.5276 27.6371 30.5383 27.5457C30.5559 27.3662 30.5349 27.185 30.4767 27.0139C30.4192 26.8498 30.3256 26.7 30.2026 26.5754V26.5764Z" fill="#181818"/>
<path d="M39 20C39 30.4934 30.4934 39 20 39C9.50659 39 1 30.4934 1 20C1 9.50659 9.50659 1 20 1C30.4934 1 39 9.50659 39 20Z" stroke="#181818" stroke-width="2"/>
</svg>
