<svg width="40" height="40" viewBox="0 0 40 40" fill="none" xmlns="http://www.w3.org/2000/svg">
<path d="M39 20C39 30.4934 30.4934 39 20 39C9.50659 39 1 30.4934 1 20C1 9.50659 9.50659 1 20 1C30.4934 1 39 9.50659 39 20Z" stroke="#323232" stroke-width="2"/>
<path d="M30.7088 17.1413C30.7088 14.4893 28.5585 12.3391 25.9066 12.3391H13.6244C10.9725 12.3391 8.82227 14.4893 8.82227 17.1413V22.8551C8.82227 25.5071 10.9725 27.6573 13.6244 27.6573H25.9066C28.5585 27.6573 30.7088 25.5071 30.7088 22.8551V17.1413ZM23.4868 20.4268L17.9794 23.1505C17.7643 23.268 17.0304 23.1103 17.0304 22.8666V17.2732C17.0304 17.0237 17.7701 16.8689 17.9851 16.9922L23.2575 19.8592C23.4783 19.9853 23.7104 20.3035 23.4868 20.4268Z" fill="#181818"/>
</svg>
