<svg width="60" height="60" viewBox="0 0 60 60" fill="none" xmlns="http://www.w3.org/2000/svg">
<rect x="0.5" y="0.5" width="59" height="59" rx="14.5" fill="url(#paint0_linear_1343_349)" stroke="#FDFDFD"/>
<g filter="url(#filter0_i_1343_349)">
<path d="M41.6495 47.009C44.1085 46.0589 46.0526 44.1148 47.0028 41.6558C47.4525 40.4909 47.7674 39.1618 47.8528 37.2177C47.873 36.7624 47.8888 36.3801 47.9034 35.9966V23.0076C47.8933 22.7366 47.882 22.4543 47.8674 22.1373C47.782 20.1932 47.4671 18.8574 47.0174 17.6992C46.553 16.4703 45.8379 15.3695 44.9024 14.4553C43.9871 13.5255 42.8796 12.8036 41.6641 12.3471C40.4992 11.8973 39.1702 11.5825 37.2261 11.497C35.2674 11.4037 34.6456 11.3824 29.6791 11.3824C24.7126 11.3824 24.0897 11.4037 22.1388 11.4892C20.1948 11.5746 18.859 11.8895 17.7008 12.3392C16.4719 12.8036 15.3711 13.5187 14.4558 14.4553C13.527 15.3706 12.8052 16.4781 12.3475 17.6925C11.8978 18.8574 11.583 20.1864 11.4975 22.1305C11.4042 24.0892 11.3828 24.711 11.3828 29.6786C11.3828 34.6462 11.4042 35.268 11.4896 37.2189C11.5751 39.163 11.8899 40.4999 12.3408 41.6569C12.8052 42.8859 13.527 43.9866 14.4558 44.9019C15.3711 45.8307 16.4786 46.5537 17.6941 47.0102C18.859 47.4599 20.188 47.7748 22.1321 47.8602C24.0829 47.9468 24.7047 47.9682 29.6723 47.9682C34.64 47.9682 35.2606 47.9468 37.2126 47.8602C39.1567 47.7748 40.4925 47.4599 41.6506 47.0102L41.6495 47.009ZM29.6858 44.6793C24.8037 44.6793 24.2179 44.6579 22.2951 44.5725C20.5085 44.4938 19.5437 44.1935 18.9006 43.9439C18.1079 43.6505 17.386 43.1861 16.7991 42.5789C16.1919 41.9852 15.7264 41.2712 15.434 40.4774C15.1844 39.8342 14.8842 38.8616 14.8055 37.0828C14.72 35.1533 14.6987 34.5743 14.6987 29.6921C14.6987 24.81 14.72 24.2242 14.8055 22.3026C14.8842 20.5159 15.1844 19.5511 15.434 18.908C15.7275 18.1142 16.1919 17.3923 16.8069 16.8065C17.3995 16.1993 18.1146 15.7349 18.9073 15.4414C19.5505 15.1918 20.5231 14.8916 22.3019 14.8129C24.2314 14.7275 24.8104 14.7061 29.6915 14.7061C34.5725 14.7061 35.1594 14.7275 37.0822 14.8129C38.8688 14.8916 39.8336 15.1918 40.4767 15.4414C41.2694 15.7349 41.9913 16.1993 42.5771 16.8065C43.1843 17.4002 43.6498 18.1142 43.9421 18.908C44.1918 19.5511 44.492 20.5226 44.5707 22.3026C44.6561 24.232 44.6775 24.8111 44.6775 29.6921C44.6775 34.5732 44.6561 35.1455 44.5707 37.0749C44.492 38.8616 44.1918 39.8264 43.9421 40.4695C43.3271 42.0639 42.0621 43.3289 40.4689 43.9428C39.8257 44.1924 38.8542 44.4926 37.0743 44.5713C35.1448 44.6568 34.5657 44.6782 29.6847 44.6782L29.6858 44.6793Z" fill="white"/>
<path d="M29.6801 20.2785C24.491 20.2785 20.2812 24.4883 20.2812 29.6774C20.2812 34.8665 24.491 39.0763 29.6801 39.0763C34.8692 39.0763 39.0779 34.8665 39.0779 29.6774C39.0779 24.4883 34.8681 20.2785 29.6801 20.2785V20.2785ZM29.6801 35.7728C26.3137 35.7728 23.5836 33.0427 23.5836 29.6763C23.5836 26.3098 26.3137 23.5797 29.6801 23.5797C33.0466 23.5797 35.7766 26.3098 35.7766 29.6763C35.7766 33.0427 33.0466 35.7728 29.6801 35.7728Z" fill="white"/>
<path d="M41.6425 19.9075C41.6425 18.6954 40.6597 17.7138 39.4476 17.7138C38.2355 17.7138 37.2539 18.6966 37.2539 19.9075C37.2539 21.1185 38.2366 22.1013 39.4476 22.1013C40.6586 22.1013 41.6425 21.1196 41.6425 19.9075Z" fill="white"/>
</g>
<defs>
<filter id="filter0_i_1343_349" x="11.3828" y="11.3824" width="36.5215" height="37.0858" filterUnits="userSpaceOnUse" color-interpolation-filters="sRGB">
<feFlood flood-opacity="0" result="BackgroundImageFix"/>
<feBlend mode="normal" in="SourceGraphic" in2="BackgroundImageFix" result="shape"/>
<feColorMatrix in="SourceAlpha" type="matrix" values="0 0 0 0 0 0 0 0 0 0 0 0 0 0 0 0 0 0 127 0" result="hardAlpha"/>
<feOffset dy="0.5"/>
<feGaussianBlur stdDeviation="1.25"/>
<feComposite in2="hardAlpha" operator="arithmetic" k2="-1" k3="1"/>
<feColorMatrix type="matrix" values="0 0 0 0 0 0 0 0 0 0 0 0 0 0 0 0 0 0 0.1 0"/>
<feBlend mode="normal" in2="shape" result="effect1_innerShadow_1343_349"/>
</filter>
<linearGradient id="paint0_linear_1343_349" x1="30" y1="-1.86953" x2="30" y2="63.1444" gradientUnits="userSpaceOnUse">
<stop stop-color="#FCA759"/>
<stop offset="0.19" stop-color="#E82D56"/>
<stop offset="0.74" stop-color="#A22DB4"/>
<stop offset="1" stop-color="#643DCE"/>
</linearGradient>
</defs>
</svg>
