<svg width="60" height="60" viewBox="0 0 60 60" fill="none" xmlns="http://www.w3.org/2000/svg">
<rect x="0.5" y="0.5" width="59" height="59" rx="14.5" fill="url(#paint0_linear_1343_345)" stroke="white"/>
<g filter="url(#filter0_i_1343_345)">
<path d="M20.8918 44.4367V24.328H14.2139V44.4367H20.8925H20.8918ZM17.5543 21.583C19.8825 21.583 21.332 20.0388 21.332 18.1091C21.2884 16.1354 19.8825 14.6344 17.5986 14.6344C15.313 14.6344 13.8203 16.1355 13.8203 18.109C13.8203 20.0387 15.2693 21.5828 17.5105 21.5828H17.5538L17.5543 21.583ZM24.5881 44.4367H31.2655V33.2083C31.2655 32.6081 31.3091 32.0063 31.4855 31.5777C31.968 30.3764 33.0668 29.1329 34.912 29.1329C37.3277 29.1329 38.2947 30.9768 38.2947 33.6803V44.4367H44.9719V32.907C44.9719 26.7307 41.6779 23.8566 37.2845 23.8566C33.6825 23.8566 32.1005 25.8716 31.2216 27.244H31.2661V24.3287H24.5885C24.6757 26.2151 24.588 44.4374 24.588 44.4374L24.5881 44.4367Z" fill="white"/>
</g>
<defs>
<filter id="filter0_i_1343_345" x="11.3809" y="11.3824" width="36.5859" height="37.0858" filterUnits="userSpaceOnUse" color-interpolation-filters="sRGB">
<feFlood flood-opacity="0" result="BackgroundImageFix"/>
<feBlend mode="normal" in="SourceGraphic" in2="BackgroundImageFix" result="shape"/>
<feColorMatrix in="SourceAlpha" type="matrix" values="0 0 0 0 0 0 0 0 0 0 0 0 0 0 0 0 0 0 127 0" result="hardAlpha"/>
<feOffset dy="0.5"/>
<feGaussianBlur stdDeviation="1.25"/>
<feComposite in2="hardAlpha" operator="arithmetic" k2="-1" k3="1"/>
<feColorMatrix type="matrix" values="0 0 0 0 0 0 0 0 0 0 0 0 0 0 0 0 0 0 0.1 0"/>
<feBlend mode="normal" in2="shape" result="effect1_innerShadow_1343_345"/>
</filter>
<linearGradient id="paint0_linear_1343_345" x1="34.1467" y1="61.7893" x2="6.09763" y2="-1.28487e-06" gradientUnits="userSpaceOnUse">
<stop stop-color="#006699"/>
<stop offset="1" stop-color="#058CCF"/>
</linearGradient>
</defs>
</svg>
