<svg width="60" height="60" viewBox="0 0 60 60" fill="none" xmlns="http://www.w3.org/2000/svg">
<rect x="0.5" y="0.5" width="59" height="59" rx="14.5" fill="#FBFBFB" stroke="white"/>
<path d="M21.8281 50.5242L22.602 45.6086L20.8781 45.5686H12.6465L18.3671 9.2964C18.3848 9.18691 18.4425 9.08481 18.5269 9.0123C18.6112 8.93979 18.7192 8.89984 18.8317 8.89984H32.7114C37.3192 8.89984 40.4991 9.8587 42.1594 11.7512C42.9377 12.6391 43.4334 13.5669 43.6731 14.5879C43.9247 15.6592 43.9291 16.9391 43.6835 18.5002L43.6657 18.6142V19.6144L44.444 20.0554C45.0996 20.4031 45.6204 20.8012 46.0199 21.2569C46.6858 22.016 47.1164 22.9808 47.2984 24.1246C47.4863 25.301 47.4242 26.7008 47.1164 28.2856C46.7613 30.1086 46.1872 31.6963 45.4118 32.9955C44.6986 34.1926 43.79 35.1855 42.7113 35.9549C41.6814 36.6859 40.4577 37.2408 39.0742 37.5959C37.7335 37.9451 36.205 38.1212 34.5285 38.1212H33.4483C32.6759 38.1212 31.9257 38.3994 31.3367 38.8981C30.7463 39.4071 30.3557 40.1026 30.2358 40.8631L30.1545 41.3056L28.7872 49.9693L28.7251 50.2874C28.7088 50.388 28.6807 50.4384 28.6392 50.4724C28.6022 50.5035 28.549 50.5242 28.4972 50.5242H21.8281Z" fill="#253B80"/>
<path d="M45.1799 18.7296C45.1385 18.9945 45.0911 19.2652 45.0378 19.5434C43.2074 28.9411 36.9453 32.1876 28.9474 32.1876H24.8753C23.8972 32.1876 23.073 32.8978 22.9206 33.8626L20.8357 47.0853L20.2452 50.8334C20.1461 51.4668 20.6344 52.0379 21.2736 52.0379H28.4961C29.3514 52.0379 30.0779 51.4165 30.2126 50.573L30.2836 50.206L31.6435 41.5764L31.7308 41.1029C31.864 40.2565 32.592 39.635 33.4473 39.635H34.5274C41.525 39.635 47.0029 36.7939 48.604 28.5726C49.2728 25.1382 48.9265 22.2705 47.1568 20.2537C46.6211 19.6455 45.9567 19.1409 45.1799 18.7296Z" fill="#179BD7"/>
<path d="M43.2665 17.966C42.9868 17.8847 42.6982 17.8107 42.4023 17.7441C42.1049 17.679 41.8001 17.6213 41.4864 17.571C40.3884 17.3934 39.1854 17.3091 37.8966 17.3091H27.0177C26.7499 17.3091 26.4954 17.3697 26.2675 17.4792C25.7659 17.7204 25.393 18.1954 25.3027 18.7769L22.9885 33.435L22.9219 33.8626C23.0743 32.8978 23.8985 32.1876 24.8766 32.1876H28.9487C36.9466 32.1876 43.2088 28.9396 45.0392 19.5434C45.0939 19.2652 45.1398 18.9944 45.1812 18.7296C44.7181 18.4839 44.2164 18.2738 43.6763 18.0948C43.5432 18.0504 43.4056 18.0075 43.2665 17.966Z" fill="#222D65"/>
<path d="M25.3021 18.7769C25.3924 18.1954 25.7653 17.7204 26.2669 17.4807C26.4963 17.3712 26.7493 17.3105 27.0171 17.3105H37.896C39.1848 17.3105 40.3878 17.3949 41.4858 17.5724C41.7995 17.6228 42.1043 17.6805 42.4017 17.7456C42.6976 17.8122 42.9862 17.8861 43.2658 17.9675C43.4049 18.009 43.5426 18.0519 43.6772 18.0948C44.2173 18.2738 44.7189 18.4854 45.1821 18.7296C45.7266 15.2567 45.1776 12.8921 43.2999 10.751C41.2298 8.39378 37.4935 7.38461 32.7125 7.38461H18.8328C17.8562 7.38461 17.0231 8.09488 16.8722 9.06113L11.091 45.7062C10.977 46.4313 11.5363 47.0853 12.2673 47.0853H20.8363L22.9879 33.435L25.3021 18.7769Z" fill="#253B80"/>
</svg>
