<svg width="60" height="60" viewBox="0 0 60 60" fill="none" xmlns="http://www.w3.org/2000/svg">
<rect x="0.5" y="0.5" width="59" height="59" rx="14.5" fill="url(#paint0_linear_1343_347)" stroke="white"/>
<g filter="url(#filter0_i_1343_347)">
<path fill-rule="evenodd" clip-rule="evenodd" d="M36.7532 25.5727C38.9281 27.1203 41.5327 27.9471 44.2012 27.937V22.6439C43.6766 22.6453 43.1534 22.5891 42.6411 22.4762V26.6931C39.9666 26.6979 37.3582 25.8616 35.1843 24.3024V35.1887C35.1777 36.975 34.6883 38.7263 33.7679 40.2568C32.8475 41.7873 31.5304 43.04 29.9563 43.882C28.3822 44.724 26.6098 45.1239 24.8271 45.0394C23.0443 44.9549 21.3176 44.3891 19.8301 43.402C21.206 44.7953 22.9641 45.7487 24.8817 46.1414C26.7994 46.534 28.7903 46.3483 30.6024 45.6077C32.4145 44.8671 33.9663 43.6049 35.0612 41.9811C36.1561 40.3572 36.745 38.4446 36.7532 36.4855V25.5727ZM38.6835 20.1737C37.5775 18.9738 36.8989 17.4416 36.7532 15.8156V15.1275H35.2724C35.4555 16.1611 35.8538 17.1445 36.4415 18.0139C37.0292 18.8833 37.7931 19.6192 38.6835 20.1737V20.1737ZM23.2588 39.2115C22.7455 38.5398 22.431 37.7373 22.351 36.8955C22.271 36.0537 22.4287 35.2062 22.8062 34.4497C23.1837 33.6931 23.7657 33.0579 24.4862 32.6161C25.2066 32.1744 26.0365 31.9439 26.8814 31.951C27.3478 31.9509 27.8116 32.0223 28.2564 32.1628V26.6931C27.7364 26.6242 27.2119 26.5947 26.6875 26.6049V30.8571C25.6043 30.5144 24.432 30.5923 23.4036 31.0754C22.3753 31.5584 21.5662 32.4112 21.1375 33.4641C20.7087 34.517 20.6916 35.6928 21.0895 36.7578C21.4875 37.8227 22.2714 38.6987 23.2852 39.2115H23.2588Z" fill="#EE1D52"/>
<path fill-rule="evenodd" clip-rule="evenodd" d="M35.1824 24.2671C37.3564 25.8263 39.9647 26.6626 42.6392 26.6578V22.4409C41.1154 22.1185 39.7312 21.3255 38.6816 20.1737C37.7912 19.6192 37.0273 18.8833 36.4396 18.0139C35.8519 17.1445 35.4536 16.1611 35.2706 15.1275H31.3747V36.4855C31.3711 37.4309 31.0718 38.3514 30.5188 39.1178C29.9658 39.8842 29.1868 40.4581 28.2914 40.7588C27.3959 41.0595 26.4288 41.072 25.5258 40.7945C24.6229 40.517 23.8295 39.9634 23.2569 39.2115C22.3495 38.7533 21.6228 38.0024 21.1941 37.0801C20.7654 36.1578 20.6596 35.1178 20.8939 34.1279C21.1281 33.1381 21.6888 32.256 22.4853 31.6242C23.2818 30.9924 24.2678 30.6475 25.2842 30.6454C25.7505 30.6469 26.214 30.7182 26.6592 30.8571V26.6049C24.7356 26.6511 22.8673 27.2585 21.2837 28.3525C19.7001 29.4464 18.4701 30.9794 17.7447 32.7632C17.0193 34.5469 16.83 36.5039 17.2001 38.3938C17.5703 40.2837 18.4837 42.0243 19.8282 43.402C21.316 44.3962 23.0454 44.9678 24.8322 45.056C26.619 45.1443 28.3962 44.7457 29.9746 43.9029C31.553 43.06 32.8733 41.8044 33.7951 40.2699C34.7169 38.7353 35.2055 36.9792 35.2089 35.1887L35.1824 24.2671Z" fill="white"/>
<path fill-rule="evenodd" clip-rule="evenodd" d="M42.6399 22.4405V21.3024C41.2406 21.3084 39.8683 20.9168 38.6824 20.1732C39.7293 21.3283 41.1146 22.122 42.6399 22.4405V22.4405ZM35.2713 15.1271C35.2713 14.9242 35.2096 14.7124 35.1832 14.5095V13.8214H29.8066V35.1882C29.8019 36.3846 29.3232 37.5303 28.4754 38.3738C27.6277 39.2174 26.4803 39.6898 25.2849 39.6874C24.5811 39.691 23.8864 39.5277 23.2577 39.211C23.8302 39.9629 24.6237 40.5165 25.5266 40.794C26.4295 41.0715 27.3966 41.059 28.2921 40.7583C29.1876 40.4576 29.9665 39.8838 30.5195 39.1174C31.0725 38.3509 31.3718 37.4304 31.3755 36.4851V15.1271H35.2713ZM26.6599 26.5956V25.387C24.4475 25.0862 22.1984 25.5443 20.2794 26.6865C18.3603 27.8288 16.8844 29.588 16.0922 31.6773C15.2999 33.7667 15.238 36.063 15.9166 38.192C16.5952 40.3211 17.9742 42.1573 19.829 43.4015C18.4946 42.0206 17.5909 40.2807 17.2284 38.3942C16.8658 36.5078 17.06 34.5565 17.7873 32.7787C18.5146 31.0009 19.7435 29.4736 21.3239 28.3834C22.9042 27.2932 24.7676 26.6873 26.6863 26.6397L26.6599 26.5956Z" fill="#69C9D0"/>
</g>
<defs>
<filter id="filter0_i_1343_347" x="11.3828" y="11.3824" width="36.5859" height="37.0858" filterUnits="userSpaceOnUse" color-interpolation-filters="sRGB">
<feFlood flood-opacity="0" result="BackgroundImageFix"/>
<feBlend mode="normal" in="SourceGraphic" in2="BackgroundImageFix" result="shape"/>
<feColorMatrix in="SourceAlpha" type="matrix" values="0 0 0 0 0 0 0 0 0 0 0 0 0 0 0 0 0 0 127 0" result="hardAlpha"/>
<feOffset dy="0.5"/>
<feGaussianBlur stdDeviation="1.25"/>
<feComposite in2="hardAlpha" operator="arithmetic" k2="-1" k3="1"/>
<feColorMatrix type="matrix" values="0 0 0 0 0 0 0 0 0 0 0 0 0 0 0 0 0 0 0.1 0"/>
<feBlend mode="normal" in2="shape" result="effect1_innerShadow_1343_347"/>
</filter>
<linearGradient id="paint0_linear_1343_347" x1="1.21953" y1="4.19307e-07" x2="52.8462" y2="64.6349" gradientUnits="userSpaceOnUse">
<stop/>
<stop offset="1" stop-color="#323232"/>
</linearGradient>
</defs>
</svg>
