<svg width="60" height="60" viewBox="0 0 60 60" fill="none" xmlns="http://www.w3.org/2000/svg">
<rect x="0.5" y="0.5" width="59" height="59" rx="14.5" fill="url(#paint0_linear_1343_348)" stroke="white"/>
<g clip-path="url(#clip0_1343_348)" filter="url(#filter0_i_1343_348)">
<path d="M47.8059 18.2605C46.6224 18.7703 45.3783 19.1253 44.1041 19.3167C44.6998 19.2145 45.5763 18.1413 45.9252 17.7069C46.4553 17.0517 46.8592 16.3037 47.1166 15.5009C47.1166 15.4413 47.1762 15.3561 47.1166 15.3135C47.0866 15.2971 47.0529 15.2885 47.0187 15.2885C46.9845 15.2885 46.9509 15.2971 46.9209 15.3135C45.5373 16.0634 44.0649 16.6358 42.5383 17.017C42.4851 17.0333 42.4285 17.0347 42.3745 17.0212C42.3205 17.0077 42.2713 16.9798 42.232 16.9403C42.1131 16.7987 41.9852 16.665 41.849 16.54C41.2264 15.9817 40.5199 15.5247 39.7556 15.1858C38.7238 14.7621 37.6093 14.5786 36.4963 14.6492C35.4164 14.7174 34.362 15.0074 33.3987 15.5009C32.4502 16.0213 31.6166 16.7282 30.9479 17.5792C30.2446 18.455 29.7368 19.4715 29.4587 20.5602C29.2294 21.5958 29.2034 22.6662 29.3821 23.7117C29.3821 23.8905 29.3821 23.9161 29.2289 23.8905C23.1614 22.9962 18.1832 20.8413 14.1155 16.2164C13.9368 16.012 13.8432 16.012 13.6985 16.2164C11.9284 18.9079 12.7879 23.1666 15.0005 25.2704C15.2983 25.5514 15.6047 25.824 15.9281 26.0795C14.9136 26.0074 13.924 25.7323 13.0177 25.2704C12.8475 25.1596 12.7539 25.2193 12.7454 25.4237C12.7213 25.7071 12.7213 25.992 12.7454 26.2754C12.9229 27.6336 13.4577 28.9202 14.295 30.0037C15.1323 31.0872 16.2421 31.9286 17.5109 32.442C17.8202 32.5746 18.1425 32.6745 18.4725 32.7401C17.5334 32.9252 16.5702 32.954 15.6217 32.8253C15.4175 32.7827 15.3409 32.8934 15.4175 33.0893C16.6684 36.4963 19.3831 37.5354 21.3744 38.1146C21.6467 38.1572 21.919 38.1572 22.2253 38.2253C22.2253 38.2253 22.2253 38.2253 22.1743 38.2764C21.5871 39.3496 19.2129 40.0736 18.1236 40.4484C16.1354 41.1631 14.0157 41.4363 11.9114 41.249C11.5795 41.1979 11.5029 41.2064 11.4179 41.249C11.3328 41.2916 11.4179 41.3853 11.5115 41.4705C11.937 41.7515 12.3624 41.9985 12.805 42.237C14.1223 42.9562 15.515 43.5275 16.9578 43.9405C24.4294 46.0017 32.8371 44.4856 38.4451 38.9067C42.8532 34.5288 44.402 28.4899 44.402 22.4426C44.402 22.2126 44.6828 22.0763 44.8445 21.9571C45.9597 21.0874 46.9429 20.0603 47.7633 18.9079C47.9054 18.7361 47.9783 18.5174 47.9676 18.2946C47.9676 18.1669 47.9676 18.1924 47.8059 18.2605Z" fill="white"/>
</g>
<defs>
<filter id="filter0_i_1343_348" x="11.3828" y="11.3824" width="36.5859" height="37.0858" filterUnits="userSpaceOnUse" color-interpolation-filters="sRGB">
<feFlood flood-opacity="0" result="BackgroundImageFix"/>
<feBlend mode="normal" in="SourceGraphic" in2="BackgroundImageFix" result="shape"/>
<feColorMatrix in="SourceAlpha" type="matrix" values="0 0 0 0 0 0 0 0 0 0 0 0 0 0 0 0 0 0 127 0" result="hardAlpha"/>
<feOffset dy="0.5"/>
<feGaussianBlur stdDeviation="1.25"/>
<feComposite in2="hardAlpha" operator="arithmetic" k2="-1" k3="1"/>
<feColorMatrix type="matrix" values="0 0 0 0 0 0 0 0 0 0 0 0 0 0 0 0 0 0 0.1 0"/>
<feBlend mode="normal" in2="shape" result="effect1_innerShadow_1343_348"/>
</filter>
<linearGradient id="paint0_linear_1343_348" x1="1.21953" y1="4.19307e-07" x2="52.8462" y2="64.6349" gradientUnits="userSpaceOnUse">
<stop stop-color="#0CA8F7"/>
<stop offset="1" stop-color="#0096E1"/>
</linearGradient>
<clipPath id="clip0_1343_348">
<rect width="36.5858" height="36.5858" fill="white" transform="translate(11.3828 11.3824)"/>
</clipPath>
</defs>
</svg>
