<svg width="134" height="115" viewBox="0 0 134 115" fill="none" xmlns="http://www.w3.org/2000/svg">
<g filter="url(#filter0_d_1404_280)">
<rect x="11" y="10.5902" width="112" height="94.5574" rx="15" fill="black"/>
<rect x="11.5" y="11.0902" width="111" height="93.5574" rx="14.5" stroke="#989898"/>
</g>
<rect x="30.5" y="26.6968" width="29" height="26.541" rx="5.5" fill="#0C86EE" stroke="white"/>
<g filter="url(#filter1_i_1404_280)">
<g clip-path="url(#clip0_1404_280)">
<g filter="url(#filter2_i_1404_280)">
<path d="M50.2018 41.726L50.8478 37.8985H46.8689V35.4107C46.8689 34.3642 47.4244 33.3415 49.2007 33.3415H51.0351V30.0822C49.9668 29.9234 48.8874 29.8374 47.8055 29.8251C44.5307 29.8251 42.3927 31.661 42.3927 34.9801V37.8985H38.7627V41.726H42.3927V50.9835H46.8689V41.726H50.2018Z" fill="white"/>
</g>
</g>
</g>
<rect x="74.5" y="63.418" width="29" height="26.541" rx="5.5" fill="url(#paint0_linear_1404_280)" stroke="white"/>
<g filter="url(#filter3_i_1404_280)">
<path d="M84.4459 83.3152V74.085H81.107V83.3152H84.4463H84.4459ZM82.7771 72.825C83.9413 72.825 84.666 72.1162 84.666 71.2304C84.6442 70.3245 83.9413 69.6355 82.7993 69.6355C81.6565 69.6355 80.9102 70.3245 80.9102 71.2304C80.9102 72.1161 81.6346 72.8249 82.7553 72.8249H82.7769L82.7771 72.825ZM86.2941 83.3152H89.6328V78.1612C89.6328 77.8857 89.6546 77.6095 89.7428 77.4127C89.984 76.8613 90.5334 76.2905 91.456 76.2905C92.6639 76.2905 93.1474 77.1369 93.1474 78.3779V83.3152H96.486V78.0229C96.486 75.1879 94.839 73.8686 92.6423 73.8686C90.8413 73.8686 90.0503 74.7935 89.6108 75.4235H89.633V74.0853H86.2942C86.3378 74.9512 86.294 83.3156 86.294 83.3156L86.2941 83.3152Z" fill="white"/>
</g>
<rect x="30.5" y="63.418" width="29" height="26.541" rx="5.5" fill="url(#paint1_linear_1404_280)" stroke="white"/>
<g filter="url(#filter4_d_1404_280)">
<path fill-rule="evenodd" clip-rule="evenodd" d="M35.5391 71.1838V68.6703C35.5391 67.5994 36.1563 66.7313 37.3374 66.7313H40.4155C41.5966 66.7313 42.5541 67.5994 42.5541 68.6703V71.7452C42.5541 72.2594 42.3288 72.7526 41.9277 73.1162V73.1162C40.6202 74.3018 40.1399 76.2339 41.23 77.6219C41.9954 78.5965 42.9319 79.453 43.9996 80.1553C45.3656 81.0539 47.132 80.6778 48.3433 79.5796V79.5796C48.7443 79.2159 49.2883 79.0117 49.8554 79.0117H53.2467C54.4278 79.0117 55.3852 79.8798 55.3852 80.9507V82.8897C55.3852 83.9605 54.2314 84.9507 53.0775 85.1626L52.5347 85.2668C52.1619 85.3384 51.783 85.3744 51.4034 85.3744H50.8203H49.8554C41.9339 85.0226 35.5391 78.4536 35.5391 71.1838Z" fill="white"/>
</g>
<g filter="url(#filter5_d_1404_280)">
<rect x="6.75" y="6.75" width="120.5" height="101.5" rx="16.25" stroke="black" stroke-width="1.5" shape-rendering="crispEdges"/>
</g>
<rect x="74.5" y="26.6968" width="29" height="26.541" rx="5.5" fill="url(#paint2_linear_1404_280)" stroke="#FDFDFD"/>
<g filter="url(#filter6_i_1404_280)">
<path d="M94.825 47.7749C94.8249 47.7748 94.8249 47.7746 94.8251 47.7745C96.0545 47.3383 97.0264 46.446 97.5014 45.3174C97.7263 44.7827 97.8837 44.1726 97.9264 43.2803C97.9365 43.0712 97.9444 42.8957 97.9517 42.7198V36.7575C97.9466 36.6332 97.941 36.5036 97.9337 36.3581C97.891 35.4657 97.7336 34.8525 97.5087 34.3209C97.2765 33.7568 96.9189 33.2515 96.4512 32.8319C95.9936 32.4051 95.4398 32.0738 94.832 31.8642C94.2496 31.6578 93.5851 31.5133 92.613 31.474C91.6337 31.4312 91.3228 31.4214 88.8395 31.4214C86.3563 31.4214 86.0448 31.4312 85.0694 31.4704C84.0974 31.5096 83.4295 31.6542 82.8504 31.8606C82.2359 32.0738 81.6855 32.402 81.2279 32.8319C80.7635 33.2521 80.4026 33.7604 80.1738 34.3178C79.9489 34.8525 79.7915 35.4626 79.7488 36.355C79.7021 37.254 79.6914 37.5395 79.6914 39.8197C79.6914 42.0999 79.7021 42.3853 79.7448 43.2808C79.7875 44.1731 79.945 44.7868 80.1704 45.3179C80.4026 45.882 80.7635 46.3873 81.2279 46.8074C81.6855 47.2337 82.2393 47.5656 82.847 47.7751C83.4295 47.9816 84.094 48.1261 85.066 48.1653C86.0415 48.2051 86.3524 48.2149 88.8362 48.2149C91.32 48.2149 91.6303 48.2051 92.6063 48.1653C93.5781 48.1261 94.246 47.9816 94.8249 47.7753C94.8251 47.7752 94.8251 47.775 94.825 47.7749V47.7749ZM88.8426 46.705C88.8427 46.7051 88.8427 46.7052 88.8425 46.7052C86.4018 46.7052 86.1089 46.6954 85.1476 46.6562C84.2542 46.6201 83.7719 46.4823 83.4503 46.3677C83.0539 46.233 82.693 46.0198 82.3995 45.7411C82.0959 45.4686 81.8632 45.1409 81.717 44.7765C81.5922 44.4813 81.4421 44.0348 81.4027 43.2183C81.36 42.3327 81.3493 42.0669 81.3493 39.8259C81.3493 37.5849 81.36 37.316 81.4027 36.4339C81.4421 35.6138 81.5922 35.171 81.717 34.8758C81.8638 34.5114 82.0959 34.18 82.4035 33.9111C82.6997 33.6324 83.0573 33.4193 83.4537 33.2846C83.7752 33.17 84.2615 33.0322 85.1509 32.9961C86.1157 32.9568 86.4052 32.947 88.8457 32.947C91.2862 32.947 91.5797 32.9568 92.5411 32.9961C93.4344 33.0322 93.9168 33.17 94.2384 33.2846C94.6347 33.4193 94.9956 33.6324 95.2886 33.9111C95.5921 34.1837 95.8249 34.5114 95.9711 34.8758C96.0959 35.171 96.246 35.6169 96.2853 36.4339C96.3281 37.3196 96.3387 37.5854 96.3387 39.8259C96.3387 42.0663 96.3281 42.329 96.2853 43.2147C96.246 44.0348 96.0959 44.4777 95.9711 44.7729C95.6635 45.5047 95.0311 46.0854 94.2344 46.3672C93.9128 46.4817 93.4271 46.6195 92.5371 46.6557C91.5725 46.6949 91.2829 46.7047 88.8427 46.7047C88.8426 46.7047 88.8425 46.7049 88.8426 46.705V46.705Z" fill="white"/>
<path d="M88.8391 35.5049C86.2445 35.5049 84.1396 37.4372 84.1396 39.8191C84.1396 42.201 86.2445 44.1334 88.8391 44.1334C91.4336 44.1334 93.538 42.201 93.538 39.8191C93.538 37.4372 91.4331 35.5049 88.8391 35.5049ZM88.8391 42.617C87.1559 42.617 85.7908 41.3639 85.7908 39.8186C85.7908 38.2733 87.1559 37.0202 88.8391 37.0202C90.5223 37.0202 91.8873 38.2733 91.8873 39.8186C91.8873 41.3639 90.5223 42.617 88.8391 42.617Z" fill="white"/>
<path d="M94.8222 35.3346C94.8222 34.7782 94.3308 34.3276 93.7248 34.3276C93.1187 34.3276 92.6279 34.7787 92.6279 35.3346C92.6279 35.8904 93.1193 36.3415 93.7248 36.3415C94.3303 36.3415 94.8222 35.891 94.8222 35.3346Z" fill="white"/>
</g>
<defs>
<filter id="filter0_d_1404_280" x="5" y="4.59021" width="124" height="106.557" filterUnits="userSpaceOnUse" color-interpolation-filters="sRGB">
<feFlood flood-opacity="0" result="BackgroundImageFix"/>
<feColorMatrix in="SourceAlpha" type="matrix" values="0 0 0 0 0 0 0 0 0 0 0 0 0 0 0 0 0 0 127 0" result="hardAlpha"/>
<feMorphology radius="2" operator="dilate" in="SourceAlpha" result="effect1_dropShadow_1404_280"/>
<feOffset/>
<feGaussianBlur stdDeviation="2"/>
<feComposite in2="hardAlpha" operator="out"/>
<feColorMatrix type="matrix" values="0 0 0 0 0 0 0 0 0 0 0 0 0 0 0 0 0 0 0.25 0"/>
<feBlend mode="normal" in2="BackgroundImageFix" result="effect1_dropShadow_1404_280"/>
<feBlend mode="normal" in="SourceGraphic" in2="effect1_dropShadow_1404_280" result="shape"/>
</filter>
<filter id="filter1_i_1404_280" x="33.001" y="29.3442" width="23.5713" height="22.1394" filterUnits="userSpaceOnUse" color-interpolation-filters="sRGB">
<feFlood flood-opacity="0" result="BackgroundImageFix"/>
<feBlend mode="normal" in="SourceGraphic" in2="BackgroundImageFix" result="shape"/>
<feColorMatrix in="SourceAlpha" type="matrix" values="0 0 0 0 0 0 0 0 0 0 0 0 0 0 0 0 0 0 127 0" result="hardAlpha"/>
<feOffset dy="0.5"/>
<feGaussianBlur stdDeviation="1.25"/>
<feComposite in2="hardAlpha" operator="arithmetic" k2="-1" k3="1"/>
<feColorMatrix type="matrix" values="0 0 0 0 0 0 0 0 0 0 0 0 0 0 0 0 0 0 0.1 0"/>
<feBlend mode="normal" in2="shape" result="effect1_innerShadow_1404_280"/>
</filter>
<filter id="filter2_i_1404_280" x="38.7627" y="29.8251" width="12.2725" height="21.6584" filterUnits="userSpaceOnUse" color-interpolation-filters="sRGB">
<feFlood flood-opacity="0" result="BackgroundImageFix"/>
<feBlend mode="normal" in="SourceGraphic" in2="BackgroundImageFix" result="shape"/>
<feColorMatrix in="SourceAlpha" type="matrix" values="0 0 0 0 0 0 0 0 0 0 0 0 0 0 0 0 0 0 127 0" result="hardAlpha"/>
<feOffset dy="0.5"/>
<feGaussianBlur stdDeviation="1"/>
<feComposite in2="hardAlpha" operator="arithmetic" k2="-1" k3="1"/>
<feColorMatrix type="matrix" values="0 0 0 0 0 0 0 0 0 0 0 0 0 0 0 0 0 0 0.2 0"/>
<feBlend mode="normal" in2="shape" result="effect1_innerShadow_1404_280"/>
</filter>
<filter id="filter3_i_1404_280" x="79.6904" y="68.1427" width="18.293" height="17.2935" filterUnits="userSpaceOnUse" color-interpolation-filters="sRGB">
<feFlood flood-opacity="0" result="BackgroundImageFix"/>
<feBlend mode="normal" in="SourceGraphic" in2="BackgroundImageFix" result="shape"/>
<feColorMatrix in="SourceAlpha" type="matrix" values="0 0 0 0 0 0 0 0 0 0 0 0 0 0 0 0 0 0 127 0" result="hardAlpha"/>
<feOffset dy="0.5"/>
<feGaussianBlur stdDeviation="1.25"/>
<feComposite in2="hardAlpha" operator="arithmetic" k2="-1" k3="1"/>
<feColorMatrix type="matrix" values="0 0 0 0 0 0 0 0 0 0 0 0 0 0 0 0 0 0 0.1 0"/>
<feBlend mode="normal" in2="shape" result="effect1_innerShadow_1404_280"/>
</filter>
<filter id="filter4_d_1404_280" x="33.5391" y="65.7313" width="23.8457" height="22.6431" filterUnits="userSpaceOnUse" color-interpolation-filters="sRGB">
<feFlood flood-opacity="0" result="BackgroundImageFix"/>
<feColorMatrix in="SourceAlpha" type="matrix" values="0 0 0 0 0 0 0 0 0 0 0 0 0 0 0 0 0 0 127 0" result="hardAlpha"/>
<feOffset dy="1"/>
<feGaussianBlur stdDeviation="1"/>
<feComposite in2="hardAlpha" operator="out"/>
<feColorMatrix type="matrix" values="0 0 0 0 0 0 0 0 0 0 0 0 0 0 0 0 0 0 0.5 0"/>
<feBlend mode="normal" in2="BackgroundImageFix" result="effect1_dropShadow_1404_280"/>
<feBlend mode="normal" in="SourceGraphic" in2="effect1_dropShadow_1404_280" result="shape"/>
</filter>
<filter id="filter5_d_1404_280" x="0" y="0" width="134" height="115" filterUnits="userSpaceOnUse" color-interpolation-filters="sRGB">
<feFlood flood-opacity="0" result="BackgroundImageFix"/>
<feColorMatrix in="SourceAlpha" type="matrix" values="0 0 0 0 0 0 0 0 0 0 0 0 0 0 0 0 0 0 127 0" result="hardAlpha"/>
<feMorphology radius="2" operator="dilate" in="SourceAlpha" result="effect1_dropShadow_1404_280"/>
<feOffset/>
<feGaussianBlur stdDeviation="2"/>
<feComposite in2="hardAlpha" operator="out"/>
<feColorMatrix type="matrix" values="0 0 0 0 0 0 0 0 0 0 0 0 0 0 0 0 0 0 0.25 0"/>
<feBlend mode="normal" in2="BackgroundImageFix" result="effect1_dropShadow_1404_280"/>
<feBlend mode="normal" in="SourceGraphic" in2="effect1_dropShadow_1404_280" result="shape"/>
</filter>
<filter id="filter6_i_1404_280" x="79.6914" y="31.4214" width="18.2607" height="17.2935" filterUnits="userSpaceOnUse" color-interpolation-filters="sRGB">
<feFlood flood-opacity="0" result="BackgroundImageFix"/>
<feBlend mode="normal" in="SourceGraphic" in2="BackgroundImageFix" result="shape"/>
<feColorMatrix in="SourceAlpha" type="matrix" values="0 0 0 0 0 0 0 0 0 0 0 0 0 0 0 0 0 0 127 0" result="hardAlpha"/>
<feOffset dy="0.5"/>
<feGaussianBlur stdDeviation="1.25"/>
<feComposite in2="hardAlpha" operator="arithmetic" k2="-1" k3="1"/>
<feColorMatrix type="matrix" values="0 0 0 0 0 0 0 0 0 0 0 0 0 0 0 0 0 0 0.1 0"/>
<feBlend mode="normal" in2="shape" result="effect1_innerShadow_1404_280"/>
</filter>
<linearGradient id="paint0_linear_1404_280" x1="91.0734" y1="91.2803" x2="78.9274" y2="62.1351" gradientUnits="userSpaceOnUse">
<stop stop-color="#006699"/>
<stop offset="1" stop-color="#058CCF"/>
</linearGradient>
<linearGradient id="paint1_linear_1404_280" x1="47.0734" y1="91.2803" x2="34.9274" y2="62.1351" gradientUnits="userSpaceOnUse">
<stop stop-color="#00D95F"/>
<stop offset="1" stop-color="#07FF74"/>
</linearGradient>
<linearGradient id="paint2_linear_1404_280" x1="89" y1="25.3386" x2="89" y2="55.1811" gradientUnits="userSpaceOnUse">
<stop stop-color="#FCA759"/>
<stop offset="0.19" stop-color="#E82D56"/>
<stop offset="0.74" stop-color="#A22DB4"/>
<stop offset="1" stop-color="#643DCE"/>
</linearGradient>
<clipPath id="clip0_1404_280">
<rect x="33.001" y="29.3442" width="23.5714" height="21.6393" rx="6" fill="white"/>
</clipPath>
</defs>
</svg>
